<?xml version="1.0" encoding="utf-8" standalone="no"?>
<!DOCTYPE svg PUBLIC "-//W3C//DTD SVG 1.1//EN"
  "http://www.w3.org/Graphics/SVG/1.1/DTD/svg11.dtd">
<svg xmlns:xlink="http://www.w3.org/1999/xlink" width="404.102812pt" height="324.010125pt" viewBox="0 0 404.102812 324.010125" xmlns="http://www.w3.org/2000/svg" version="1.1">
 <metadata>
  <rdf:RDF xmlns:dc="http://purl.org/dc/elements/1.1/" xmlns:cc="http://creativecommons.org/ns#" xmlns:rdf="http://www.w3.org/1999/02/22-rdf-syntax-ns#">
   <cc:Work>
    <dc:type rdf:resource="http://purl.org/dc/dcmitype/StillImage"/>
    <dc:date>2025-07-23T14:41:32.836309</dc:date>
    <dc:format>image/svg+xml</dc:format>
    <dc:creator>
     <cc:Agent>
      <dc:title>Matplotlib v3.9.4, https://matplotlib.org/</dc:title>
     </cc:Agent>
    </dc:creator>
   </cc:Work>
  </rdf:RDF>
 </metadata>
 <defs>
  <style type="text/css">*{stroke-linejoin: round; stroke-linecap: butt}</style>
 </defs>
 <g id="figure_1">
  <g id="patch_1">
   <path d="M 0 324.010125 
L 404.102812 324.010125 
L 404.102812 0 
L 0 0 
z
" style="fill: #ffffff"/>
  </g>
  <g id="axes_1">
   <g id="patch_2">
    <path d="M 39.782813 287.6445 
L 396.902812 287.6445 
L 396.902812 21.5325 
L 39.782813 21.5325 
z
" style="fill: #ffffff"/>
   </g>
   <g id="matplotlib.axis_1">
    <g id="xtick_1">
     <g id="line2d_1">
      <defs>
       <path id="mfa45d5a30f" d="M 0 0 
L 0 3.5 
" style="stroke: #000000; stroke-width: 0.8"/>
      </defs>
      <g>
       <use xlink:href="#mfa45d5a30f" x="56.01554" y="287.6445" style="stroke: #000000; stroke-width: 0.8"/>
      </g>
     </g>
     <g id="text_1">
      <!-- 0.0 -->
      <g transform="translate(49.76554 301.58825) scale(0.1 -0.1)">
       <defs>
        <path id="TimesNewRomanPSMT-30" d="M 231 2094 
Q 231 2819 450 3342 
Q 669 3866 1031 4122 
Q 1313 4325 1613 4325 
Q 2100 4325 2488 3828 
Q 2972 3213 2972 2159 
Q 2972 1422 2759 906 
Q 2547 391 2217 158 
Q 1888 -75 1581 -75 
Q 975 -75 572 641 
Q 231 1244 231 2094 
z
M 844 2016 
Q 844 1141 1059 588 
Q 1238 122 1591 122 
Q 1759 122 1940 273 
Q 2122 425 2216 781 
Q 2359 1319 2359 2297 
Q 2359 3022 2209 3506 
Q 2097 3866 1919 4016 
Q 1791 4119 1609 4119 
Q 1397 4119 1231 3928 
Q 1006 3669 925 3112 
Q 844 2556 844 2016 
z
" transform="scale(0.015625)"/>
        <path id="TimesNewRomanPSMT-2e" d="M 800 606 
Q 947 606 1047 504 
Q 1147 403 1147 259 
Q 1147 116 1045 14 
Q 944 -88 800 -88 
Q 656 -88 554 14 
Q 453 116 453 259 
Q 453 406 554 506 
Q 656 606 800 606 
z
" transform="scale(0.015625)"/>
       </defs>
       <use xlink:href="#TimesNewRomanPSMT-30"/>
       <use xlink:href="#TimesNewRomanPSMT-2e" x="50"/>
       <use xlink:href="#TimesNewRomanPSMT-30" x="75"/>
      </g>
     </g>
    </g>
    <g id="xtick_2">
     <g id="line2d_2">
      <g>
       <use xlink:href="#mfa45d5a30f" x="120.946449" y="287.6445" style="stroke: #000000; stroke-width: 0.8"/>
      </g>
     </g>
     <g id="text_2">
      <!-- 0.2 -->
      <g transform="translate(114.696449 301.58825) scale(0.1 -0.1)">
       <defs>
        <path id="TimesNewRomanPSMT-32" d="M 2934 816 
L 2638 0 
L 138 0 
L 138 116 
Q 1241 1122 1691 1759 
Q 2141 2397 2141 2925 
Q 2141 3328 1894 3587 
Q 1647 3847 1303 3847 
Q 991 3847 742 3664 
Q 494 3481 375 3128 
L 259 3128 
Q 338 3706 661 4015 
Q 984 4325 1469 4325 
Q 1984 4325 2329 3994 
Q 2675 3663 2675 3213 
Q 2675 2891 2525 2569 
Q 2294 2063 1775 1497 
Q 997 647 803 472 
L 1909 472 
Q 2247 472 2383 497 
Q 2519 522 2628 598 
Q 2738 675 2819 816 
L 2934 816 
z
" transform="scale(0.015625)"/>
       </defs>
       <use xlink:href="#TimesNewRomanPSMT-30"/>
       <use xlink:href="#TimesNewRomanPSMT-2e" x="50"/>
       <use xlink:href="#TimesNewRomanPSMT-32" x="75"/>
      </g>
     </g>
    </g>
    <g id="xtick_3">
     <g id="line2d_3">
      <g>
       <use xlink:href="#mfa45d5a30f" x="185.877358" y="287.6445" style="stroke: #000000; stroke-width: 0.8"/>
      </g>
     </g>
     <g id="text_3">
      <!-- 0.4 -->
      <g transform="translate(179.627358 301.58825) scale(0.1 -0.1)">
       <defs>
        <path id="TimesNewRomanPSMT-34" d="M 2978 1563 
L 2978 1119 
L 2409 1119 
L 2409 0 
L 1894 0 
L 1894 1119 
L 100 1119 
L 100 1519 
L 2066 4325 
L 2409 4325 
L 2409 1563 
L 2978 1563 
z
M 1894 1563 
L 1894 3666 
L 406 1563 
L 1894 1563 
z
" transform="scale(0.015625)"/>
       </defs>
       <use xlink:href="#TimesNewRomanPSMT-30"/>
       <use xlink:href="#TimesNewRomanPSMT-2e" x="50"/>
       <use xlink:href="#TimesNewRomanPSMT-34" x="75"/>
      </g>
     </g>
    </g>
    <g id="xtick_4">
     <g id="line2d_4">
      <g>
       <use xlink:href="#mfa45d5a30f" x="250.808267" y="287.6445" style="stroke: #000000; stroke-width: 0.8"/>
      </g>
     </g>
     <g id="text_4">
      <!-- 0.6 -->
      <g transform="translate(244.558267 301.58825) scale(0.1 -0.1)">
       <defs>
        <path id="TimesNewRomanPSMT-36" d="M 2869 4325 
L 2869 4209 
Q 2456 4169 2195 4045 
Q 1934 3922 1679 3669 
Q 1425 3416 1258 3105 
Q 1091 2794 978 2366 
Q 1428 2675 1881 2675 
Q 2316 2675 2634 2325 
Q 2953 1975 2953 1425 
Q 2953 894 2631 456 
Q 2244 -75 1606 -75 
Q 1172 -75 869 213 
Q 275 772 275 1663 
Q 275 2231 503 2743 
Q 731 3256 1154 3653 
Q 1578 4050 1965 4187 
Q 2353 4325 2688 4325 
L 2869 4325 
z
M 925 2138 
Q 869 1716 869 1456 
Q 869 1156 980 804 
Q 1091 453 1309 247 
Q 1469 100 1697 100 
Q 1969 100 2183 356 
Q 2397 613 2397 1088 
Q 2397 1622 2184 2012 
Q 1972 2403 1581 2403 
Q 1463 2403 1327 2353 
Q 1191 2303 925 2138 
z
" transform="scale(0.015625)"/>
       </defs>
       <use xlink:href="#TimesNewRomanPSMT-30"/>
       <use xlink:href="#TimesNewRomanPSMT-2e" x="50"/>
       <use xlink:href="#TimesNewRomanPSMT-36" x="75"/>
      </g>
     </g>
    </g>
    <g id="xtick_5">
     <g id="line2d_5">
      <g>
       <use xlink:href="#mfa45d5a30f" x="315.739176" y="287.6445" style="stroke: #000000; stroke-width: 0.8"/>
      </g>
     </g>
     <g id="text_5">
      <!-- 0.8 -->
      <g transform="translate(309.489176 301.58825) scale(0.1 -0.1)">
       <defs>
        <path id="TimesNewRomanPSMT-38" d="M 1228 2134 
Q 725 2547 579 2797 
Q 434 3047 434 3316 
Q 434 3728 753 4026 
Q 1072 4325 1600 4325 
Q 2113 4325 2425 4047 
Q 2738 3769 2738 3413 
Q 2738 3175 2569 2928 
Q 2400 2681 1866 2347 
Q 2416 1922 2594 1678 
Q 2831 1359 2831 1006 
Q 2831 559 2490 242 
Q 2150 -75 1597 -75 
Q 994 -75 656 303 
Q 388 606 388 966 
Q 388 1247 577 1523 
Q 766 1800 1228 2134 
z
M 1719 2469 
Q 2094 2806 2194 3001 
Q 2294 3197 2294 3444 
Q 2294 3772 2109 3958 
Q 1925 4144 1606 4144 
Q 1288 4144 1088 3959 
Q 888 3775 888 3528 
Q 888 3366 970 3203 
Q 1053 3041 1206 2894 
L 1719 2469 
z
M 1375 2016 
Q 1116 1797 991 1539 
Q 866 1281 866 981 
Q 866 578 1086 336 
Q 1306 94 1647 94 
Q 1984 94 2187 284 
Q 2391 475 2391 747 
Q 2391 972 2272 1150 
Q 2050 1481 1375 2016 
z
" transform="scale(0.015625)"/>
       </defs>
       <use xlink:href="#TimesNewRomanPSMT-30"/>
       <use xlink:href="#TimesNewRomanPSMT-2e" x="50"/>
       <use xlink:href="#TimesNewRomanPSMT-38" x="75"/>
      </g>
     </g>
    </g>
    <g id="xtick_6">
     <g id="line2d_6">
      <g>
       <use xlink:href="#mfa45d5a30f" x="380.670085" y="287.6445" style="stroke: #000000; stroke-width: 0.8"/>
      </g>
     </g>
     <g id="text_6">
      <!-- 1.0 -->
      <g transform="translate(374.420085 301.58825) scale(0.1 -0.1)">
       <defs>
        <path id="TimesNewRomanPSMT-31" d="M 750 3822 
L 1781 4325 
L 1884 4325 
L 1884 747 
Q 1884 391 1914 303 
Q 1944 216 2037 169 
Q 2131 122 2419 116 
L 2419 0 
L 825 0 
L 825 116 
Q 1125 122 1212 167 
Q 1300 213 1334 289 
Q 1369 366 1369 747 
L 1369 3034 
Q 1369 3497 1338 3628 
Q 1316 3728 1258 3775 
Q 1200 3822 1119 3822 
Q 1003 3822 797 3725 
L 750 3822 
z
" transform="scale(0.015625)"/>
       </defs>
       <use xlink:href="#TimesNewRomanPSMT-31"/>
       <use xlink:href="#TimesNewRomanPSMT-2e" x="50"/>
       <use xlink:href="#TimesNewRomanPSMT-30" x="75"/>
      </g>
     </g>
    </g>
    <g id="text_7">
     <!-- False Positive Rate -->
     <g transform="translate(180.011562 314.671062) scale(0.1 -0.1)">
      <defs>
       <path id="TimesNewRomanPSMT-46" d="M 1309 4006 
L 1309 2341 
L 2081 2341 
Q 2347 2341 2470 2458 
Q 2594 2575 2634 2922 
L 2750 2922 
L 2750 1488 
L 2634 1488 
Q 2631 1734 2570 1850 
Q 2509 1966 2401 2023 
Q 2294 2081 2081 2081 
L 1309 2081 
L 1309 750 
Q 1309 428 1350 325 
Q 1381 247 1481 191 
Q 1619 116 1769 116 
L 1922 116 
L 1922 0 
L 103 0 
L 103 116 
L 253 116 
Q 516 116 634 269 
Q 709 369 709 750 
L 709 3488 
Q 709 3809 669 3913 
Q 638 3991 541 4047 
Q 406 4122 253 4122 
L 103 4122 
L 103 4238 
L 3256 4238 
L 3297 3306 
L 3188 3306 
Q 3106 3603 2998 3742 
Q 2891 3881 2733 3943 
Q 2575 4006 2244 4006 
L 1309 4006 
z
" transform="scale(0.015625)"/>
       <path id="TimesNewRomanPSMT-61" d="M 1822 413 
Q 1381 72 1269 19 
Q 1100 -59 909 -59 
Q 613 -59 420 144 
Q 228 347 228 678 
Q 228 888 322 1041 
Q 450 1253 767 1440 
Q 1084 1628 1822 1897 
L 1822 2009 
Q 1822 2438 1686 2597 
Q 1550 2756 1291 2756 
Q 1094 2756 978 2650 
Q 859 2544 859 2406 
L 866 2225 
Q 866 2081 792 2003 
Q 719 1925 600 1925 
Q 484 1925 411 2006 
Q 338 2088 338 2228 
Q 338 2497 613 2722 
Q 888 2947 1384 2947 
Q 1766 2947 2009 2819 
Q 2194 2722 2281 2516 
Q 2338 2381 2338 1966 
L 2338 994 
Q 2338 584 2353 492 
Q 2369 400 2405 369 
Q 2441 338 2488 338 
Q 2538 338 2575 359 
Q 2641 400 2828 588 
L 2828 413 
Q 2478 -56 2159 -56 
Q 2006 -56 1915 50 
Q 1825 156 1822 413 
z
M 1822 616 
L 1822 1706 
Q 1350 1519 1213 1441 
Q 966 1303 859 1153 
Q 753 1003 753 825 
Q 753 600 887 451 
Q 1022 303 1197 303 
Q 1434 303 1822 616 
z
" transform="scale(0.015625)"/>
       <path id="TimesNewRomanPSMT-6c" d="M 1184 4444 
L 1184 647 
Q 1184 378 1223 290 
Q 1263 203 1344 158 
Q 1425 113 1647 113 
L 1647 0 
L 244 0 
L 244 113 
Q 441 113 512 153 
Q 584 194 625 287 
Q 666 381 666 647 
L 666 3247 
Q 666 3731 644 3842 
Q 622 3953 573 3993 
Q 525 4034 450 4034 
Q 369 4034 244 3984 
L 191 4094 
L 1044 4444 
L 1184 4444 
z
" transform="scale(0.015625)"/>
       <path id="TimesNewRomanPSMT-73" d="M 2050 2947 
L 2050 1972 
L 1947 1972 
Q 1828 2431 1642 2597 
Q 1456 2763 1169 2763 
Q 950 2763 815 2647 
Q 681 2531 681 2391 
Q 681 2216 781 2091 
Q 878 1963 1175 1819 
L 1631 1597 
Q 2266 1288 2266 781 
Q 2266 391 1970 151 
Q 1675 -88 1309 -88 
Q 1047 -88 709 6 
Q 606 38 541 38 
Q 469 38 428 -44 
L 325 -44 
L 325 978 
L 428 978 
Q 516 541 762 319 
Q 1009 97 1316 97 
Q 1531 97 1667 223 
Q 1803 350 1803 528 
Q 1803 744 1651 891 
Q 1500 1038 1047 1263 
Q 594 1488 453 1669 
Q 313 1847 313 2119 
Q 313 2472 555 2709 
Q 797 2947 1181 2947 
Q 1350 2947 1591 2875 
Q 1750 2828 1803 2828 
Q 1853 2828 1881 2850 
Q 1909 2872 1947 2947 
L 2050 2947 
z
" transform="scale(0.015625)"/>
       <path id="TimesNewRomanPSMT-65" d="M 681 1784 
Q 678 1147 991 784 
Q 1303 422 1725 422 
Q 2006 422 2214 576 
Q 2422 731 2563 1106 
L 2659 1044 
Q 2594 616 2278 264 
Q 1963 -88 1488 -88 
Q 972 -88 605 314 
Q 238 716 238 1394 
Q 238 2128 614 2539 
Q 991 2950 1559 2950 
Q 2041 2950 2350 2633 
Q 2659 2316 2659 1784 
L 681 1784 
z
M 681 1966 
L 2006 1966 
Q 1991 2241 1941 2353 
Q 1863 2528 1708 2628 
Q 1553 2728 1384 2728 
Q 1125 2728 920 2526 
Q 716 2325 681 1966 
z
" transform="scale(0.015625)"/>
       <path id="TimesNewRomanPSMT-20" transform="scale(0.015625)"/>
       <path id="TimesNewRomanPSMT-50" d="M 1313 1984 
L 1313 750 
Q 1313 350 1400 253 
Q 1519 116 1759 116 
L 1922 116 
L 1922 0 
L 106 0 
L 106 116 
L 266 116 
Q 534 116 650 291 
Q 713 388 713 750 
L 713 3488 
Q 713 3888 628 3984 
Q 506 4122 266 4122 
L 106 4122 
L 106 4238 
L 1659 4238 
Q 2228 4238 2556 4120 
Q 2884 4003 3109 3725 
Q 3334 3447 3334 3066 
Q 3334 2547 2992 2222 
Q 2650 1897 2025 1897 
Q 1872 1897 1694 1919 
Q 1516 1941 1313 1984 
z
M 1313 2163 
Q 1478 2131 1606 2115 
Q 1734 2100 1825 2100 
Q 2150 2100 2386 2351 
Q 2622 2603 2622 3003 
Q 2622 3278 2509 3514 
Q 2397 3750 2190 3867 
Q 1984 3984 1722 3984 
Q 1563 3984 1313 3925 
L 1313 2163 
z
" transform="scale(0.015625)"/>
       <path id="TimesNewRomanPSMT-6f" d="M 1600 2947 
Q 2250 2947 2644 2453 
Q 2978 2031 2978 1484 
Q 2978 1100 2793 706 
Q 2609 313 2286 112 
Q 1963 -88 1566 -88 
Q 919 -88 538 428 
Q 216 863 216 1403 
Q 216 1797 411 2186 
Q 606 2575 925 2761 
Q 1244 2947 1600 2947 
z
M 1503 2744 
Q 1338 2744 1170 2645 
Q 1003 2547 900 2300 
Q 797 2053 797 1666 
Q 797 1041 1045 587 
Q 1294 134 1700 134 
Q 2003 134 2200 384 
Q 2397 634 2397 1244 
Q 2397 2006 2069 2444 
Q 1847 2744 1503 2744 
z
" transform="scale(0.015625)"/>
       <path id="TimesNewRomanPSMT-69" d="M 928 4444 
Q 1059 4444 1151 4351 
Q 1244 4259 1244 4128 
Q 1244 3997 1151 3903 
Q 1059 3809 928 3809 
Q 797 3809 703 3903 
Q 609 3997 609 4128 
Q 609 4259 701 4351 
Q 794 4444 928 4444 
z
M 1188 2947 
L 1188 647 
Q 1188 378 1227 289 
Q 1266 200 1342 156 
Q 1419 113 1622 113 
L 1622 0 
L 231 0 
L 231 113 
Q 441 113 512 153 
Q 584 194 626 287 
Q 669 381 669 647 
L 669 1750 
Q 669 2216 641 2353 
Q 619 2453 572 2492 
Q 525 2531 444 2531 
Q 356 2531 231 2484 
L 188 2597 
L 1050 2947 
L 1188 2947 
z
" transform="scale(0.015625)"/>
       <path id="TimesNewRomanPSMT-74" d="M 1031 3803 
L 1031 2863 
L 1700 2863 
L 1700 2644 
L 1031 2644 
L 1031 788 
Q 1031 509 1111 412 
Q 1191 316 1316 316 
Q 1419 316 1516 380 
Q 1613 444 1666 569 
L 1788 569 
Q 1678 263 1478 108 
Q 1278 -47 1066 -47 
Q 922 -47 784 33 
Q 647 113 581 261 
Q 516 409 516 719 
L 516 2644 
L 63 2644 
L 63 2747 
Q 234 2816 414 2980 
Q 594 3144 734 3369 
Q 806 3488 934 3803 
L 1031 3803 
z
" transform="scale(0.015625)"/>
       <path id="TimesNewRomanPSMT-76" d="M 53 2863 
L 1400 2863 
L 1400 2747 
L 1313 2747 
Q 1191 2747 1127 2687 
Q 1063 2628 1063 2528 
Q 1063 2419 1128 2269 
L 1794 688 
L 2463 2328 
Q 2534 2503 2534 2594 
Q 2534 2638 2509 2666 
Q 2475 2713 2422 2730 
Q 2369 2747 2206 2747 
L 2206 2863 
L 3141 2863 
L 3141 2747 
Q 2978 2734 2916 2681 
Q 2806 2588 2719 2369 
L 1703 -88 
L 1575 -88 
L 553 2328 
Q 484 2497 421 2570 
Q 359 2644 263 2694 
Q 209 2722 53 2747 
L 53 2863 
z
" transform="scale(0.015625)"/>
       <path id="TimesNewRomanPSMT-52" d="M 4325 0 
L 3194 0 
L 1759 1981 
Q 1600 1975 1500 1975 
Q 1459 1975 1412 1976 
Q 1366 1978 1316 1981 
L 1316 750 
Q 1316 350 1403 253 
Q 1522 116 1759 116 
L 1925 116 
L 1925 0 
L 109 0 
L 109 116 
L 269 116 
Q 538 116 653 291 
Q 719 388 719 750 
L 719 3488 
Q 719 3888 631 3984 
Q 509 4122 269 4122 
L 109 4122 
L 109 4238 
L 1653 4238 
Q 2328 4238 2648 4139 
Q 2969 4041 3192 3777 
Q 3416 3513 3416 3147 
Q 3416 2756 3161 2468 
Q 2906 2181 2372 2063 
L 3247 847 
Q 3547 428 3762 290 
Q 3978 153 4325 116 
L 4325 0 
z
M 1316 2178 
Q 1375 2178 1419 2176 
Q 1463 2175 1491 2175 
Q 2097 2175 2405 2437 
Q 2713 2700 2713 3106 
Q 2713 3503 2464 3751 
Q 2216 4000 1806 4000 
Q 1625 4000 1316 3941 
L 1316 2178 
z
" transform="scale(0.015625)"/>
      </defs>
      <use xlink:href="#TimesNewRomanPSMT-46"/>
      <use xlink:href="#TimesNewRomanPSMT-61" x="55.615234"/>
      <use xlink:href="#TimesNewRomanPSMT-6c" x="100"/>
      <use xlink:href="#TimesNewRomanPSMT-73" x="127.783203"/>
      <use xlink:href="#TimesNewRomanPSMT-65" x="166.699219"/>
      <use xlink:href="#TimesNewRomanPSMT-20" x="211.083984"/>
      <use xlink:href="#TimesNewRomanPSMT-50" x="236.083984"/>
      <use xlink:href="#TimesNewRomanPSMT-6f" x="291.699219"/>
      <use xlink:href="#TimesNewRomanPSMT-73" x="341.699219"/>
      <use xlink:href="#TimesNewRomanPSMT-69" x="380.615234"/>
      <use xlink:href="#TimesNewRomanPSMT-74" x="408.398438"/>
      <use xlink:href="#TimesNewRomanPSMT-69" x="436.181641"/>
      <use xlink:href="#TimesNewRomanPSMT-76" x="463.964844"/>
      <use xlink:href="#TimesNewRomanPSMT-65" x="513.964844"/>
      <use xlink:href="#TimesNewRomanPSMT-20" x="558.349609"/>
      <use xlink:href="#TimesNewRomanPSMT-52" x="583.349609"/>
      <use xlink:href="#TimesNewRomanPSMT-61" x="650.048828"/>
      <use xlink:href="#TimesNewRomanPSMT-74" x="694.433594"/>
      <use xlink:href="#TimesNewRomanPSMT-65" x="722.216797"/>
     </g>
    </g>
   </g>
   <g id="matplotlib.axis_2">
    <g id="ytick_1">
     <g id="line2d_7">
      <defs>
       <path id="mdda507ad52" d="M 0 0 
L -3.5 0 
" style="stroke: #000000; stroke-width: 0.8"/>
      </defs>
      <g>
       <use xlink:href="#mdda507ad52" x="39.782813" y="275.5485" style="stroke: #000000; stroke-width: 0.8"/>
      </g>
     </g>
     <g id="text_8">
      <!-- 0.0 -->
      <g transform="translate(20.282813 279.020375) scale(0.1 -0.1)">
       <use xlink:href="#TimesNewRomanPSMT-30"/>
       <use xlink:href="#TimesNewRomanPSMT-2e" x="50"/>
       <use xlink:href="#TimesNewRomanPSMT-30" x="75"/>
      </g>
     </g>
    </g>
    <g id="ytick_2">
     <g id="line2d_8">
      <g>
       <use xlink:href="#mdda507ad52" x="39.782813" y="227.1645" style="stroke: #000000; stroke-width: 0.8"/>
      </g>
     </g>
     <g id="text_9">
      <!-- 0.2 -->
      <g transform="translate(20.282813 230.636375) scale(0.1 -0.1)">
       <use xlink:href="#TimesNewRomanPSMT-30"/>
       <use xlink:href="#TimesNewRomanPSMT-2e" x="50"/>
       <use xlink:href="#TimesNewRomanPSMT-32" x="75"/>
      </g>
     </g>
    </g>
    <g id="ytick_3">
     <g id="line2d_9">
      <g>
       <use xlink:href="#mdda507ad52" x="39.782813" y="178.7805" style="stroke: #000000; stroke-width: 0.8"/>
      </g>
     </g>
     <g id="text_10">
      <!-- 0.4 -->
      <g transform="translate(20.282813 182.252375) scale(0.1 -0.1)">
       <use xlink:href="#TimesNewRomanPSMT-30"/>
       <use xlink:href="#TimesNewRomanPSMT-2e" x="50"/>
       <use xlink:href="#TimesNewRomanPSMT-34" x="75"/>
      </g>
     </g>
    </g>
    <g id="ytick_4">
     <g id="line2d_10">
      <g>
       <use xlink:href="#mdda507ad52" x="39.782813" y="130.3965" style="stroke: #000000; stroke-width: 0.8"/>
      </g>
     </g>
     <g id="text_11">
      <!-- 0.6 -->
      <g transform="translate(20.282813 133.868375) scale(0.1 -0.1)">
       <use xlink:href="#TimesNewRomanPSMT-30"/>
       <use xlink:href="#TimesNewRomanPSMT-2e" x="50"/>
       <use xlink:href="#TimesNewRomanPSMT-36" x="75"/>
      </g>
     </g>
    </g>
    <g id="ytick_5">
     <g id="line2d_11">
      <g>
       <use xlink:href="#mdda507ad52" x="39.782813" y="82.0125" style="stroke: #000000; stroke-width: 0.8"/>
      </g>
     </g>
     <g id="text_12">
      <!-- 0.8 -->
      <g transform="translate(20.282813 85.484375) scale(0.1 -0.1)">
       <use xlink:href="#TimesNewRomanPSMT-30"/>
       <use xlink:href="#TimesNewRomanPSMT-2e" x="50"/>
       <use xlink:href="#TimesNewRomanPSMT-38" x="75"/>
      </g>
     </g>
    </g>
    <g id="ytick_6">
     <g id="line2d_12">
      <g>
       <use xlink:href="#mdda507ad52" x="39.782813" y="33.6285" style="stroke: #000000; stroke-width: 0.8"/>
      </g>
     </g>
     <g id="text_13">
      <!-- 1.0 -->
      <g transform="translate(20.282813 37.100375) scale(0.1 -0.1)">
       <use xlink:href="#TimesNewRomanPSMT-31"/>
       <use xlink:href="#TimesNewRomanPSMT-2e" x="50"/>
       <use xlink:href="#TimesNewRomanPSMT-30" x="75"/>
      </g>
     </g>
    </g>
    <g id="text_14">
     <!-- True Positive Rate -->
     <g transform="translate(14.14375 191.628344) rotate(-90) scale(0.1 -0.1)">
      <defs>
       <path id="TimesNewRomanPSMT-54" d="M 3703 4238 
L 3750 3244 
L 3631 3244 
Q 3597 3506 3538 3619 
Q 3441 3800 3280 3886 
Q 3119 3972 2856 3972 
L 2259 3972 
L 2259 734 
Q 2259 344 2344 247 
Q 2463 116 2709 116 
L 2856 116 
L 2856 0 
L 1059 0 
L 1059 116 
L 1209 116 
Q 1478 116 1591 278 
Q 1659 378 1659 734 
L 1659 3972 
L 1150 3972 
Q 853 3972 728 3928 
Q 566 3869 450 3700 
Q 334 3531 313 3244 
L 194 3244 
L 244 4238 
L 3703 4238 
z
" transform="scale(0.015625)"/>
       <path id="TimesNewRomanPSMT-72" d="M 1038 2947 
L 1038 2303 
Q 1397 2947 1775 2947 
Q 1947 2947 2059 2842 
Q 2172 2738 2172 2600 
Q 2172 2478 2090 2393 
Q 2009 2309 1897 2309 
Q 1788 2309 1652 2417 
Q 1516 2525 1450 2525 
Q 1394 2525 1328 2463 
Q 1188 2334 1038 2041 
L 1038 669 
Q 1038 431 1097 309 
Q 1138 225 1241 169 
Q 1344 113 1538 113 
L 1538 0 
L 72 0 
L 72 113 
Q 291 113 397 181 
Q 475 231 506 341 
Q 522 394 522 644 
L 522 1753 
Q 522 2253 501 2348 
Q 481 2444 426 2487 
Q 372 2531 291 2531 
Q 194 2531 72 2484 
L 41 2597 
L 906 2947 
L 1038 2947 
z
" transform="scale(0.015625)"/>
       <path id="TimesNewRomanPSMT-75" d="M 2709 2863 
L 2709 1128 
Q 2709 631 2732 520 
Q 2756 409 2807 365 
Q 2859 322 2928 322 
Q 3025 322 3147 375 
L 3191 266 
L 2334 -88 
L 2194 -88 
L 2194 519 
Q 1825 119 1631 15 
Q 1438 -88 1222 -88 
Q 981 -88 804 51 
Q 628 191 559 409 
Q 491 628 491 1028 
L 491 2306 
Q 491 2509 447 2587 
Q 403 2666 317 2708 
Q 231 2750 6 2747 
L 6 2863 
L 1009 2863 
L 1009 947 
Q 1009 547 1148 422 
Q 1288 297 1484 297 
Q 1619 297 1789 381 
Q 1959 466 2194 703 
L 2194 2325 
Q 2194 2569 2105 2655 
Q 2016 2741 1734 2747 
L 1734 2863 
L 2709 2863 
z
" transform="scale(0.015625)"/>
      </defs>
      <use xlink:href="#TimesNewRomanPSMT-54"/>
      <use xlink:href="#TimesNewRomanPSMT-72" x="57.583984"/>
      <use xlink:href="#TimesNewRomanPSMT-75" x="90.884766"/>
      <use xlink:href="#TimesNewRomanPSMT-65" x="140.884766"/>
      <use xlink:href="#TimesNewRomanPSMT-20" x="185.269531"/>
      <use xlink:href="#TimesNewRomanPSMT-50" x="210.269531"/>
      <use xlink:href="#TimesNewRomanPSMT-6f" x="265.884766"/>
      <use xlink:href="#TimesNewRomanPSMT-73" x="315.884766"/>
      <use xlink:href="#TimesNewRomanPSMT-69" x="354.800781"/>
      <use xlink:href="#TimesNewRomanPSMT-74" x="382.583984"/>
      <use xlink:href="#TimesNewRomanPSMT-69" x="410.367188"/>
      <use xlink:href="#TimesNewRomanPSMT-76" x="438.150391"/>
      <use xlink:href="#TimesNewRomanPSMT-65" x="488.150391"/>
      <use xlink:href="#TimesNewRomanPSMT-20" x="532.535156"/>
      <use xlink:href="#TimesNewRomanPSMT-52" x="557.535156"/>
      <use xlink:href="#TimesNewRomanPSMT-61" x="624.234375"/>
      <use xlink:href="#TimesNewRomanPSMT-74" x="668.619141"/>
      <use xlink:href="#TimesNewRomanPSMT-65" x="696.402344"/>
     </g>
    </g>
   </g>
   <g id="line2d_13">
    <path d="M 56.01554 275.5485 
L 56.105922 239.824349 
L 56.151114 239.824349 
L 56.241496 237.080559 
L 56.286688 237.080559 
L 56.37707 229.425383 
L 56.422262 229.425383 
L 56.512644 223.279293 
L 56.557836 223.279293 
L 56.648218 218.285594 
L 56.69341 218.285594 
L 56.783792 211.673059 
L 56.828984 211.673059 
L 56.919366 204.841021 
L 56.964558 204.841021 
L 57.05494 197.981545 
L 57.100132 197.981545 
L 57.190514 190.98488 
L 57.235706 190.98488 
L 57.326088 184.482096 
L 57.416471 184.399783 
L 57.506854 182.534005 
L 57.642428 182.424254 
L 57.73281 177.814686 
L 57.823193 177.704934 
L 57.913576 176.662294 
L 58.04915 176.552542 
L 58.139532 175.01602 
L 58.184724 175.01602 
L 58.275106 172.65636 
L 58.365489 172.65636 
L 58.455872 171.833223 
L 58.501063 171.833223 
L 58.591446 170.927772 
L 58.636637 170.927772 
L 58.72702 169.720504 
L 58.772211 169.720504 
L 58.862594 167.333406 
L 58.952977 167.251093 
L 59.043359 165.687132 
L 59.088551 165.687132 
L 59.178933 164.973747 
L 59.269316 164.863995 
L 59.359699 161.159878 
L 59.40489 161.159878 
L 59.495273 159.705669 
L 59.585655 159.705669 
L 59.676038 158.992284 
L 59.766421 158.964846 
L 59.811612 158.416088 
L 59.901995 158.416088 
L 59.992377 155.288167 
L 60.037569 155.288167 
L 60.127951 148.867697 
L 60.173143 148.867697 
L 60.263525 147.632991 
L 60.308717 147.632991 
L 60.399099 140.554012 
L 60.444291 140.554012 
L 60.534673 137.508405 
L 60.625056 137.426091 
L 60.715439 134.188418 
L 60.76063 134.188418 
L 60.851013 132.624458 
L 60.896204 132.624458 
L 60.986587 132.0757 
L 61.031778 132.0757 
L 61.122161 129.030092 
L 61.212543 128.975217 
L 61.302926 127.082001 
L 61.393309 127.027125 
L 61.483691 126.423491 
L 61.574074 126.423491 
L 61.574074 126.31374 
L 61.664457 124.118708 
L 61.754839 124.09127 
L 61.800031 123.185819 
L 61.890413 123.185819 
L 61.980796 121.402355 
L 62.071179 121.402355 
L 62.161561 120.55178 
L 62.251944 120.524342 
L 62.342327 119.042695 
L 62.387518 119.042695 
L 62.477901 118.466499 
L 62.568283 118.411624 
L 62.613475 117.643362 
L 62.79424 117.615924 
L 62.884623 116.655598 
L 62.929814 116.655598 
L 63.020197 116.024526 
L 63.155771 115.997088 
L 63.200962 114.542879 
L 63.291345 114.542879 
L 63.381727 113.939245 
L 63.426919 113.939245 
L 63.517301 113.527677 
L 63.698067 113.445363 
L 63.743258 113.170984 
L 63.969215 113.061232 
L 64.014406 112.677102 
L 64.104789 112.677102 
L 64.195171 111.853964 
L 64.240363 111.853964 
L 64.330745 111.38752 
L 64.375937 111.38752 
L 64.466319 110.975952 
L 64.556702 110.948514 
L 64.601893 110.372318 
L 64.737467 110.34488 
L 64.82785 109.768684 
L 64.963424 109.713808 
L 65.053807 109.110174 
L 65.144189 109.02786 
L 65.234572 108.808357 
L 65.324955 108.780919 
L 65.415337 107.902906 
L 65.50572 107.875468 
L 65.596103 107.4639 
L 65.731677 107.354148 
L 65.822059 107.079769 
L 65.912442 106.997455 
L 66.002825 106.558449 
L 66.093207 106.558449 
L 66.18359 106.311508 
L 66.273973 106.28407 
L 66.364355 105.790188 
L 66.454738 105.76275 
L 66.545121 105.296305 
L 66.680695 105.268867 
L 66.725886 105.10424 
L 66.86146 105.021926 
L 66.951843 104.692671 
L 67.042225 104.58292 
L 67.042225 103.92441 
L 67.313373 103.869534 
L 67.403756 103.156149 
L 67.494139 103.046397 
L 67.584521 102.799456 
L 67.674904 102.799456 
L 67.720095 102.579953 
L 67.810478 102.579953 
L 67.900861 101.839129 
L 67.946052 101.839129 
L 68.036435 100.933679 
L 68.262391 100.878803 
L 68.352774 99.808725 
L 68.397965 99.808725 
L 68.488348 99.561783 
L 68.759496 99.534346 
L 68.849879 98.903274 
L 68.89507 98.903274 
L 68.985453 98.628895 
L 69.256601 98.574019 
L 69.346983 98.052699 
L 69.392175 98.052699 
L 69.482557 97.394189 
L 69.663323 97.339313 
L 69.753705 96.927745 
L 69.844088 96.845431 
L 69.934471 96.351549 
L 70.070045 96.269235 
L 70.070045 96.022294 
L 70.25081 95.994856 
L 70.341193 94.89734 
L 70.521958 94.89734 
L 70.521958 94.677837 
L 70.747915 94.568085 
L 70.838297 93.854699 
L 70.973871 93.799824 
L 71.019063 93.607758 
L 71.109445 93.607758 
L 71.199828 93.333379 
L 71.245019 93.333379 
L 71.335402 92.373053 
L 71.425785 92.373053 
L 71.516167 91.796857 
L 71.561359 91.796857 
L 71.651741 91.220661 
L 71.742124 91.220661 
L 71.832507 91.028595 
L 71.877698 91.028595 
L 71.922889 90.562151 
L 72.058463 90.534713 
L 72.148846 90.123144 
L 72.239229 90.013393 
L 72.329611 89.711576 
L 72.465185 89.711576 
L 72.555568 89.464635 
L 72.691142 89.382321 
L 72.736333 89.080504 
L 72.826716 89.080504 
L 72.871907 88.861001 
L 72.96229 88.861001 
L 73.007481 88.696373 
L 73.143055 88.586622 
L 73.233438 87.982988 
L 73.459395 87.873236 
L 73.549777 87.736047 
L 73.730543 87.626295 
L 73.775734 87.324478 
L 73.956499 87.214727 
L 74.001691 87.104975 
L 74.137265 87.050099 
L 74.227647 86.638531 
L 74.31803 86.528779 
L 74.408413 86.034897 
L 74.589178 85.980021 
L 74.634369 85.73308 
L 74.769943 85.705642 
L 74.815135 85.486139 
L 74.905518 85.486139 
L 74.9959 85.156884 
L 75.176666 85.047132 
L 75.221857 84.909943 
L 75.31224 84.909943 
L 75.402622 84.635564 
L 75.718962 84.55325 
L 75.809344 84.388622 
L 75.944918 84.306309 
L 76.035301 84.086806 
L 76.170875 84.03193 
L 76.261258 83.620361 
L 76.442023 83.538047 
L 76.532406 83.071603 
L 76.622788 82.989289 
L 76.713171 82.797224 
L 76.939128 82.687472 
L 77.02951 82.495407 
L 77.255467 82.385655 
L 77.34585 82.221028 
L 77.391041 82.221028 
L 77.481424 81.452767 
L 77.571806 81.452767 
L 77.662189 81.096074 
L 77.933337 81.01376 
L 77.978528 80.849133 
L 78.249676 80.739381 
L 78.340059 80.410126 
L 78.430442 80.382688 
L 78.520824 80.135747 
L 78.611207 80.108309 
L 78.70159 79.806493 
L 78.927546 79.724179 
L 78.972738 79.4498 
L 79.424651 79.367486 
L 79.469842 79.202859 
L 79.695799 79.147983 
L 79.786182 78.901042 
L 79.876564 78.818728 
L 79.966947 78.681538 
L 80.05733 78.681538 
L 80.147712 78.297408 
L 80.192904 78.297408 
L 80.283286 77.858401 
L 80.41886 77.74865 
L 80.464052 77.638898 
L 80.644817 77.584022 
L 80.690008 77.22733 
L 80.870774 77.117578 
L 80.961156 76.870637 
L 81.051539 76.870637 
L 81.141922 76.56882 
L 81.232304 76.486506 
L 81.322687 76.184689 
L 81.503452 76.102375 
L 81.593835 75.827996 
L 81.729409 75.718245 
L 81.729409 75.690807 
L 81.955366 75.581055 
L 81.955366 75.471304 
L 82.271705 75.361552 
L 82.316896 75.2518 
L 82.45247 75.2518 
L 82.45247 75.087173 
L 82.859192 74.977421 
L 82.904384 74.895108 
L 82.994766 74.895108 
L 83.085149 74.565853 
L 83.175532 74.483539 
L 83.220723 74.34635 
L 83.44668 74.34635 
L 83.537062 74.071971 
L 83.627445 74.044533 
L 83.627445 73.825029 
L 83.943784 73.715278 
L 84.034167 73.468337 
L 84.350506 73.358585 
L 84.440889 73.16652 
L 84.576463 73.139082 
L 84.666846 72.974454 
L 84.983185 72.892141 
L 85.073568 72.700075 
L 85.209142 72.590324 
L 85.209142 72.480572 
L 85.661055 72.398258 
L 85.751438 72.096441 
L 86.112968 71.98669 
L 86.203351 71.876938 
L 86.384116 71.876938 
L 86.429308 71.575121 
L 86.655264 71.520245 
L 86.700456 71.383056 
L 87.107178 71.273304 
L 87.19756 70.94405 
L 87.333134 70.861736 
L 87.333134 70.80686 
L 87.785048 70.697108 
L 87.87543 70.532481 
L 87.965813 70.505043 
L 88.056196 70.14835 
L 88.282152 70.038599 
L 88.372535 69.791658 
L 88.734066 69.709344 
L 88.824448 69.544716 
L 89.411936 69.434965 
L 89.457127 69.133148 
L 89.683084 69.050834 
L 89.728275 68.886207 
L 89.954232 68.831331 
L 90.044614 68.666703 
L 90.134997 68.556952 
L 90.180188 68.502076 
L 90.496528 68.392324 
L 90.541719 68.282573 
L 90.677293 68.200259 
L 90.722484 68.090507 
L 91.038824 68.008194 
L 91.129207 67.706377 
L 91.219589 67.596625 
L 91.309972 67.431998 
L 91.490737 67.349684 
L 91.58112 67.102743 
L 91.987842 66.992991 
L 92.033033 66.910678 
L 92.213799 66.800926 
L 92.213799 66.773488 
L 92.575329 66.718612 
L 92.575329 66.608861 
L 92.710903 66.608861 
L 92.801286 66.197292 
L 93.117625 66.114978 
L 93.208008 65.950351 
L 93.479156 65.840599 
L 93.569539 65.758286 
L 93.885878 65.675972 
L 93.931069 65.538782 
L 94.337791 65.429031 
L 94.428174 65.374155 
L 94.97047 65.291841 
L 95.060853 65.209528 
L 95.332001 65.18209 
L 95.332001 64.962586 
L 96.281019 64.852835 
L 96.32621 64.770521 
L 96.552167 64.660769 
L 96.552167 64.633332 
L 96.823315 64.52358 
L 96.868506 64.38639 
L 97.365611 64.276639 
L 97.410802 64.194325 
L 98.224246 64.084573 
L 98.224246 64.029698 
L 98.766542 63.919946 
L 98.856925 63.755319 
L 101.839553 63.673005 
L 101.839553 63.618129 
L 102.201083 63.508378 
L 102.246275 63.426064 
L 102.607805 63.316312 
L 102.698188 63.261436 
L 103.014527 63.179123 
L 103.014527 63.124247 
L 103.602015 63.014495 
L 103.602015 62.987057 
L 104.008737 62.877306 
L 104.053928 62.82243 
L 104.731798 62.712678 
L 104.822181 62.630365 
L 105.635625 62.520613 
L 105.635625 62.493175 
L 106.629834 62.383423 
L 106.629834 62.355986 
L 107.036556 62.246234 
L 107.036556 62.191358 
L 108.618253 62.081606 
L 108.618253 62.026731 
L 109.793228 61.944417 
L 109.88361 61.807227 
L 110.335524 61.697476 
L 110.335524 61.670038 
L 111.058585 61.560286 
L 111.103776 61.423097 
L 111.691264 61.313345 
L 111.691264 61.285907 
L 113.137386 61.176156 
L 113.137386 61.12128 
L 114.673892 61.011528 
L 114.673892 60.98409 
L 115.442144 60.874339 
L 115.442144 60.846901 
L 116.888267 60.737149 
L 116.97865 60.682273 
L 117.65652 60.572522 
L 117.65652 60.545084 
L 118.741112 60.435332 
L 118.831494 60.380456 
L 120.819913 60.270705 
L 120.865104 60.215829 
L 121.633357 60.106077 
L 121.72374 59.310378 
L 122.266036 59.200627 
L 122.266036 59.173189 
L 123.124671 59.063437 
L 123.124671 59.035999 
L 124.661177 58.926248 
L 124.751559 58.843934 
L 125.11309 58.789058 
L 125.11309 58.706744 
L 127.1467 58.596993 
L 127.237083 58.542117 
L 127.688996 58.459803 
L 127.688996 58.377489 
L 128.186101 58.267738 
L 128.186101 58.2403 
L 129.18031 58.130548 
L 129.270693 58.075673 
L 130.400476 57.965921 
L 130.400476 57.938483 
L 130.942772 57.828731 
L 131.033155 57.71898 
L 131.665833 57.664104 
L 131.665833 57.554352 
L 132.343703 57.444601 
L 132.343703 57.417163 
L 132.931191 57.307411 
L 132.931191 57.279973 
L 133.9254 57.170222 
L 133.970591 57.115346 
L 134.377313 57.06047 
L 134.422505 56.950718 
L 135.055183 56.840967 
L 135.055183 56.813529 
L 135.95901 56.731215 
L 136.049393 56.648901 
L 137.224367 56.566588 
L 137.224367 56.511712 
L 138.308959 56.429398 
L 138.308959 56.347085 
L 139.529126 56.264771 
L 139.574317 56.182457 
L 140.568526 56.072706 
L 140.613718 56.01783 
L 141.969458 55.908078 
L 142.05984 55.825764 
L 142.466562 55.716013 
L 142.511754 55.633699 
L 143.641537 55.523947 
L 143.641537 55.49651 
L 144.906894 55.386758 
L 144.952086 55.331882 
L 145.584764 55.249568 
L 145.584764 55.167255 
L 146.714548 55.057503 
L 146.714548 55.002627 
L 148.025096 54.920314 
L 148.025096 54.865438 
L 149.380836 54.755686 
L 149.471219 54.645935 
L 150.826959 54.536183 
L 150.826959 54.508745 
L 152.182699 54.426431 
L 152.22789 54.31668 
L 153.89997 54.206928 
L 153.89997 54.17949 
L 155.526858 54.069739 
L 155.526858 54.042301 
L 156.656641 53.959987 
L 156.656641 53.905111 
L 157.696042 53.795359 
L 157.696042 53.767922 
L 159.820035 53.65817 
L 159.820035 53.630732 
L 162.395941 53.52098 
L 162.486323 53.466105 
L 167.321796 53.356353 
L 167.321796 53.328915 
L 169.084258 53.219163 
L 169.084258 53.191726 
L 171.117868 53.081974 
L 171.117868 53.054536 
L 174.462027 52.944784 
L 174.462027 52.917347 
L 177.444655 52.807595 
L 177.444655 52.780157 
L 178.167716 52.670405 
L 178.167716 52.642968 
L 180.246518 52.533216 
L 180.291709 52.47834 
L 181.69264 52.368588 
L 181.69264 52.341151 
L 182.415702 52.231399 
L 182.415702 52.203961 
L 183.500294 52.094209 
L 183.590676 52.011896 
L 185.714669 51.929582 
L 185.714669 51.874706 
L 187.025218 51.764955 
L 187.025218 51.710079 
L 189.284785 51.600327 
L 189.329976 51.545451 
L 190.776099 51.4357 
L 190.776099 51.408262 
L 195.069275 51.29851 
L 195.069275 51.271072 
L 195.882719 51.161321 
L 195.882719 51.133883 
L 199.181687 51.024131 
L 199.226878 50.969255 
L 201.712401 50.859504 
L 201.712401 50.832066 
L 203.429672 50.722314 
L 203.429672 50.694876 
L 206.593066 50.585125 
L 206.593066 50.557687 
L 210.389138 50.447935 
L 210.389138 50.420497 
L 211.021816 50.310746 
L 211.021816 50.25587 
L 212.693896 50.146118 
L 212.693896 50.11868 
L 213.597722 50.008929 
L 213.597722 49.981491 
L 215.179419 49.871739 
L 215.179419 49.844301 
L 216.128437 49.73455 
L 216.128437 49.707112 
L 219.562979 49.59736 
L 219.562979 49.569922 
L 221.958119 49.460171 
L 221.958119 49.432733 
L 223.991729 49.322981 
L 223.991729 49.295543 
L 225.392661 49.185792 
L 225.392661 49.158354 
L 227.019549 49.048602 
L 227.019549 49.021164 
L 227.968567 48.911413 
L 228.058949 48.856537 
L 230.182942 48.746785 
L 230.182942 48.719347 
L 233.301144 48.609596 
L 233.301144 48.582158 
L 235.560711 48.499844 
L 235.560711 48.444968 
L 236.55492 48.362654 
L 236.645303 48.252903 
L 237.594321 48.143151 
L 237.594321 48.115713 
L 238.678913 48.005962 
L 238.724104 47.951086 
L 239.94427 47.923648 
L 239.94427 47.813896 
L 242.746133 47.704145 
L 242.836516 47.594393 
L 243.875916 47.484642 
L 243.966299 47.429766 
L 245.819144 47.320014 
L 245.819144 47.292576 
L 248.440241 47.182825 
L 248.530624 47.127949 
L 249.118111 47.045635 
L 249.118111 46.990759 
L 250.293086 46.881008 
L 250.338277 46.826132 
L 251.648826 46.71638 
L 251.648826 46.688942 
L 252.281505 46.606629 
L 252.281505 46.551753 
L 253.501671 46.442001 
L 253.501671 46.414563 
L 254.902602 46.304812 
L 254.902602 46.277374 
L 256.484299 46.167622 
L 256.484299 46.140184 
L 256.981403 46.057871 
L 256.981403 46.002995 
L 259.105396 45.893243 
L 259.105396 45.838367 
L 259.602501 45.728616 
L 259.602501 45.701178 
L 260.732284 45.591426 
L 260.822667 45.509112 
L 261.455345 45.426799 
L 261.545728 45.317047 
L 262.63032 45.207296 
L 262.63032 45.179858 
L 263.262999 45.097544 
L 263.262999 45.042668 
L 265.477374 44.932916 
L 265.477374 44.878041 
L 266.607158 44.795727 
L 266.607158 44.713413 
L 267.962898 44.603662 
L 267.962898 44.576224 
L 270.312847 44.466472 
L 270.312847 44.439034 
L 271.984926 44.329283 
L 271.984926 44.301845 
L 273.11471 44.192093 
L 273.11471 44.164655 
L 275.283894 44.054904 
L 275.374276 43.97259 
L 275.735807 43.862838 
L 275.735807 43.8354 
L 276.684825 43.753087 
L 276.684825 43.698211 
L 278.402096 43.615897 
L 278.447287 43.533583 
L 281.61068 43.423832 
L 281.61068 43.396394 
L 286.581727 43.286642 
L 286.581727 43.231766 
L 287.982659 43.149453 
L 288.073041 43.039701 
L 289.157633 42.929949 
L 289.157633 42.902512 
L 289.880695 42.79276 
L 289.925886 42.737884 
L 291.597965 42.628133 
L 291.597965 42.600695 
L 292.637366 42.490943 
L 292.727749 42.436067 
L 293.360427 42.326316 
L 293.405619 42.27144 
L 294.173871 42.216564 
L 294.173871 42.13425 
L 295.439229 42.024499 
L 295.439229 41.997061 
L 296.975734 41.887309 
L 296.975734 41.859871 
L 298.557431 41.75012 
L 298.557431 41.722682 
L 298.918962 41.61293 
L 298.964153 41.558054 
L 300.22951 41.448303 
L 300.22951 41.420865 
L 302.669842 41.311113 
L 302.760225 41.201362 
L 303.61886 41.09161 
L 303.61886 41.064172 
L 304.658261 40.95442 
L 304.658261 40.926982 
L 305.064983 40.817231 
L 305.110174 40.707479 
L 305.833236 40.597728 
L 305.833236 40.57029 
L 306.872636 40.460538 
L 306.872636 40.4331 
L 309.71969 40.323349 
L 309.71969 40.295911 
L 311.346578 40.213597 
L 311.346578 40.158721 
L 314.509972 40.04897 
L 314.509972 40.021532 
L 316.81473 39.91178 
L 316.81473 39.884342 
L 319.119488 39.774591 
L 319.119488 39.747153 
L 323.729004 39.637401 
L 323.729004 39.609963 
L 328.654859 39.500211 
L 328.654859 39.472774 
L 330.100982 39.363022 
L 330.191365 39.280708 
L 332.496123 39.170957 
L 332.541314 39.116081 
L 333.535524 39.006329 
L 333.580715 38.924015 
L 335.072029 38.814264 
L 335.072029 38.786826 
L 335.79509 38.677074 
L 335.79509 38.649636 
L 336.879682 38.539885 
L 336.970065 38.485009 
L 337.286404 38.375257 
L 337.376787 38.320382 
L 338.099848 38.21063 
L 338.14504 38.100878 
L 339.003675 37.991127 
L 339.003675 37.936251 
L 339.274823 37.826499 
L 339.365206 37.744186 
L 339.952693 37.661872 
L 340.043076 37.497244 
L 367.338642 37.414931 
L 367.383833 37.332617 
L 367.835746 37.222865 
L 367.880938 37.16799 
L 368.558808 37.058238 
L 368.558808 36.948486 
L 369.055912 36.838735 
L 369.146295 36.646669 
L 369.236678 36.646669 
L 369.236678 36.454604 
L 369.598208 36.37229 
L 369.6434 36.235101 
L 370.095313 36.125349 
L 370.095313 36.015598 
L 370.411652 35.933284 
L 370.456844 35.85097 
L 370.908757 35.741219 
L 370.99914 35.658905 
L 371.270288 35.549153 
L 371.36067 35.357088 
L 371.722201 35.274774 
L 371.767392 35.165023 
L 372.851984 35.055271 
L 372.942367 34.890644 
L 373.39428 34.780892 
L 373.484663 34.643702 
L 373.891385 34.588827 
L 373.936576 34.479075 
L 375.021168 34.369323 
L 375.021168 34.341886 
L 375.879804 34.232134 
L 375.879804 34.204696 
L 376.874013 34.094944 
L 376.874013 34.067506 
L 378.591284 33.957755 
L 378.591284 33.930317 
L 379.856641 33.820565 
L 379.856641 33.793127 
L 380.670085 33.710814 
L 380.670085 33.6285 
L 380.670085 33.6285 
" clip-path="url(#p96a727ccda)" style="fill: none; stroke: #ff8c00; stroke-width: 1.25; stroke-linecap: square"/>
   </g>
   <g id="line2d_14">
    <path d="M 56.01554 275.5485 
L 380.670085 33.6285 
" clip-path="url(#p96a727ccda)" style="fill: none; stroke-dasharray: 3.7,1.6; stroke-dashoffset: 0; stroke: #000080"/>
   </g>
   <g id="patch_3">
    <path d="M 39.782813 287.6445 
L 39.782813 21.5325 
" style="fill: none; stroke: #000000; stroke-width: 0.8; stroke-linejoin: miter; stroke-linecap: square"/>
   </g>
   <g id="patch_4">
    <path d="M 396.902812 287.6445 
L 396.902812 21.5325 
" style="fill: none; stroke: #000000; stroke-width: 0.8; stroke-linejoin: miter; stroke-linecap: square"/>
   </g>
   <g id="patch_5">
    <path d="M 39.782813 287.6445 
L 396.902812 287.6445 
" style="fill: none; stroke: #000000; stroke-width: 0.8; stroke-linejoin: miter; stroke-linecap: square"/>
   </g>
   <g id="patch_6">
    <path d="M 39.782813 21.5325 
L 396.902812 21.5325 
" style="fill: none; stroke: #000000; stroke-width: 0.8; stroke-linejoin: miter; stroke-linecap: square"/>
   </g>
   <g id="text_15">
    <!-- Multimodal Classifier ROC Curve -->
    <g transform="translate(135.512812 15.5325) scale(0.12 -0.12)">
     <defs>
      <path id="TimesNewRomanPSMT-4d" d="M 2619 0 
L 981 3566 
L 981 734 
Q 981 344 1066 247 
Q 1181 116 1431 116 
L 1581 116 
L 1581 0 
L 106 0 
L 106 116 
L 256 116 
Q 525 116 638 278 
Q 706 378 706 734 
L 706 3503 
Q 706 3784 644 3909 
Q 600 4000 483 4061 
Q 366 4122 106 4122 
L 106 4238 
L 1306 4238 
L 2844 922 
L 4356 4238 
L 5556 4238 
L 5556 4122 
L 5409 4122 
Q 5138 4122 5025 3959 
Q 4956 3859 4956 3503 
L 4956 734 
Q 4956 344 5044 247 
Q 5159 116 5409 116 
L 5556 116 
L 5556 0 
L 3756 0 
L 3756 116 
L 3906 116 
Q 4178 116 4288 278 
Q 4356 378 4356 734 
L 4356 3566 
L 2722 0 
L 2619 0 
z
" transform="scale(0.015625)"/>
      <path id="TimesNewRomanPSMT-6d" d="M 1050 2338 
Q 1363 2650 1419 2697 
Q 1559 2816 1721 2881 
Q 1884 2947 2044 2947 
Q 2313 2947 2506 2790 
Q 2700 2634 2766 2338 
Q 3088 2713 3309 2830 
Q 3531 2947 3766 2947 
Q 3994 2947 4170 2830 
Q 4347 2713 4450 2447 
Q 4519 2266 4519 1878 
L 4519 647 
Q 4519 378 4559 278 
Q 4591 209 4675 161 
Q 4759 113 4950 113 
L 4950 0 
L 3538 0 
L 3538 113 
L 3597 113 
Q 3781 113 3884 184 
Q 3956 234 3988 344 
Q 4000 397 4000 647 
L 4000 1878 
Q 4000 2228 3916 2372 
Q 3794 2572 3525 2572 
Q 3359 2572 3192 2489 
Q 3025 2406 2788 2181 
L 2781 2147 
L 2788 2013 
L 2788 647 
Q 2788 353 2820 281 
Q 2853 209 2943 161 
Q 3034 113 3253 113 
L 3253 0 
L 1806 0 
L 1806 113 
Q 2044 113 2133 169 
Q 2222 225 2256 338 
Q 2272 391 2272 647 
L 2272 1878 
Q 2272 2228 2169 2381 
Q 2031 2581 1784 2581 
Q 1616 2581 1450 2491 
Q 1191 2353 1050 2181 
L 1050 647 
Q 1050 366 1089 281 
Q 1128 197 1204 155 
Q 1281 113 1516 113 
L 1516 0 
L 100 0 
L 100 113 
Q 297 113 375 155 
Q 453 197 493 289 
Q 534 381 534 647 
L 534 1741 
Q 534 2213 506 2350 
Q 484 2453 437 2492 
Q 391 2531 309 2531 
Q 222 2531 100 2484 
L 53 2597 
L 916 2947 
L 1050 2947 
L 1050 2338 
z
" transform="scale(0.015625)"/>
      <path id="TimesNewRomanPSMT-64" d="M 2222 322 
Q 2013 103 1813 7 
Q 1613 -88 1381 -88 
Q 913 -88 563 304 
Q 213 697 213 1313 
Q 213 1928 600 2439 
Q 988 2950 1597 2950 
Q 1975 2950 2222 2709 
L 2222 3238 
Q 2222 3728 2198 3840 
Q 2175 3953 2125 3993 
Q 2075 4034 2000 4034 
Q 1919 4034 1784 3984 
L 1744 4094 
L 2597 4444 
L 2738 4444 
L 2738 1134 
Q 2738 631 2761 520 
Q 2784 409 2836 365 
Q 2888 322 2956 322 
Q 3041 322 3181 375 
L 3216 266 
L 2366 -88 
L 2222 -88 
L 2222 322 
z
M 2222 541 
L 2222 2016 
Q 2203 2228 2109 2403 
Q 2016 2578 1861 2667 
Q 1706 2756 1559 2756 
Q 1284 2756 1069 2509 
Q 784 2184 784 1559 
Q 784 928 1059 592 
Q 1334 256 1672 256 
Q 1956 256 2222 541 
z
" transform="scale(0.015625)"/>
      <path id="TimesNewRomanPSMT-43" d="M 3853 4334 
L 3950 2894 
L 3853 2894 
Q 3659 3541 3300 3825 
Q 2941 4109 2438 4109 
Q 2016 4109 1675 3895 
Q 1334 3681 1139 3212 
Q 944 2744 944 2047 
Q 944 1472 1128 1050 
Q 1313 628 1683 403 
Q 2053 178 2528 178 
Q 2941 178 3256 354 
Q 3572 531 3950 1056 
L 4047 994 
Q 3728 428 3303 165 
Q 2878 -97 2294 -97 
Q 1241 -97 663 684 
Q 231 1266 231 2053 
Q 231 2688 515 3219 
Q 800 3750 1298 4042 
Q 1797 4334 2388 4334 
Q 2847 4334 3294 4109 
Q 3425 4041 3481 4041 
Q 3566 4041 3628 4100 
Q 3709 4184 3744 4334 
L 3853 4334 
z
" transform="scale(0.015625)"/>
      <path id="TimesNewRomanPSMT-66" d="M 1319 2638 
L 1319 756 
Q 1319 356 1406 250 
Q 1522 113 1716 113 
L 1975 113 
L 1975 0 
L 266 0 
L 266 113 
L 394 113 
Q 519 113 622 175 
Q 725 238 764 344 
Q 803 450 803 756 
L 803 2638 
L 247 2638 
L 247 2863 
L 803 2863 
L 803 3050 
Q 803 3478 940 3775 
Q 1078 4072 1361 4255 
Q 1644 4438 1997 4438 
Q 2325 4438 2600 4225 
Q 2781 4084 2781 3909 
Q 2781 3816 2700 3733 
Q 2619 3650 2525 3650 
Q 2453 3650 2373 3701 
Q 2294 3753 2178 3923 
Q 2063 4094 1966 4153 
Q 1869 4213 1750 4213 
Q 1606 4213 1506 4136 
Q 1406 4059 1362 3898 
Q 1319 3738 1319 3069 
L 1319 2863 
L 2056 2863 
L 2056 2638 
L 1319 2638 
z
" transform="scale(0.015625)"/>
      <path id="TimesNewRomanPSMT-4f" d="M 2341 4334 
Q 3166 4334 3770 3707 
Q 4375 3081 4375 2144 
Q 4375 1178 3765 540 
Q 3156 -97 2291 -97 
Q 1416 -97 820 525 
Q 225 1147 225 2134 
Q 225 3144 913 3781 
Q 1509 4334 2341 4334 
z
M 2281 4106 
Q 1713 4106 1369 3684 
Q 941 3159 941 2147 
Q 941 1109 1384 550 
Q 1725 125 2284 125 
Q 2881 125 3270 590 
Q 3659 1056 3659 2059 
Q 3659 3147 3231 3681 
Q 2888 4106 2281 4106 
z
" transform="scale(0.015625)"/>
     </defs>
     <use xlink:href="#TimesNewRomanPSMT-4d"/>
     <use xlink:href="#TimesNewRomanPSMT-75" x="88.916016"/>
     <use xlink:href="#TimesNewRomanPSMT-6c" x="138.916016"/>
     <use xlink:href="#TimesNewRomanPSMT-74" x="166.699219"/>
     <use xlink:href="#TimesNewRomanPSMT-69" x="194.482422"/>
     <use xlink:href="#TimesNewRomanPSMT-6d" x="222.265625"/>
     <use xlink:href="#TimesNewRomanPSMT-6f" x="300.048828"/>
     <use xlink:href="#TimesNewRomanPSMT-64" x="350.048828"/>
     <use xlink:href="#TimesNewRomanPSMT-61" x="400.048828"/>
     <use xlink:href="#TimesNewRomanPSMT-6c" x="444.433594"/>
     <use xlink:href="#TimesNewRomanPSMT-20" x="472.216797"/>
     <use xlink:href="#TimesNewRomanPSMT-43" x="497.216797"/>
     <use xlink:href="#TimesNewRomanPSMT-6c" x="563.916016"/>
     <use xlink:href="#TimesNewRomanPSMT-61" x="591.699219"/>
     <use xlink:href="#TimesNewRomanPSMT-73" x="636.083984"/>
     <use xlink:href="#TimesNewRomanPSMT-73" x="675"/>
     <use xlink:href="#TimesNewRomanPSMT-69" x="713.916016"/>
     <use xlink:href="#TimesNewRomanPSMT-66" x="741.699219"/>
     <use xlink:href="#TimesNewRomanPSMT-69" x="775"/>
     <use xlink:href="#TimesNewRomanPSMT-65" x="802.783203"/>
     <use xlink:href="#TimesNewRomanPSMT-72" x="847.167969"/>
     <use xlink:href="#TimesNewRomanPSMT-20" x="880.46875"/>
     <use xlink:href="#TimesNewRomanPSMT-52" x="905.46875"/>
     <use xlink:href="#TimesNewRomanPSMT-4f" x="972.167969"/>
     <use xlink:href="#TimesNewRomanPSMT-43" x="1044.384766"/>
     <use xlink:href="#TimesNewRomanPSMT-20" x="1111.083984"/>
     <use xlink:href="#TimesNewRomanPSMT-43" x="1136.083984"/>
     <use xlink:href="#TimesNewRomanPSMT-75" x="1202.783203"/>
     <use xlink:href="#TimesNewRomanPSMT-72" x="1252.783203"/>
     <use xlink:href="#TimesNewRomanPSMT-76" x="1286.083984"/>
     <use xlink:href="#TimesNewRomanPSMT-65" x="1336.083984"/>
    </g>
   </g>
   <g id="legend_1">
    <g id="patch_7">
     <path d="M 254.22 282.6445 
L 389.902813 282.6445 
Q 391.902813 282.6445 391.902813 280.6445 
L 391.902813 267.505437 
Q 391.902813 265.505437 389.902813 265.505437 
L 254.22 265.505437 
Q 252.22 265.505437 252.22 267.505437 
L 252.22 280.6445 
Q 252.22 282.6445 254.22 282.6445 
z
" style="fill: #ffffff; opacity: 0.8; stroke: #cccccc; stroke-linejoin: miter"/>
    </g>
    <g id="line2d_15">
     <path d="M 256.22 273.005437 
L 266.22 273.005437 
L 276.22 273.005437 
" style="fill: none; stroke: #ff8c00; stroke-width: 1.25; stroke-linecap: square"/>
    </g>
    <g id="text_16">
     <!-- ROC curve (AUC = 0.92) -->
     <g transform="translate(284.22 276.505437) scale(0.1 -0.1)">
      <defs>
       <path id="TimesNewRomanPSMT-63" d="M 2631 1088 
Q 2516 522 2178 217 
Q 1841 -88 1431 -88 
Q 944 -88 581 321 
Q 219 731 219 1428 
Q 219 2103 620 2525 
Q 1022 2947 1584 2947 
Q 2006 2947 2278 2723 
Q 2550 2500 2550 2259 
Q 2550 2141 2473 2067 
Q 2397 1994 2259 1994 
Q 2075 1994 1981 2113 
Q 1928 2178 1911 2362 
Q 1894 2547 1784 2644 
Q 1675 2738 1481 2738 
Q 1169 2738 978 2506 
Q 725 2200 725 1697 
Q 725 1184 976 792 
Q 1228 400 1656 400 
Q 1963 400 2206 609 
Q 2378 753 2541 1131 
L 2631 1088 
z
" transform="scale(0.015625)"/>
       <path id="TimesNewRomanPSMT-28" d="M 1988 -1253 
L 1988 -1369 
Q 1516 -1131 1200 -813 
Q 750 -359 506 256 
Q 263 872 263 1534 
Q 263 2503 741 3301 
Q 1219 4100 1988 4444 
L 1988 4313 
Q 1603 4100 1356 3731 
Q 1109 3363 987 2797 
Q 866 2231 866 1616 
Q 866 947 969 400 
Q 1050 -31 1165 -292 
Q 1281 -553 1476 -793 
Q 1672 -1034 1988 -1253 
z
" transform="scale(0.015625)"/>
       <path id="TimesNewRomanPSMT-41" d="M 2928 1419 
L 1288 1419 
L 1000 750 
Q 894 503 894 381 
Q 894 284 986 211 
Q 1078 138 1384 116 
L 1384 0 
L 50 0 
L 50 116 
Q 316 163 394 238 
Q 553 388 747 847 
L 2238 4334 
L 2347 4334 
L 3822 809 
Q 4000 384 4145 257 
Q 4291 131 4550 116 
L 4550 0 
L 2878 0 
L 2878 116 
Q 3131 128 3220 200 
Q 3309 272 3309 375 
Q 3309 513 3184 809 
L 2928 1419 
z
M 2841 1650 
L 2122 3363 
L 1384 1650 
L 2841 1650 
z
" transform="scale(0.015625)"/>
       <path id="TimesNewRomanPSMT-55" d="M 3053 4122 
L 3053 4238 
L 4553 4238 
L 4553 4122 
L 4394 4122 
Q 4144 4122 4009 3913 
Q 3944 3816 3944 3463 
L 3944 1744 
Q 3944 1106 3817 754 
Q 3691 403 3320 151 
Q 2950 -100 2313 -100 
Q 1619 -100 1259 140 
Q 900 381 750 788 
Q 650 1066 650 1831 
L 650 3488 
Q 650 3878 542 4000 
Q 434 4122 194 4122 
L 34 4122 
L 34 4238 
L 1866 4238 
L 1866 4122 
L 1703 4122 
Q 1441 4122 1328 3956 
Q 1250 3844 1250 3488 
L 1250 1641 
Q 1250 1394 1295 1075 
Q 1341 756 1459 578 
Q 1578 400 1801 284 
Q 2025 169 2350 169 
Q 2766 169 3094 350 
Q 3422 531 3542 814 
Q 3663 1097 3663 1772 
L 3663 3488 
Q 3663 3884 3575 3984 
Q 3453 4122 3213 4122 
L 3053 4122 
z
" transform="scale(0.015625)"/>
       <path id="TimesNewRomanPSMT-3d" d="M 116 2759 
L 3488 2759 
L 3488 2503 
L 116 2503 
L 116 2759 
z
M 116 1741 
L 3488 1741 
L 3488 1484 
L 116 1484 
L 116 1741 
z
" transform="scale(0.015625)"/>
       <path id="TimesNewRomanPSMT-39" d="M 338 -88 
L 338 28 
Q 744 34 1094 217 
Q 1444 400 1770 856 
Q 2097 1313 2225 1859 
Q 1734 1544 1338 1544 
Q 891 1544 572 1889 
Q 253 2234 253 2806 
Q 253 3363 572 3797 
Q 956 4325 1575 4325 
Q 2097 4325 2469 3894 
Q 2925 3359 2925 2575 
Q 2925 1869 2578 1258 
Q 2231 647 1613 244 
Q 1109 -88 516 -88 
L 338 -88 
z
M 2275 2091 
Q 2331 2497 2331 2741 
Q 2331 3044 2228 3395 
Q 2125 3747 1936 3934 
Q 1747 4122 1506 4122 
Q 1228 4122 1018 3872 
Q 809 3622 809 3128 
Q 809 2469 1088 2097 
Q 1291 1828 1588 1828 
Q 1731 1828 1928 1897 
Q 2125 1966 2275 2091 
z
" transform="scale(0.015625)"/>
       <path id="TimesNewRomanPSMT-29" d="M 144 4313 
L 144 4444 
Q 619 4209 934 3891 
Q 1381 3434 1625 2820 
Q 1869 2206 1869 1541 
Q 1869 572 1392 -226 
Q 916 -1025 144 -1369 
L 144 -1253 
Q 528 -1038 776 -670 
Q 1025 -303 1145 264 
Q 1266 831 1266 1447 
Q 1266 2113 1163 2663 
Q 1084 3094 967 3353 
Q 850 3613 656 3853 
Q 463 4094 144 4313 
z
" transform="scale(0.015625)"/>
      </defs>
      <use xlink:href="#TimesNewRomanPSMT-52"/>
      <use xlink:href="#TimesNewRomanPSMT-4f" x="66.699219"/>
      <use xlink:href="#TimesNewRomanPSMT-43" x="138.916016"/>
      <use xlink:href="#TimesNewRomanPSMT-20" x="205.615234"/>
      <use xlink:href="#TimesNewRomanPSMT-63" x="230.615234"/>
      <use xlink:href="#TimesNewRomanPSMT-75" x="275"/>
      <use xlink:href="#TimesNewRomanPSMT-72" x="325"/>
      <use xlink:href="#TimesNewRomanPSMT-76" x="358.300781"/>
      <use xlink:href="#TimesNewRomanPSMT-65" x="408.300781"/>
      <use xlink:href="#TimesNewRomanPSMT-20" x="452.685547"/>
      <use xlink:href="#TimesNewRomanPSMT-28" x="477.685547"/>
      <use xlink:href="#TimesNewRomanPSMT-41" x="510.986328"/>
      <use xlink:href="#TimesNewRomanPSMT-55" x="583.203125"/>
      <use xlink:href="#TimesNewRomanPSMT-43" x="655.419922"/>
      <use xlink:href="#TimesNewRomanPSMT-20" x="722.119141"/>
      <use xlink:href="#TimesNewRomanPSMT-3d" x="747.119141"/>
      <use xlink:href="#TimesNewRomanPSMT-20" x="803.515625"/>
      <use xlink:href="#TimesNewRomanPSMT-30" x="828.515625"/>
      <use xlink:href="#TimesNewRomanPSMT-2e" x="878.515625"/>
      <use xlink:href="#TimesNewRomanPSMT-39" x="903.515625"/>
      <use xlink:href="#TimesNewRomanPSMT-32" x="953.515625"/>
      <use xlink:href="#TimesNewRomanPSMT-29" x="1003.515625"/>
     </g>
    </g>
   </g>
  </g>
 </g>
 <defs>
  <clipPath id="p96a727ccda">
   <rect x="39.782813" y="21.5325" width="357.12" height="266.112"/>
  </clipPath>
 </defs>
</svg>
