<?xml version="1.0" encoding="utf-8" standalone="no"?>
<!DOCTYPE svg PUBLIC "-//W3C//DTD SVG 1.1//EN"
  "http://www.w3.org/Graphics/SVG/1.1/DTD/svg11.dtd">
<svg xmlns:xlink="http://www.w3.org/1999/xlink" width="404.102812pt" height="324.010125pt" viewBox="0 0 404.102812 324.010125" xmlns="http://www.w3.org/2000/svg" version="1.1">
 <metadata>
  <rdf:RDF xmlns:dc="http://purl.org/dc/elements/1.1/" xmlns:cc="http://creativecommons.org/ns#" xmlns:rdf="http://www.w3.org/1999/02/22-rdf-syntax-ns#">
   <cc:Work>
    <dc:type rdf:resource="http://purl.org/dc/dcmitype/StillImage"/>
    <dc:date>2025-07-29T16:10:26.173247</dc:date>
    <dc:format>image/svg+xml</dc:format>
    <dc:creator>
     <cc:Agent>
      <dc:title>Matplotlib v3.9.0, https://matplotlib.org/</dc:title>
     </cc:Agent>
    </dc:creator>
   </cc:Work>
  </rdf:RDF>
 </metadata>
 <defs>
  <style type="text/css">*{stroke-linejoin: round; stroke-linecap: butt}</style>
 </defs>
 <g id="figure_1">
  <g id="patch_1">
   <path d="M 0 324.010125 
L 404.102812 324.010125 
L 404.102812 0 
L 0 0 
z
" style="fill: #ffffff"/>
  </g>
  <g id="axes_1">
   <g id="patch_2">
    <path d="M 39.782813 287.6445 
L 396.902812 287.6445 
L 396.902812 21.5325 
L 39.782813 21.5325 
z
" style="fill: #ffffff"/>
   </g>
   <g id="matplotlib.axis_1">
    <g id="xtick_1">
     <g id="line2d_1">
      <defs>
       <path id="m8aa5b04b8d" d="M 0 0 
L 0 3.5 
" style="stroke: #000000; stroke-width: 0.8"/>
      </defs>
      <g>
       <use xlink:href="#m8aa5b04b8d" x="56.01554" y="287.6445" style="stroke: #000000; stroke-width: 0.8"/>
      </g>
     </g>
     <g id="text_1">
      <!-- 0.0 -->
      <g transform="translate(49.76554 301.58825) scale(0.1 -0.1)">
       <defs>
        <path id="TimesNewRomanPSMT-30" d="M 231 2094 
Q 231 2819 450 3342 
Q 669 3866 1031 4122 
Q 1313 4325 1613 4325 
Q 2100 4325 2488 3828 
Q 2972 3213 2972 2159 
Q 2972 1422 2759 906 
Q 2547 391 2217 158 
Q 1888 -75 1581 -75 
Q 975 -75 572 641 
Q 231 1244 231 2094 
z
M 844 2016 
Q 844 1141 1059 588 
Q 1238 122 1591 122 
Q 1759 122 1940 273 
Q 2122 425 2216 781 
Q 2359 1319 2359 2297 
Q 2359 3022 2209 3506 
Q 2097 3866 1919 4016 
Q 1791 4119 1609 4119 
Q 1397 4119 1231 3928 
Q 1006 3669 925 3112 
Q 844 2556 844 2016 
z
" transform="scale(0.015625)"/>
        <path id="TimesNewRomanPSMT-2e" d="M 800 606 
Q 947 606 1047 504 
Q 1147 403 1147 259 
Q 1147 116 1045 14 
Q 944 -88 800 -88 
Q 656 -88 554 14 
Q 453 116 453 259 
Q 453 406 554 506 
Q 656 606 800 606 
z
" transform="scale(0.015625)"/>
       </defs>
       <use xlink:href="#TimesNewRomanPSMT-30"/>
       <use xlink:href="#TimesNewRomanPSMT-2e" x="50"/>
       <use xlink:href="#TimesNewRomanPSMT-30" x="75"/>
      </g>
     </g>
    </g>
    <g id="xtick_2">
     <g id="line2d_2">
      <g>
       <use xlink:href="#m8aa5b04b8d" x="120.946449" y="287.6445" style="stroke: #000000; stroke-width: 0.8"/>
      </g>
     </g>
     <g id="text_2">
      <!-- 0.2 -->
      <g transform="translate(114.696449 301.58825) scale(0.1 -0.1)">
       <defs>
        <path id="TimesNewRomanPSMT-32" d="M 2934 816 
L 2638 0 
L 138 0 
L 138 116 
Q 1241 1122 1691 1759 
Q 2141 2397 2141 2925 
Q 2141 3328 1894 3587 
Q 1647 3847 1303 3847 
Q 991 3847 742 3664 
Q 494 3481 375 3128 
L 259 3128 
Q 338 3706 661 4015 
Q 984 4325 1469 4325 
Q 1984 4325 2329 3994 
Q 2675 3663 2675 3213 
Q 2675 2891 2525 2569 
Q 2294 2063 1775 1497 
Q 997 647 803 472 
L 1909 472 
Q 2247 472 2383 497 
Q 2519 522 2628 598 
Q 2738 675 2819 816 
L 2934 816 
z
" transform="scale(0.015625)"/>
       </defs>
       <use xlink:href="#TimesNewRomanPSMT-30"/>
       <use xlink:href="#TimesNewRomanPSMT-2e" x="50"/>
       <use xlink:href="#TimesNewRomanPSMT-32" x="75"/>
      </g>
     </g>
    </g>
    <g id="xtick_3">
     <g id="line2d_3">
      <g>
       <use xlink:href="#m8aa5b04b8d" x="185.877358" y="287.6445" style="stroke: #000000; stroke-width: 0.8"/>
      </g>
     </g>
     <g id="text_3">
      <!-- 0.4 -->
      <g transform="translate(179.627358 301.58825) scale(0.1 -0.1)">
       <defs>
        <path id="TimesNewRomanPSMT-34" d="M 2978 1563 
L 2978 1119 
L 2409 1119 
L 2409 0 
L 1894 0 
L 1894 1119 
L 100 1119 
L 100 1519 
L 2066 4325 
L 2409 4325 
L 2409 1563 
L 2978 1563 
z
M 1894 1563 
L 1894 3666 
L 406 1563 
L 1894 1563 
z
" transform="scale(0.015625)"/>
       </defs>
       <use xlink:href="#TimesNewRomanPSMT-30"/>
       <use xlink:href="#TimesNewRomanPSMT-2e" x="50"/>
       <use xlink:href="#TimesNewRomanPSMT-34" x="75"/>
      </g>
     </g>
    </g>
    <g id="xtick_4">
     <g id="line2d_4">
      <g>
       <use xlink:href="#m8aa5b04b8d" x="250.808267" y="287.6445" style="stroke: #000000; stroke-width: 0.8"/>
      </g>
     </g>
     <g id="text_4">
      <!-- 0.6 -->
      <g transform="translate(244.558267 301.58825) scale(0.1 -0.1)">
       <defs>
        <path id="TimesNewRomanPSMT-36" d="M 2869 4325 
L 2869 4209 
Q 2456 4169 2195 4045 
Q 1934 3922 1679 3669 
Q 1425 3416 1258 3105 
Q 1091 2794 978 2366 
Q 1428 2675 1881 2675 
Q 2316 2675 2634 2325 
Q 2953 1975 2953 1425 
Q 2953 894 2631 456 
Q 2244 -75 1606 -75 
Q 1172 -75 869 213 
Q 275 772 275 1663 
Q 275 2231 503 2743 
Q 731 3256 1154 3653 
Q 1578 4050 1965 4187 
Q 2353 4325 2688 4325 
L 2869 4325 
z
M 925 2138 
Q 869 1716 869 1456 
Q 869 1156 980 804 
Q 1091 453 1309 247 
Q 1469 100 1697 100 
Q 1969 100 2183 356 
Q 2397 613 2397 1088 
Q 2397 1622 2184 2012 
Q 1972 2403 1581 2403 
Q 1463 2403 1327 2353 
Q 1191 2303 925 2138 
z
" transform="scale(0.015625)"/>
       </defs>
       <use xlink:href="#TimesNewRomanPSMT-30"/>
       <use xlink:href="#TimesNewRomanPSMT-2e" x="50"/>
       <use xlink:href="#TimesNewRomanPSMT-36" x="75"/>
      </g>
     </g>
    </g>
    <g id="xtick_5">
     <g id="line2d_5">
      <g>
       <use xlink:href="#m8aa5b04b8d" x="315.739176" y="287.6445" style="stroke: #000000; stroke-width: 0.8"/>
      </g>
     </g>
     <g id="text_5">
      <!-- 0.8 -->
      <g transform="translate(309.489176 301.58825) scale(0.1 -0.1)">
       <defs>
        <path id="TimesNewRomanPSMT-38" d="M 1228 2134 
Q 725 2547 579 2797 
Q 434 3047 434 3316 
Q 434 3728 753 4026 
Q 1072 4325 1600 4325 
Q 2113 4325 2425 4047 
Q 2738 3769 2738 3413 
Q 2738 3175 2569 2928 
Q 2400 2681 1866 2347 
Q 2416 1922 2594 1678 
Q 2831 1359 2831 1006 
Q 2831 559 2490 242 
Q 2150 -75 1597 -75 
Q 994 -75 656 303 
Q 388 606 388 966 
Q 388 1247 577 1523 
Q 766 1800 1228 2134 
z
M 1719 2469 
Q 2094 2806 2194 3001 
Q 2294 3197 2294 3444 
Q 2294 3772 2109 3958 
Q 1925 4144 1606 4144 
Q 1288 4144 1088 3959 
Q 888 3775 888 3528 
Q 888 3366 970 3203 
Q 1053 3041 1206 2894 
L 1719 2469 
z
M 1375 2016 
Q 1116 1797 991 1539 
Q 866 1281 866 981 
Q 866 578 1086 336 
Q 1306 94 1647 94 
Q 1984 94 2187 284 
Q 2391 475 2391 747 
Q 2391 972 2272 1150 
Q 2050 1481 1375 2016 
z
" transform="scale(0.015625)"/>
       </defs>
       <use xlink:href="#TimesNewRomanPSMT-30"/>
       <use xlink:href="#TimesNewRomanPSMT-2e" x="50"/>
       <use xlink:href="#TimesNewRomanPSMT-38" x="75"/>
      </g>
     </g>
    </g>
    <g id="xtick_6">
     <g id="line2d_6">
      <g>
       <use xlink:href="#m8aa5b04b8d" x="380.670085" y="287.6445" style="stroke: #000000; stroke-width: 0.8"/>
      </g>
     </g>
     <g id="text_6">
      <!-- 1.0 -->
      <g transform="translate(374.420085 301.58825) scale(0.1 -0.1)">
       <defs>
        <path id="TimesNewRomanPSMT-31" d="M 750 3822 
L 1781 4325 
L 1884 4325 
L 1884 747 
Q 1884 391 1914 303 
Q 1944 216 2037 169 
Q 2131 122 2419 116 
L 2419 0 
L 825 0 
L 825 116 
Q 1125 122 1212 167 
Q 1300 213 1334 289 
Q 1369 366 1369 747 
L 1369 3034 
Q 1369 3497 1338 3628 
Q 1316 3728 1258 3775 
Q 1200 3822 1119 3822 
Q 1003 3822 797 3725 
L 750 3822 
z
" transform="scale(0.015625)"/>
       </defs>
       <use xlink:href="#TimesNewRomanPSMT-31"/>
       <use xlink:href="#TimesNewRomanPSMT-2e" x="50"/>
       <use xlink:href="#TimesNewRomanPSMT-30" x="75"/>
      </g>
     </g>
    </g>
    <g id="text_7">
     <!-- Recall -->
     <g transform="translate(205.570938 314.671062) scale(0.1 -0.1)">
      <defs>
       <path id="TimesNewRomanPSMT-52" d="M 4325 0 
L 3194 0 
L 1759 1981 
Q 1600 1975 1500 1975 
Q 1459 1975 1412 1976 
Q 1366 1978 1316 1981 
L 1316 750 
Q 1316 350 1403 253 
Q 1522 116 1759 116 
L 1925 116 
L 1925 0 
L 109 0 
L 109 116 
L 269 116 
Q 538 116 653 291 
Q 719 388 719 750 
L 719 3488 
Q 719 3888 631 3984 
Q 509 4122 269 4122 
L 109 4122 
L 109 4238 
L 1653 4238 
Q 2328 4238 2648 4139 
Q 2969 4041 3192 3777 
Q 3416 3513 3416 3147 
Q 3416 2756 3161 2468 
Q 2906 2181 2372 2063 
L 3247 847 
Q 3547 428 3762 290 
Q 3978 153 4325 116 
L 4325 0 
z
M 1316 2178 
Q 1375 2178 1419 2176 
Q 1463 2175 1491 2175 
Q 2097 2175 2405 2437 
Q 2713 2700 2713 3106 
Q 2713 3503 2464 3751 
Q 2216 4000 1806 4000 
Q 1625 4000 1316 3941 
L 1316 2178 
z
" transform="scale(0.015625)"/>
       <path id="TimesNewRomanPSMT-65" d="M 681 1784 
Q 678 1147 991 784 
Q 1303 422 1725 422 
Q 2006 422 2214 576 
Q 2422 731 2563 1106 
L 2659 1044 
Q 2594 616 2278 264 
Q 1963 -88 1488 -88 
Q 972 -88 605 314 
Q 238 716 238 1394 
Q 238 2128 614 2539 
Q 991 2950 1559 2950 
Q 2041 2950 2350 2633 
Q 2659 2316 2659 1784 
L 681 1784 
z
M 681 1966 
L 2006 1966 
Q 1991 2241 1941 2353 
Q 1863 2528 1708 2628 
Q 1553 2728 1384 2728 
Q 1125 2728 920 2526 
Q 716 2325 681 1966 
z
" transform="scale(0.015625)"/>
       <path id="TimesNewRomanPSMT-63" d="M 2631 1088 
Q 2516 522 2178 217 
Q 1841 -88 1431 -88 
Q 944 -88 581 321 
Q 219 731 219 1428 
Q 219 2103 620 2525 
Q 1022 2947 1584 2947 
Q 2006 2947 2278 2723 
Q 2550 2500 2550 2259 
Q 2550 2141 2473 2067 
Q 2397 1994 2259 1994 
Q 2075 1994 1981 2113 
Q 1928 2178 1911 2362 
Q 1894 2547 1784 2644 
Q 1675 2738 1481 2738 
Q 1169 2738 978 2506 
Q 725 2200 725 1697 
Q 725 1184 976 792 
Q 1228 400 1656 400 
Q 1963 400 2206 609 
Q 2378 753 2541 1131 
L 2631 1088 
z
" transform="scale(0.015625)"/>
       <path id="TimesNewRomanPSMT-61" d="M 1822 413 
Q 1381 72 1269 19 
Q 1100 -59 909 -59 
Q 613 -59 420 144 
Q 228 347 228 678 
Q 228 888 322 1041 
Q 450 1253 767 1440 
Q 1084 1628 1822 1897 
L 1822 2009 
Q 1822 2438 1686 2597 
Q 1550 2756 1291 2756 
Q 1094 2756 978 2650 
Q 859 2544 859 2406 
L 866 2225 
Q 866 2081 792 2003 
Q 719 1925 600 1925 
Q 484 1925 411 2006 
Q 338 2088 338 2228 
Q 338 2497 613 2722 
Q 888 2947 1384 2947 
Q 1766 2947 2009 2819 
Q 2194 2722 2281 2516 
Q 2338 2381 2338 1966 
L 2338 994 
Q 2338 584 2353 492 
Q 2369 400 2405 369 
Q 2441 338 2488 338 
Q 2538 338 2575 359 
Q 2641 400 2828 588 
L 2828 413 
Q 2478 -56 2159 -56 
Q 2006 -56 1915 50 
Q 1825 156 1822 413 
z
M 1822 616 
L 1822 1706 
Q 1350 1519 1213 1441 
Q 966 1303 859 1153 
Q 753 1003 753 825 
Q 753 600 887 451 
Q 1022 303 1197 303 
Q 1434 303 1822 616 
z
" transform="scale(0.015625)"/>
       <path id="TimesNewRomanPSMT-6c" d="M 1184 4444 
L 1184 647 
Q 1184 378 1223 290 
Q 1263 203 1344 158 
Q 1425 113 1647 113 
L 1647 0 
L 244 0 
L 244 113 
Q 441 113 512 153 
Q 584 194 625 287 
Q 666 381 666 647 
L 666 3247 
Q 666 3731 644 3842 
Q 622 3953 573 3993 
Q 525 4034 450 4034 
Q 369 4034 244 3984 
L 191 4094 
L 1044 4444 
L 1184 4444 
z
" transform="scale(0.015625)"/>
      </defs>
      <use xlink:href="#TimesNewRomanPSMT-52"/>
      <use xlink:href="#TimesNewRomanPSMT-65" x="66.699219"/>
      <use xlink:href="#TimesNewRomanPSMT-63" x="111.083984"/>
      <use xlink:href="#TimesNewRomanPSMT-61" x="155.46875"/>
      <use xlink:href="#TimesNewRomanPSMT-6c" x="199.853516"/>
      <use xlink:href="#TimesNewRomanPSMT-6c" x="227.636719"/>
     </g>
    </g>
   </g>
   <g id="matplotlib.axis_2">
    <g id="ytick_1">
     <g id="line2d_7">
      <defs>
       <path id="m0e43fb49b6" d="M 0 0 
L -3.5 0 
" style="stroke: #000000; stroke-width: 0.8"/>
      </defs>
      <g>
       <use xlink:href="#m0e43fb49b6" x="39.782813" y="275.5485" style="stroke: #000000; stroke-width: 0.8"/>
      </g>
     </g>
     <g id="text_8">
      <!-- 0.0 -->
      <g transform="translate(20.282813 279.020375) scale(0.1 -0.1)">
       <use xlink:href="#TimesNewRomanPSMT-30"/>
       <use xlink:href="#TimesNewRomanPSMT-2e" x="50"/>
       <use xlink:href="#TimesNewRomanPSMT-30" x="75"/>
      </g>
     </g>
    </g>
    <g id="ytick_2">
     <g id="line2d_8">
      <g>
       <use xlink:href="#m0e43fb49b6" x="39.782813" y="227.1645" style="stroke: #000000; stroke-width: 0.8"/>
      </g>
     </g>
     <g id="text_9">
      <!-- 0.2 -->
      <g transform="translate(20.282813 230.636375) scale(0.1 -0.1)">
       <use xlink:href="#TimesNewRomanPSMT-30"/>
       <use xlink:href="#TimesNewRomanPSMT-2e" x="50"/>
       <use xlink:href="#TimesNewRomanPSMT-32" x="75"/>
      </g>
     </g>
    </g>
    <g id="ytick_3">
     <g id="line2d_9">
      <g>
       <use xlink:href="#m0e43fb49b6" x="39.782813" y="178.7805" style="stroke: #000000; stroke-width: 0.8"/>
      </g>
     </g>
     <g id="text_10">
      <!-- 0.4 -->
      <g transform="translate(20.282813 182.252375) scale(0.1 -0.1)">
       <use xlink:href="#TimesNewRomanPSMT-30"/>
       <use xlink:href="#TimesNewRomanPSMT-2e" x="50"/>
       <use xlink:href="#TimesNewRomanPSMT-34" x="75"/>
      </g>
     </g>
    </g>
    <g id="ytick_4">
     <g id="line2d_10">
      <g>
       <use xlink:href="#m0e43fb49b6" x="39.782813" y="130.3965" style="stroke: #000000; stroke-width: 0.8"/>
      </g>
     </g>
     <g id="text_11">
      <!-- 0.6 -->
      <g transform="translate(20.282813 133.868375) scale(0.1 -0.1)">
       <use xlink:href="#TimesNewRomanPSMT-30"/>
       <use xlink:href="#TimesNewRomanPSMT-2e" x="50"/>
       <use xlink:href="#TimesNewRomanPSMT-36" x="75"/>
      </g>
     </g>
    </g>
    <g id="ytick_5">
     <g id="line2d_11">
      <g>
       <use xlink:href="#m0e43fb49b6" x="39.782813" y="82.0125" style="stroke: #000000; stroke-width: 0.8"/>
      </g>
     </g>
     <g id="text_12">
      <!-- 0.8 -->
      <g transform="translate(20.282813 85.484375) scale(0.1 -0.1)">
       <use xlink:href="#TimesNewRomanPSMT-30"/>
       <use xlink:href="#TimesNewRomanPSMT-2e" x="50"/>
       <use xlink:href="#TimesNewRomanPSMT-38" x="75"/>
      </g>
     </g>
    </g>
    <g id="ytick_6">
     <g id="line2d_12">
      <g>
       <use xlink:href="#m0e43fb49b6" x="39.782813" y="33.6285" style="stroke: #000000; stroke-width: 0.8"/>
      </g>
     </g>
     <g id="text_13">
      <!-- 1.0 -->
      <g transform="translate(20.282813 37.100375) scale(0.1 -0.1)">
       <use xlink:href="#TimesNewRomanPSMT-31"/>
       <use xlink:href="#TimesNewRomanPSMT-2e" x="50"/>
       <use xlink:href="#TimesNewRomanPSMT-30" x="75"/>
      </g>
     </g>
    </g>
    <g id="text_14">
     <!-- Precision -->
     <g transform="translate(14.14375 173.197094) rotate(-90) scale(0.1 -0.1)">
      <defs>
       <path id="TimesNewRomanPSMT-50" d="M 1313 1984 
L 1313 750 
Q 1313 350 1400 253 
Q 1519 116 1759 116 
L 1922 116 
L 1922 0 
L 106 0 
L 106 116 
L 266 116 
Q 534 116 650 291 
Q 713 388 713 750 
L 713 3488 
Q 713 3888 628 3984 
Q 506 4122 266 4122 
L 106 4122 
L 106 4238 
L 1659 4238 
Q 2228 4238 2556 4120 
Q 2884 4003 3109 3725 
Q 3334 3447 3334 3066 
Q 3334 2547 2992 2222 
Q 2650 1897 2025 1897 
Q 1872 1897 1694 1919 
Q 1516 1941 1313 1984 
z
M 1313 2163 
Q 1478 2131 1606 2115 
Q 1734 2100 1825 2100 
Q 2150 2100 2386 2351 
Q 2622 2603 2622 3003 
Q 2622 3278 2509 3514 
Q 2397 3750 2190 3867 
Q 1984 3984 1722 3984 
Q 1563 3984 1313 3925 
L 1313 2163 
z
" transform="scale(0.015625)"/>
       <path id="TimesNewRomanPSMT-72" d="M 1038 2947 
L 1038 2303 
Q 1397 2947 1775 2947 
Q 1947 2947 2059 2842 
Q 2172 2738 2172 2600 
Q 2172 2478 2090 2393 
Q 2009 2309 1897 2309 
Q 1788 2309 1652 2417 
Q 1516 2525 1450 2525 
Q 1394 2525 1328 2463 
Q 1188 2334 1038 2041 
L 1038 669 
Q 1038 431 1097 309 
Q 1138 225 1241 169 
Q 1344 113 1538 113 
L 1538 0 
L 72 0 
L 72 113 
Q 291 113 397 181 
Q 475 231 506 341 
Q 522 394 522 644 
L 522 1753 
Q 522 2253 501 2348 
Q 481 2444 426 2487 
Q 372 2531 291 2531 
Q 194 2531 72 2484 
L 41 2597 
L 906 2947 
L 1038 2947 
z
" transform="scale(0.015625)"/>
       <path id="TimesNewRomanPSMT-69" d="M 928 4444 
Q 1059 4444 1151 4351 
Q 1244 4259 1244 4128 
Q 1244 3997 1151 3903 
Q 1059 3809 928 3809 
Q 797 3809 703 3903 
Q 609 3997 609 4128 
Q 609 4259 701 4351 
Q 794 4444 928 4444 
z
M 1188 2947 
L 1188 647 
Q 1188 378 1227 289 
Q 1266 200 1342 156 
Q 1419 113 1622 113 
L 1622 0 
L 231 0 
L 231 113 
Q 441 113 512 153 
Q 584 194 626 287 
Q 669 381 669 647 
L 669 1750 
Q 669 2216 641 2353 
Q 619 2453 572 2492 
Q 525 2531 444 2531 
Q 356 2531 231 2484 
L 188 2597 
L 1050 2947 
L 1188 2947 
z
" transform="scale(0.015625)"/>
       <path id="TimesNewRomanPSMT-73" d="M 2050 2947 
L 2050 1972 
L 1947 1972 
Q 1828 2431 1642 2597 
Q 1456 2763 1169 2763 
Q 950 2763 815 2647 
Q 681 2531 681 2391 
Q 681 2216 781 2091 
Q 878 1963 1175 1819 
L 1631 1597 
Q 2266 1288 2266 781 
Q 2266 391 1970 151 
Q 1675 -88 1309 -88 
Q 1047 -88 709 6 
Q 606 38 541 38 
Q 469 38 428 -44 
L 325 -44 
L 325 978 
L 428 978 
Q 516 541 762 319 
Q 1009 97 1316 97 
Q 1531 97 1667 223 
Q 1803 350 1803 528 
Q 1803 744 1651 891 
Q 1500 1038 1047 1263 
Q 594 1488 453 1669 
Q 313 1847 313 2119 
Q 313 2472 555 2709 
Q 797 2947 1181 2947 
Q 1350 2947 1591 2875 
Q 1750 2828 1803 2828 
Q 1853 2828 1881 2850 
Q 1909 2872 1947 2947 
L 2050 2947 
z
" transform="scale(0.015625)"/>
       <path id="TimesNewRomanPSMT-6f" d="M 1600 2947 
Q 2250 2947 2644 2453 
Q 2978 2031 2978 1484 
Q 2978 1100 2793 706 
Q 2609 313 2286 112 
Q 1963 -88 1566 -88 
Q 919 -88 538 428 
Q 216 863 216 1403 
Q 216 1797 411 2186 
Q 606 2575 925 2761 
Q 1244 2947 1600 2947 
z
M 1503 2744 
Q 1338 2744 1170 2645 
Q 1003 2547 900 2300 
Q 797 2053 797 1666 
Q 797 1041 1045 587 
Q 1294 134 1700 134 
Q 2003 134 2200 384 
Q 2397 634 2397 1244 
Q 2397 2006 2069 2444 
Q 1847 2744 1503 2744 
z
" transform="scale(0.015625)"/>
       <path id="TimesNewRomanPSMT-6e" d="M 1034 2341 
Q 1538 2947 1994 2947 
Q 2228 2947 2397 2830 
Q 2566 2713 2666 2444 
Q 2734 2256 2734 1869 
L 2734 647 
Q 2734 375 2778 278 
Q 2813 200 2889 156 
Q 2966 113 3172 113 
L 3172 0 
L 1756 0 
L 1756 113 
L 1816 113 
Q 2016 113 2095 173 
Q 2175 234 2206 353 
Q 2219 400 2219 647 
L 2219 1819 
Q 2219 2209 2117 2386 
Q 2016 2563 1775 2563 
Q 1403 2563 1034 2156 
L 1034 647 
Q 1034 356 1069 288 
Q 1113 197 1189 155 
Q 1266 113 1500 113 
L 1500 0 
L 84 0 
L 84 113 
L 147 113 
Q 366 113 442 223 
Q 519 334 519 647 
L 519 1709 
Q 519 2225 495 2337 
Q 472 2450 423 2490 
Q 375 2531 294 2531 
Q 206 2531 84 2484 
L 38 2597 
L 900 2947 
L 1034 2947 
L 1034 2341 
z
" transform="scale(0.015625)"/>
      </defs>
      <use xlink:href="#TimesNewRomanPSMT-50"/>
      <use xlink:href="#TimesNewRomanPSMT-72" x="55.615234"/>
      <use xlink:href="#TimesNewRomanPSMT-65" x="88.916016"/>
      <use xlink:href="#TimesNewRomanPSMT-63" x="133.300781"/>
      <use xlink:href="#TimesNewRomanPSMT-69" x="177.685547"/>
      <use xlink:href="#TimesNewRomanPSMT-73" x="205.46875"/>
      <use xlink:href="#TimesNewRomanPSMT-69" x="244.384766"/>
      <use xlink:href="#TimesNewRomanPSMT-6f" x="272.167969"/>
      <use xlink:href="#TimesNewRomanPSMT-6e" x="322.167969"/>
     </g>
    </g>
   </g>
   <g id="line2d_13">
    <path d="M 380.670085 142.243792 
L 380.191407 33.738364 
L 376.546085 33.6285 
L 56.01554 33.6285 
L 56.01554 33.6285 
" clip-path="url(#p3b66cc959f)" style="fill: none; stroke: #00008b; stroke-width: 1.2; stroke-linecap: square"/>
   </g>
   <g id="line2d_14">
    <path d="M 380.670085 142.243792 
L 380.559621 70.225161 
L 380.5228 70.228685 
L 380.5228 70.129774 
L 380.412335 66.698407 
L 380.375514 66.701648 
L 380.375514 66.599262 
L 380.26505 64.476716 
L 380.228228 64.479772 
L 380.228228 64.375148 
L 380.117764 62.886976 
L 380.044121 62.850328 
L 380.044121 62.786557 
L 379.933657 59.380878 
L 379.896835 59.383494 
L 379.896835 59.273643 
L 379.786371 57.1723 
L 379.749549 57.174718 
L 379.749549 57.085 
L 379.639085 54.572104 
L 379.565442 54.553486 
L 379.565442 54.48454 
L 379.454978 54.053265 
L 379.418157 54.055395 
L 379.418157 53.963 
L 379.307692 53.668462 
L 379.234049 53.579883 
L 379.123585 52.513409 
L 379.013121 52.449021 
L 379.013121 52.425564 
L 378.902657 52.055403 
L 378.865835 52.057344 
L 378.865835 51.963114 
L 378.755371 50.879206 
L 378.718549 50.881034 
L 378.718549 50.785765 
L 378.608085 50.025929 
L 378.571264 50.027674 
L 378.571264 49.931636 
L 378.460799 49.141164 
L 378.423978 49.142822 
L 378.423978 49.045985 
L 378.313514 48.662637 
L 378.239871 48.568558 
L 378.129407 47.987623 
L 378.055764 47.941753 
L 378.055764 47.892774 
L 377.945299 47.725734 
L 377.908478 47.727253 
L 377.908478 47.629043 
L 377.798014 47.486053 
L 377.687549 47.416687 
L 377.687549 47.392058 
L 377.613907 46.8765 
L 377.577085 46.877934 
L 377.540264 46.879368 
L 377.540264 46.780313 
L 377.429799 46.56133 
L 377.356157 46.539297 
L 377.356157 46.46475 
L 377.245692 46.344538 
L 377.098407 46.250413 
L 376.987942 46.154761 
L 376.730192 46.064379 
L 376.619728 45.868264 
L 376.546085 45.820825 
L 376.546085 45.770693 
L 376.472442 45.597674 
L 376.435621 45.598982 
L 376.251514 45.504957 
L 376.141049 45.382985 
L 376.067407 45.284742 
L 376.030585 45.159861 
L 375.956942 45.162389 
L 375.736014 45.094154 
L 375.736014 45.068869 
L 375.625549 44.946084 
L 375.441442 44.876264 
L 375.441442 44.850907 
L 375.441442 44.800177 
L 375.330978 44.803863 
L 375.220514 44.782162 
L 375.220514 44.70596 
L 375.110049 44.607905 
L 374.815478 44.515701 
L 374.705014 44.264108 
L 374.484085 44.194444 
L 374.484085 44.16886 
L 374.373621 44.095549 
L 374.189514 43.998797 
L 374.079049 43.95092 
L 373.784478 43.908691 
L 373.784478 43.857278 
L 373.710835 43.782371 
L 373.674014 43.783498 
L 373.011228 43.700645 
L 372.900764 43.652363 
L 372.606192 43.557851 
L 372.606192 43.480201 
L 372.495728 43.4835 
L 372.090692 43.391845 
L 372.017049 43.212171 
L 371.980228 43.213243 
L 371.832942 43.113433 
L 371.832942 43.087393 
L 371.722478 43.090573 
L 371.280621 43.025033 
L 371.280621 42.998928 
L 371.243799 42.947745 
L 371.170156 42.949839 
L 370.581013 42.86188 
L 370.581013 42.835679 
L 370.470549 42.838791 
L 370.360085 42.763216 
L 370.360085 42.736975 
L 370.286442 42.660253 
L 370.249621 42.661272 
L 370.028692 42.562192 
L 370.028692 42.456899 
L 369.918228 42.459892 
L 369.476371 42.366326 
L 369.476371 42.339921 
L 369.365906 42.342882 
L 368.997692 42.246934 
L 368.997692 42.220462 
L 368.887228 42.223388 
L 368.776763 42.173318 
L 368.776763 42.120296 
L 368.776763 42.093776 
L 368.666299 42.096662 
L 368.077156 42.005727 
L 367.966692 41.902098 
L 367.782585 41.800167 
L 367.782585 41.77349 
L 367.672121 41.776279 
L 367.414371 41.675907 
L 367.414371 41.64917 
L 367.303906 41.651922 
L 366.935692 41.634326 
L 366.935692 41.553943 
L 366.935692 41.527137 
L 366.825228 41.529852 
L 366.162442 41.438647 
L 366.125621 41.358817 
L 366.051978 41.360595 
L 365.646942 41.262507 
L 365.573299 41.129247 
L 365.536478 41.130112 
L 364.873692 41.037352 
L 364.800049 40.957714 
L 364.763228 40.958561 
L 364.06362 40.865903 
L 364.06362 40.838687 
L 363.953156 40.841196 
L 363.364013 40.745449 
L 363.364013 40.718143 
L 363.253549 40.720617 
L 361.48612 40.650522 
L 361.375656 40.570454 
L 360.71287 40.474756 
L 360.676049 40.420334 
L 360.602406 40.42193 
L 359.497763 40.335024 
L 359.387299 40.254098 
L 358.90862 40.180798 
L 358.798156 40.043805 
L 358.429942 39.967642 
L 358.429942 39.939706 
L 358.319477 39.941952 
L 356.699335 39.890774 
L 356.699335 39.862659 
L 356.58887 39.864891 
L 355.852442 39.823412 
L 355.852442 39.795202 
L 355.852442 39.766985 
L 355.741977 39.76919 
L 355.55787 39.744618 
L 355.55787 39.688097 
L 355.484227 39.576401 
L 355.447406 39.577115 
L 354.305942 39.514064 
L 354.305942 39.428751 
L 354.195477 39.430848 
L 353.974549 39.349581 
L 353.974549 39.29257 
L 353.864084 39.294621 
L 353.716799 39.240272 
L 353.716799 39.211719 
L 353.679977 39.126682 
L 353.606334 39.128011 
L 352.612156 39.059956 
L 352.538513 38.975123 
L 352.501692 38.975772 
L 351.69162 38.903647 
L 351.69162 38.874816 
L 351.581156 38.876734 
L 350.91837 38.801521 
L 350.844727 38.744901 
L 350.807906 38.745527 
L 348.34087 38.700198 
L 348.230406 38.643623 
L 347.162584 38.573594 
L 347.125763 38.51547 
L 347.05212 38.516681 
L 345.837013 38.448224 
L 345.837013 38.418697 
L 345.726548 38.420487 
L 345.211048 38.369661 
L 345.211048 38.340051 
L 345.137406 38.25233 
L 345.100584 38.252908 
L 344.806013 38.168472 
L 344.806013 38.13877 
L 344.695548 38.140464 
L 344.069584 38.060715 
L 344.069584 38.03091 
L 343.95912 38.032568 
L 343.406798 37.951218 
L 343.369977 37.891944 
L 343.296334 37.893018 
L 342.228513 37.818518 
L 342.228513 37.78846 
L 342.118048 37.790038 
L 339.982405 37.729884 
L 339.982405 37.699566 
L 339.871941 37.701123 
L 338.141334 37.634106 
L 338.141334 37.603565 
L 338.03087 37.605097 
L 336.410727 37.535477 
L 336.410727 37.504722 
L 336.300262 37.506225 
L 335.527012 37.424185 
L 335.45337 37.363383 
L 335.416548 37.363868 
L 334.716941 37.280123 
L 334.68012 37.218565 
L 334.606477 37.2195 
L 332.139441 37.157162 
L 332.139441 37.125832 
L 332.028977 37.127212 
L 330.997977 37.04572 
L 330.997977 37.01423 
L 330.887512 37.015572 
L 328.383655 36.950868 
L 328.383655 36.887225 
L 328.273191 36.888529 
L 327.279012 36.804409 
L 327.279012 36.772423 
L 327.168548 36.773687 
L 326.689869 36.715043 
L 326.689869 36.682963 
L 326.689869 36.650875 
L 326.579405 36.652094 
L 325.401119 36.568387 
L 325.401119 36.536114 
L 325.290655 36.537292 
L 324.517405 36.448386 
L 324.517405 36.415975 
L 324.406941 36.417109 
L 323.449584 36.329309 
L 323.449584 36.296735 
L 323.339119 36.297826 
L 322.381762 36.209156 
L 322.381762 36.17642 
L 322.271298 36.177466 
L 321.718976 36.084204 
L 321.608512 36.019473 
L 319.546512 35.938558 
L 319.546512 35.905394 
L 319.436048 35.90634 
L 317.374048 35.823781 
L 317.337226 35.757126 
L 317.263583 35.75772 
L 314.575619 35.678091 
L 314.575619 35.644215 
L 314.465155 35.64507 
L 309.420619 35.581155 
L 309.420619 35.546563 
L 309.310155 35.547392 
L 307.211333 35.458561 
L 307.211333 35.423629 
L 307.100869 35.424413 
L 301.761761 35.355986 
L 301.761761 35.320248 
L 301.651297 35.321004 
L 298.816047 35.232067 
L 298.816047 35.195859 
L 298.705583 35.196568 
L 295.79669 35.105423 
L 295.686226 34.995906 
L 294.139725 34.893733 
L 294.139725 34.856709 
L 294.029261 34.857276 
L 292.18819 34.792118 
L 292.151368 34.717553 
L 292.077725 34.717891 
L 290.38394 34.688059 
L 290.38394 34.650377 
L 290.38394 34.612684 
L 290.273475 34.613146 
L 289.205654 34.541836 
L 289.09519 34.466384 
L 285.155297 34.403512 
L 285.155297 34.364879 
L 285.044832 34.365233 
L 276.281332 34.314054 
L 276.281332 34.273835 
L 276.170868 34.274158 
L 268.364725 34.214364 
L 268.364725 34.172611 
L 268.25426 34.172893 
L 263.172903 34.100581 
L 263.172903 34.057741 
L 263.062439 34.057969 
L 259.601224 33.978032 
L 259.601224 33.934396 
L 259.49076 33.934562 
L 258.054724 33.848748 
L 258.054724 33.80473 
L 257.94426 33.804827 
L 232.647938 33.729321 
L 232.647938 33.678921 
L 232.537474 33.678953 
L 56.01554 33.6285 
L 56.01554 33.6285 
" clip-path="url(#p3b66cc959f)" style="fill: none; stroke: #006400; stroke-width: 1.2; stroke-linecap: square"/>
   </g>
   <g id="line2d_15">
    <path d="M 380.670085 142.243792 
L 380.596442 141.856268 
L 380.559621 141.863053 
L 380.5228 141.869839 
L 380.5228 141.760789 
L 380.412335 141.165448 
L 380.338692 141.119672 
L 380.338692 141.068768 
L 380.228228 140.757283 
L 380.191407 140.764063 
L 380.191407 140.653087 
L 380.080942 140.510895 
L 379.970478 140.4198 
L 379.860014 140.165044 
L 379.786371 140.083776 
L 379.786371 140.066521 
L 379.675907 139.593203 
L 379.639085 139.599978 
L 379.639085 139.49559 
L 379.528621 139.341571 
L 379.418157 139.274554 
L 379.418157 139.257072 
L 379.307692 139.049715 
L 379.086764 139.002596 
L 379.086764 138.985026 
L 378.976299 138.705967 
L 378.829014 138.62709 
L 378.718549 138.426079 
L 378.608085 138.36655 
L 378.608085 138.339908 
L 378.497621 138.146726 
L 378.387157 138.122494 
L 378.387157 138.060048 
L 378.276692 137.695525 
L 378.129407 137.632817 
L 378.129407 137.614839 
L 378.018942 137.382983 
L 377.908478 137.331087 
L 377.908478 137.294944 
L 377.798014 136.961881 
L 377.687549 136.918581 
L 377.687549 136.873098 
L 377.577085 136.63816 
L 377.392978 136.589779 
L 377.392978 136.562339 
L 377.282514 136.224936 
L 377.245692 136.231708 
L 377.245692 136.121263 
L 377.135228 135.772144 
L 377.061585 135.730094 
L 377.061585 135.674463 
L 376.951121 135.154684 
L 376.877478 135.084022 
L 376.877478 135.055939 
L 376.767014 134.869921 
L 376.619728 134.821787 
L 376.619728 134.78417 
L 376.546085 134.609295 
L 376.509264 134.616054 
L 376.361978 134.605354 
L 376.361978 134.539254 
L 376.251514 134.408214 
L 376.104228 134.378428 
L 376.104228 134.33103 
L 375.993764 133.875557 
L 375.920121 133.88907 
L 375.920121 133.783967 
L 375.883299 133.656728 
L 375.809657 133.670237 
L 375.662371 133.639755 
L 375.662371 133.591793 
L 375.551907 133.448746 
L 375.515085 133.455503 
L 375.515085 133.349622 
L 375.404621 133.109315 
L 375.146871 133.079203 
L 375.146871 133.050156 
L 375.036406 132.711177 
L 374.999585 132.71793 
L 374.999585 132.610773 
L 374.925942 132.487656 
L 374.889121 132.494406 
L 374.778656 132.416909 
L 374.778656 132.407126 
L 374.668192 132.182364 
L 374.631371 132.189114 
L 374.631371 132.081036 
L 374.557728 131.986288 
L 374.520906 131.993036 
L 374.373621 131.980628 
L 374.373621 131.911615 
L 374.263156 131.665032 
L 374.189514 131.59927 
L 374.189514 131.569526 
L 374.115871 131.533417 
L 374.079049 131.540164 
L 374.005406 131.504021 
L 374.005406 131.444408 
L 373.894942 131.325355 
L 373.821299 131.32889 
L 373.821299 131.229208 
L 373.710835 131.049659 
L 373.489906 130.990025 
L 373.489906 130.980005 
L 373.379442 130.739244 
L 373.084871 130.692571 
L 373.084871 130.682497 
L 372.974406 130.470657 
L 372.863942 130.409993 
L 372.863942 130.37963 
L 372.753478 129.953045 
L 372.606192 129.878064 
L 372.606192 129.867861 
L 372.532549 129.676985 
L 372.495728 129.683723 
L 372.385264 129.591289 
L 372.274799 129.303365 
L 372.164335 129.323571 
L 372.164335 129.220559 
L 372.053871 129.199518 
L 371.943406 129.188776 
L 371.943406 129.1165 
L 371.832942 128.659937 
L 371.685656 128.582786 
L 371.575192 128.279399 
L 371.501549 128.271922 
L 371.501549 128.188159 
L 371.427906 127.834 
L 371.391085 127.840716 
L 371.133335 127.845614 
L 371.133335 127.782362 
L 371.096514 127.651848 
L 371.022871 127.665285 
L 370.838764 127.656608 
L 370.838764 127.593135 
L 370.728299 127.369466 
L 370.507371 127.314142 
L 370.507371 127.303506 
L 370.433728 127.146569 
L 370.396906 127.153288 
L 370.323263 127.145401 
L 370.323263 127.060032 
L 370.212799 126.898442 
L 370.139156 126.911876 
L 370.139156 126.804751 
L 370.028692 126.513337 
L 369.955049 126.515991 
L 369.955049 126.419014 
L 369.844585 126.039098 
L 369.770942 125.998274 
L 369.770942 125.944006 
L 369.697299 125.707255 
L 369.660478 125.71395 
L 369.550013 125.625007 
L 369.439549 125.349883 
L 369.365906 125.352308 
L 369.365906 125.253625 
L 369.255442 124.844528 
L 369.181799 124.857889 
L 369.181799 124.747445 
L 369.108156 124.406269 
L 369.071335 124.41294 
L 368.960871 124.344052 
L 368.960871 124.32181 
L 368.850406 124.119021 
L 368.629478 124.047371 
L 368.519013 123.899557 
L 368.224442 123.84081 
L 368.113978 123.636074 
L 368.040335 123.593116 
L 368.040335 123.536778 
L 367.929871 123.251806 
L 367.782585 123.187845 
L 367.782585 123.176512 
L 367.782585 123.165176 
L 367.672121 123.185163 
L 367.303906 123.161071 
L 367.303906 123.149716 
L 367.230263 123.083521 
L 367.193442 123.090191 
L 366.972513 123.06198 
L 366.972513 123.027828 
L 366.862049 122.694025 
L 366.677942 122.635776 
L 366.677942 122.624319 
L 366.567478 122.368824 
L 366.457013 122.308266 
L 366.457013 122.285236 
L 366.346549 122.109174 
L 366.272906 122.087842 
L 366.272906 122.018492 
L 366.162442 121.85321 
L 366.015156 121.787026 
L 366.015156 121.775417 
L 365.904692 121.562816 
L 365.61012 121.569442 
L 365.61012 121.511138 
L 365.499656 121.29743 
L 365.462835 121.304082 
L 365.462835 121.198691 
L 365.35237 120.748445 
L 365.09462 120.700515 
L 365.09462 120.688706 
L 365.020978 120.536464 
L 364.984156 120.5431 
L 364.763228 120.511875 
L 364.763228 120.476319 
L 364.652763 120.175468 
L 364.615942 120.1821 
L 364.615942 120.074877 
L 364.542299 119.861274 
L 364.505478 119.867898 
L 364.468656 119.874522 
L 364.468656 119.766823 
L 364.358192 119.654842 
L 364.210906 119.573273 
L 364.100442 119.41269 
L 364.026799 119.377733 
L 364.026799 119.317449 
L 363.916335 119.21658 
L 363.732228 119.17713 
L 363.732228 119.140838 
L 363.621763 118.796799 
L 363.54812 118.712682 
L 363.54812 118.700507 
L 363.437656 118.268475 
L 363.364013 118.208135 
L 363.364013 118.171348 
L 363.253549 117.883853 
L 363.179906 117.786098 
L 363.069442 117.509261 
L 362.995799 117.472864 
L 362.995799 117.410893 
L 362.885335 117.256808 
L 362.627585 117.190836 
L 362.51712 116.961157 
L 362.369835 116.874917 
L 362.25937 116.80699 
L 362.038442 116.746105 
L 362.038442 116.733562 
L 361.927978 116.615133 
L 361.780692 116.565936 
L 361.780692 116.540768 
L 361.780692 116.465218 
L 361.670228 116.484902 
L 361.522942 116.43552 
L 361.522942 116.41029 
L 361.412478 116.316337 
L 361.302013 116.260165 
L 361.302013 116.234861 
L 361.22837 116.184685 
L 361.191549 116.191247 
L 361.154727 116.197809 
L 361.154727 116.096417 
L 361.081085 115.880915 
L 360.860156 115.831141 
L 360.860156 115.818404 
L 360.749692 115.697808 
L 360.639227 115.666397 
L 360.639227 115.615292 
L 360.528763 115.442994 
L 360.381477 115.405093 
L 360.381477 115.36661 
L 360.271013 115.167807 
L 360.086906 115.097503 
L 359.976442 114.949417 
L 359.902799 114.936662 
L 359.902799 114.859103 
L 359.902799 114.807355 
L 359.792335 114.826967 
L 359.68187 114.768885 
L 359.68187 114.742968 
L 359.608227 114.366245 
L 359.571406 114.37277 
L 359.460942 114.32719 
L 359.460942 114.288068 
L 359.387299 114.039799 
L 359.350477 114.046315 
L 359.240013 114.05278 
L 359.240013 113.961088 
L 359.240013 113.934871 
L 359.129549 113.95442 
L 359.019085 113.869 
L 358.90862 113.783428 
L 358.724513 113.750231 
L 358.724513 113.710733 
L 358.614049 113.492863 
L 358.466763 113.439601 
L 358.466763 113.413148 
L 358.356299 113.233978 
L 358.245835 113.147309 
L 358.13537 112.887384 
L 357.951263 112.853183 
L 357.951263 112.813143 
L 357.87762 112.719259 
L 357.840799 112.725753 
L 357.656692 112.651193 
L 357.546227 111.863225 
L 357.435763 111.8285 
L 357.435763 111.774342 
L 357.325299 111.413573 
L 357.214835 111.419314 
L 357.214835 111.323969 
L 357.141192 111.1185 
L 357.10437 111.124941 
L 356.920263 111.047731 
L 356.809799 110.875183 
L 356.699335 110.825852 
L 356.699335 110.784637 
L 356.58887 110.404416 
L 356.404763 110.353609 
L 356.404763 110.32595 
L 356.294299 110.234473 
L 356.147013 110.190855 
L 356.147013 110.149245 
L 356.07337 109.96761 
L 356.036549 109.974022 
L 355.962906 109.875501 
L 355.852442 109.769273 
L 355.705156 109.739079 
L 355.705156 109.683208 
L 355.594692 109.464531 
L 355.521049 109.477331 
L 355.521049 109.36513 
L 355.410584 108.891589 
L 355.373763 108.897966 
L 355.373763 108.799064 
L 355.263299 108.563292 
L 355.189656 108.476677 
L 355.079192 108.196976 
L 354.931906 108.136808 
L 354.931906 108.122536 
L 354.821442 107.998718 
L 354.52687 107.963655 
L 354.52687 107.949334 
L 354.416406 107.623902 
L 354.379584 107.630241 
L 354.379584 107.529493 
L 354.26912 107.404343 
L 354.085013 107.349376 
L 354.085013 107.334928 
L 353.974549 107.223767 
L 353.900906 107.135042 
L 353.790442 106.950858 
L 353.643156 106.874355 
L 353.532692 106.747671 
L 353.385406 106.670817 
L 353.274942 106.22128 
L 353.201299 106.131032 
L 353.127656 106.070077 
L 353.090834 106.076367 
L 352.833084 106.017324 
L 352.759442 105.838082 
L 352.72262 105.844368 
L 352.648977 105.768247 
L 352.648977 105.753456 
L 352.538513 105.431336 
L 352.428049 105.375833 
L 352.428049 105.346088 
L 352.317584 105.245793 
L 352.096656 105.17902 
L 351.986192 104.898833 
L 351.69162 104.843966 
L 351.581156 104.682522 
L 351.43387 104.662414 
L 351.43387 104.602211 
L 351.323406 104.500417 
L 351.249763 104.407282 
L 351.17612 104.298878 
L 351.139299 104.305119 
L 350.955191 104.275811 
L 350.955191 104.230385 
L 350.844727 104.08232 
L 350.697441 104.016139 
L 350.697441 104.00094 
L 350.623799 103.922155 
L 350.586977 103.928388 
L 350.476513 103.886189 
L 350.476513 103.840482 
L 350.366049 103.676079 
L 349.850549 103.671577 
L 349.850549 103.656273 
L 349.740084 103.475755 
L 349.666441 103.442166 
L 349.666441 103.380733 
L 349.592799 103.239392 
L 349.555977 103.245611 
L 349.37187 103.184286 
L 349.37187 103.16887 
L 349.261406 102.925 
L 349.11412 102.856975 
L 349.11412 102.841487 
L 349.040477 102.745398 
L 348.85637 102.71435 
L 348.85637 102.66776 
L 348.745906 102.546431 
L 348.635441 102.487177 
L 348.635441 102.456014 
L 348.524977 102.177956 
L 348.488156 102.184141 
L 348.488156 102.074585 
L 348.377691 101.952043 
L 348.08312 101.907251 
L 348.08312 101.891537 
L 347.972656 101.689742 
L 347.788549 101.657528 
L 347.788549 101.610193 
L 347.678084 101.328269 
L 347.56762 101.2992 
L 347.56762 101.235773 
L 347.530799 101.130811 
L 347.457156 101.143108 
L 347.30987 101.104136 
L 347.30987 101.056421 
L 347.236227 100.829727 
L 347.199406 100.835864 
L 346.941656 100.767052 
L 346.831191 100.593445 
L 346.720727 100.515655 
L 346.720727 100.499614 
L 346.647084 100.447669 
L 346.610263 100.453797 
L 346.315691 100.406417 
L 346.315691 100.390333 
L 346.205227 100.247698 
L 346.168406 100.253824 
L 346.168406 100.157056 
L 346.057941 100.01388 
L 346.02112 100.019995 
L 346.02112 99.92292 
L 345.910656 99.633089 
L 345.837013 99.629032 
L 345.837013 99.547731 
L 345.76337 99.429666 
L 345.726548 99.435754 
L 345.616084 99.388811 
L 345.616084 99.356186 
L 345.579263 98.953412 
L 345.50562 98.965542 
L 345.137406 98.944201 
L 345.137406 98.92778 
L 345.026941 98.880275 
L 344.73237 98.830155 
L 344.695548 98.786822 
L 344.621906 98.79897 
L 344.364156 98.742572 
L 344.290513 98.573011 
L 344.253691 98.57908 
L 344.21687 98.58515 
L 344.21687 98.485863 
L 344.106406 98.354896 
L 343.848656 98.314326 
L 343.848656 98.297714 
L 343.775013 98.076915 
L 343.738191 98.082965 
L 343.590906 98.040495 
L 343.590906 98.007136 
L 343.480441 97.858271 
L 343.259513 97.794151 
L 343.18587 97.672184 
L 343.149048 97.678223 
L 342.92812 97.630554 
L 342.92812 97.61376 
L 342.817656 97.446905 
L 342.744013 97.357898 
L 342.633548 97.224136 
L 342.559906 97.168602 
L 342.559906 97.134793 
L 342.449441 96.966636 
L 342.41262 96.972647 
L 342.41262 96.870904 
L 342.338977 96.798032 
L 342.302156 96.804035 
L 342.191691 96.720058 
L 342.081227 96.533691 
L 341.970763 96.449289 
L 341.933941 96.404041 
L 341.860298 96.416016 
L 341.713013 96.405793 
L 341.713013 96.337379 
L 341.602548 96.235472 
L 341.418441 96.179654 
L 341.418441 96.162494 
L 341.344798 96.105782 
L 341.307977 96.111762 
L 341.197513 96.043767 
L 341.197513 96.026568 
L 341.087048 95.837826 
L 340.939763 95.844462 
L 340.939763 95.758166 
L 340.939763 95.723624 
L 340.86612 95.735556 
L 340.792477 95.747493 
L 340.792477 95.643762 
L 340.682013 95.523135 
L 340.60837 95.431008 
L 340.497905 95.362062 
L 340.203334 95.340165 
L 340.203334 95.305372 
L 340.129691 95.265062 
L 340.09287 95.271015 
L 339.83512 95.208136 
L 339.761477 95.045448 
L 339.724655 95.051395 
L 339.209155 95.029754 
L 339.098691 94.924924 
L 338.988227 94.855022 
L 338.988227 94.837458 
L 338.914584 94.761479 
L 338.877763 94.767426 
L 338.730477 94.685622 
L 338.656834 94.609406 
L 338.620013 94.615349 
L 338.399084 94.562793 
L 338.399084 94.545136 
L 338.325441 94.450996 
L 338.28862 94.456935 
L 338.214977 94.468816 
L 338.214977 94.362642 
L 338.104513 94.291862 
L 337.957227 94.209152 
L 337.846763 94.049218 
L 337.809941 94.055141 
L 337.809941 93.948327 
L 337.699477 93.787746 
L 337.51537 93.763715 
L 337.51537 93.710097 
L 337.404905 93.530912 
L 337.220798 93.452793 
L 337.110334 93.416618 
L 336.889405 93.34414 
L 336.778941 93.001246 
L 336.705298 92.922618 
L 336.705298 92.904531 
L 336.594834 92.795412 
L 336.410727 92.734091 
L 336.410727 92.715947 
L 336.300262 92.442699 
L 336.22662 92.381532 
L 336.22662 92.345077 
L 336.152977 92.265552 
L 336.116155 92.271392 
L 335.784762 92.214353 
L 335.674298 92.140395 
L 335.563834 92.047986 
L 335.45337 91.955412 
L 335.158798 91.891829 
L 335.048334 91.632994 
L 334.68012 91.580397 
L 334.569655 91.523885 
L 334.532834 91.529707 
L 334.532834 91.418607 
L 334.42237 91.3248 
L 334.311905 91.230823 
L 334.201441 90.894469 
L 333.980512 90.835839 
L 333.980512 90.817155 
L 333.870048 90.534988 
L 333.64912 90.51332 
L 333.64912 90.475773 
L 333.538655 90.380323 
L 333.207262 90.3946 
L 333.207262 90.33811 
L 333.096798 90.185706 
L 332.912691 90.120063 
L 332.802227 89.948108 
L 332.691762 89.927456 
L 332.691762 89.870576 
L 332.654941 89.781435 
L 332.581298 89.792916 
L 332.470834 89.71513 
L 332.360369 89.675281 
L 332.249905 89.616337 
L 332.249905 89.597287 
L 332.139441 89.557309 
L 332.028977 89.498195 
L 332.028977 89.479105 
L 331.955334 89.375931 
L 331.918512 89.381656 
L 331.697584 89.320345 
L 331.587119 89.222548 
L 331.292548 89.172375 
L 331.182084 89.035742 
L 330.997977 88.98731 
L 330.997977 88.968044 
L 330.887512 88.811575 
L 330.629762 88.754902 
L 330.519298 88.59778 
L 330.445655 88.531618 
L 330.445655 88.512218 
L 330.335191 88.257219 
L 330.151084 88.188217 
L 330.040619 88.0101 
L 329.893334 87.954572 
L 329.893334 87.935012 
L 329.819691 87.82888 
L 329.782869 87.834536 
L 329.598762 87.764798 
L 329.561941 87.574054 
L 329.488298 87.585341 
L 329.377834 87.562936 
L 329.377834 87.503889 
L 329.267369 87.343414 
L 328.935977 87.295372 
L 328.935977 87.275606 
L 328.825512 87.29251 
L 328.567762 87.233026 
L 328.457298 87.011942 
L 328.310012 86.935068 
L 328.199548 86.832519 
L 328.162727 86.838134 
L 328.162727 86.738498 
L 328.052262 86.595655 
L 327.720869 86.546099 
L 327.610405 86.322422 
L 327.279012 86.292406 
L 327.279012 86.272306 
L 327.168548 86.067658 
L 327.021262 86.029479 
L 327.021262 85.989126 
L 326.910798 85.641816 
L 326.653048 85.579269 
L 326.579405 85.448173 
L 326.542584 85.453715 
L 326.174369 85.407414 
L 326.063905 85.342531 
L 325.916619 85.283092 
L 325.916619 85.262675 
L 325.806155 85.218011 
L 325.401119 85.197164 
L 325.401119 85.17669 
L 325.290655 84.906155 
L 325.180191 84.819941 
L 325.143369 84.763727 
L 325.069726 84.774764 
L 324.922441 84.735047 
L 324.922441 84.693821 
L 324.848798 84.498428 
L 324.811976 84.503931 
L 324.554226 84.439037 
L 324.443762 84.310504 
L 324.259655 84.234214 
L 324.149191 83.98027 
L 324.038726 83.975863 
L 324.038726 83.892462 
L 324.038726 83.788108 
L 323.928262 83.8045 
L 323.596869 83.791013 
L 323.596869 83.749172 
L 323.523226 83.529621 
L 323.486405 83.535073 
L 323.302298 83.457351 
L 323.228655 83.384157 
L 323.191834 83.389603 
L 323.081369 83.342808 
L 323.081369 83.30069 
L 322.970905 83.253795 
L 322.823619 83.170063 
L 322.786798 83.048731 
L 322.713155 83.059589 
L 322.455405 82.991782 
L 322.418583 82.912445 
L 322.344941 82.923295 
L 322.197655 82.860126 
L 322.197655 82.838893 
L 322.087191 82.770167 
L 321.866262 82.717588 
L 321.866262 82.696297 
L 321.755798 82.477988 
L 321.424405 82.419764 
L 321.313941 82.221792 
L 321.019369 82.200556 
L 321.019369 82.157604 
L 320.945726 82.082411 
L 320.908905 82.087797 
L 320.614333 82.023272 
L 320.503869 81.823711 
L 320.246119 81.774873 
L 320.246119 81.753242 
L 320.135655 81.726076 
L 319.841083 81.660715 
L 319.730619 81.43792 
L 319.215119 81.46947 
L 319.215119 81.404101 
L 319.141476 81.196581 
L 319.104655 81.201929 
L 319.031012 81.21263 
L 319.031012 81.103292 
L 318.957369 81.070202 
L 318.920548 81.075543 
L 318.736441 81.014611 
L 318.736441 80.992684 
L 318.625976 80.964826 
L 318.405048 80.909015 
L 318.405048 80.887037 
L 318.294583 80.727001 
L 318.036833 80.654045 
L 317.926369 80.404821 
L 317.594976 80.341812 
L 317.484512 80.202364 
L 317.300405 80.11768 
L 317.226762 79.927791 
L 317.18994 79.933069 
L 316.969012 79.853141 
L 316.858548 79.757196 
L 316.269405 79.752031 
L 316.269405 79.729609 
L 316.15894 79.610772 
L 315.790726 79.573578 
L 315.680262 79.341503 
L 315.422512 79.287975 
L 315.312048 79.122737 
L 315.201583 79.093161 
L 315.201583 79.047821 
L 315.12794 79.012938 
L 315.091119 79.018178 
L 314.943833 78.94831 
L 314.87019 78.8451 
L 314.833369 78.85033 
L 314.649262 78.830964 
L 314.649262 78.785406 
L 314.575619 78.613392 
L 314.538798 78.618608 
L 314.35469 78.576152 
L 314.35469 78.553291 
L 314.244226 78.454522 
L 314.133762 78.401418 
L 314.133762 78.378497 
L 314.023298 78.302347 
L 313.507797 78.283276 
L 313.397333 78.229854 
L 313.102762 78.20238 
L 313.102762 78.17932 
L 313.102762 78.087027 
L 312.992297 78.102625 
L 312.697726 78.0518 
L 312.660905 77.964436 
L 312.587262 77.974829 
L 312.403155 77.931306 
L 312.403155 77.90812 
L 312.29269 77.807666 
L 312.071762 77.81558 
L 312.071762 77.745833 
L 311.961297 77.668302 
L 311.703547 77.611363 
L 311.629905 77.52838 
L 311.593083 77.533557 
L 311.335333 77.476321 
L 311.298512 77.36448 
L 311.224869 77.374818 
L 311.077583 77.301743 
L 311.00394 77.147742 
L 310.967119 77.152897 
L 310.930297 77.158052 
L 310.930297 77.064006 
L 310.930297 77.01695 
L 310.819833 77.032385 
L 310.74619 76.99558 
L 310.74619 76.948457 
L 310.635726 76.751495 
L 310.451619 76.706202 
L 310.451619 76.682547 
L 310.377976 76.574413 
L 310.341155 76.579526 
L 310.193869 76.505144 
L 310.120226 76.467899 
L 310.083405 76.473008 
L 309.752012 76.447733 
L 309.752012 76.423952 
L 309.641547 76.320265 
L 309.310155 76.294707 
L 309.310155 76.270847 
L 309.19969 76.118945 
L 308.905119 76.063981 
L 308.794654 75.983395 
L 308.500083 75.976142 
L 308.500083 75.92811 
L 308.389619 75.726895 
L 308.16869 75.660932 
L 308.131869 75.593618 
L 308.058226 75.603752 
L 307.690012 75.581974 
L 307.690012 75.557789 
L 307.616369 75.446895 
L 307.579547 75.451958 
L 307.432262 75.399492 
L 307.432262 75.375238 
L 307.321797 75.3176 
L 306.806297 75.291193 
L 306.695833 75.233326 
L 306.62219 75.194701 
L 306.62219 75.145929 
L 306.511726 75.014595 
L 306.327619 74.966458 
L 306.327619 74.941991 
L 306.327619 74.868554 
L 306.217154 74.883656 
L 305.959404 74.820843 
L 305.922583 74.703113 
L 305.84894 74.713164 
L 305.517547 74.660029 
L 305.443904 74.62083 
L 305.407083 74.625856 
L 305.112512 74.567437 
L 305.002047 74.409555 
L 304.81794 74.33562 
L 304.781119 74.291079 
L 304.707476 74.301095 
L 304.412904 74.241935 
L 304.339262 74.152564 
L 304.30244 74.157567 
L 304.228797 74.117828 
L 304.228797 74.068055 
L 304.155154 73.953486 
L 304.118333 73.958473 
L 304.007869 73.973441 
L 304.007869 73.873639 
L 303.971047 73.828678 
L 303.897404 73.838636 
L 303.52919 73.81345 
L 303.52919 73.788421 
L 303.418726 73.753282 
L 303.160976 73.687854 
L 303.050511 73.526932 
L 302.645476 73.506086 
L 302.645476 73.480891 
L 302.645476 73.455689 
L 302.535011 73.470596 
L 302.129976 73.449602 
L 302.129976 73.42434 
L 302.056333 73.257242 
L 302.019511 73.262202 
L 301.72494 73.225883 
L 301.72494 73.200523 
L 301.688119 73.129358 
L 301.614476 73.139268 
L 301.283083 73.08222 
L 301.172619 72.893321 
L 301.098976 72.852186 
L 301.098976 72.801142 
L 301.098976 72.750072 
L 301.025333 72.759929 
L 300.841226 72.682302 
L 300.767583 72.589742 
L 300.730761 72.59466 
L 300.288904 72.576794 
L 300.288904 72.551121 
L 300.17844 72.360214 
L 300.067976 72.323435 
L 300.067976 72.271908 
L 300.067976 72.220354 
L 299.957511 72.235041 
L 299.66294 72.170957 
L 299.552476 72.030454 
L 299.331547 71.982046 
L 299.331547 71.956121 
L 299.331547 71.930189 
L 299.221083 71.94483 
L 299.14744 71.954597 
L 299.14744 71.850749 
L 299.036976 71.761391 
L 298.668761 71.705922 
L 298.63194 71.606473 
L 298.558297 71.616194 
L 298.300547 71.545732 
L 298.190083 71.455652 
L 298.005976 71.40132 
L 298.005976 71.375103 
L 297.895511 71.153326 
L 297.453654 71.132335 
L 297.453654 71.105989 
L 297.380011 71.010179 
L 297.34319 71.015002 
L 297.011797 70.979198 
L 297.011797 70.952764 
L 297.011797 70.899877 
L 296.901333 70.914334 
L 296.680404 70.837324 
L 296.643583 70.762593 
L 296.56994 70.772216 
L 296.164904 70.745509 
L 296.164904 70.718922 
L 296.164904 70.665726 
L 296.05444 70.68016 
L 295.907154 70.592869 
L 295.79669 70.527282 
L 295.428476 70.468469 
L 295.428476 70.441727 
L 295.318011 70.456134 
L 294.839333 70.411473 
L 294.839333 70.357821 
L 294.728868 70.372236 
L 294.471118 70.352178 
L 294.471118 70.298412 
L 294.360654 70.124368 
L 294.102904 70.13094 
L 294.102904 70.049982 
L 293.99244 69.983294 
L 293.697868 69.913314 
L 293.587404 69.84636 
L 293.440118 69.756922 
L 293.440118 69.729769 
L 293.329654 69.744065 
L 293.182368 69.654377 
L 293.145547 69.523004 
L 293.071904 69.5325 
L 292.740511 69.493428 
L 292.740511 69.466126 
L 292.630047 69.371057 
L 292.519583 69.303191 
L 292.519583 69.275812 
L 292.44594 69.20308 
L 292.409118 69.207806 
L 292.261833 69.116964 
L 292.151368 69.021216 
L 291.93044 68.939404 
L 291.819975 68.760502 
L 291.67269 68.668757 
L 291.562225 68.57214 
L 291.451761 68.53077 
L 291.451761 68.475343 
L 291.378118 68.401462 
L 291.341297 68.406121 
L 291.15719 68.346097 
L 291.15719 68.318303 
L 291.046725 68.220981 
L 290.494404 68.179196 
L 290.494404 68.095422 
L 290.38394 68.109351 
L 290.273475 68.067368 
L 290.273475 68.011413 
L 290.236654 67.932051 
L 290.163011 67.94131 
L 290.052547 67.899139 
L 290.052547 67.871093 
L 289.942083 67.772677 
L 289.684332 67.720651 
L 289.61069 67.673587 
L 289.573868 67.678199 
L 289.242475 67.635165 
L 289.242475 67.60695 
L 289.132011 67.620789 
L 288.469225 67.619166 
L 288.358761 67.519718 
L 288.137832 67.490699 
L 288.137832 67.462311 
L 288.06419 67.414733 
L 288.027368 67.419347 
L 287.732797 67.370931 
L 287.622332 67.32781 
L 287.254118 67.288377 
L 287.143654 67.102125 
L 286.885904 67.048376 
L 286.812261 66.971532 
L 286.77544 66.976119 
L 286.51769 66.922078 
L 286.51769 66.864581 
L 286.407225 66.878326 
L 286.186297 66.819457 
L 286.186297 66.790642 
L 286.075832 66.804382 
L 285.891725 66.740736 
L 285.781261 66.609981 
L 285.449868 66.564233 
L 285.339404 66.461939 
L 285.081654 66.43577 
L 285.081654 66.40671 
L 284.971189 66.304021 
L 284.750261 66.243898 
L 284.639797 66.140821 
L 284.602975 66.145354 
L 284.602975 66.057726 
L 284.529332 65.891257 
L 284.492511 65.895763 
L 284.418868 65.846186 
L 284.418868 65.816877 
L 284.345225 65.708534 
L 284.308404 65.713022 
L 283.756082 65.721659 
L 283.756082 65.692231 
L 283.756082 65.603895 
L 283.645618 65.61736 
L 283.498332 65.546848 
L 283.387868 65.442171 
L 283.240582 65.43051 
L 283.240582 65.371347 
L 283.240582 65.282539 
L 283.130118 65.29592 
L 282.872368 65.238197 
L 282.761904 65.132771 
L 282.283225 65.131175 
L 282.283225 65.101388 
L 282.209582 64.931357 
L 282.172761 64.935794 
L 281.915011 64.966888 
L 281.915011 64.877215 
L 281.804547 64.800746 
L 281.473154 64.750697 
L 281.399511 64.669503 
L 281.362689 64.673924 
L 280.994475 64.658045 
L 280.994475 64.627952 
L 280.884011 64.550865 
L 280.073939 64.557644 
L 280.000296 64.44545 
L 279.963475 64.449872 
L 279.853011 64.432841 
L 279.853011 64.372211 
L 279.742546 64.294415 
L 279.447975 64.268915 
L 279.447975 64.238501 
L 279.337511 64.190851 
L 279.153404 64.18241 
L 279.153404 64.121445 
L 279.116582 64.034318 
L 279.042939 64.043096 
L 278.711546 64.021514 
L 278.711546 63.990929 
L 278.637904 63.785315 
L 278.601082 63.789682 
L 278.416975 63.719448 
L 278.416975 63.658013 
L 278.306511 63.671082 
L 277.754189 63.644174 
L 277.680546 63.560378 
L 277.643725 63.564735 
L 277.533261 63.577815 
L 277.533261 63.485157 
L 277.533261 63.299598 
L 277.422796 63.312585 
L 276.870475 63.28458 
L 276.796832 63.137851 
L 276.760011 63.142173 
L 276.539082 63.074694 
L 276.539082 63.043531 
L 276.428618 63.056479 
L 276.170868 63.024304 
L 276.170868 62.993073 
L 276.170868 62.899326 
L 276.060404 62.912242 
L 275.876296 62.871186 
L 275.876296 62.839868 
L 275.876296 62.808541 
L 275.765832 62.821439 
L 275.581725 62.74883 
L 275.581725 62.717435 
L 275.471261 62.730315 
L 275.323975 62.653181 
L 275.250332 62.504323 
L 275.213511 62.508595 
L 274.734832 62.501087 
L 274.734832 62.469496 
L 274.661189 62.414826 
L 274.624368 62.419098 
L 274.329796 62.358298 
L 274.219332 62.2125 
L 273.924761 62.182992 
L 273.924761 62.151189 
L 273.814296 61.909085 
L 273.114689 61.893569 
L 273.114689 61.861561 
L 273.004225 61.874255 
L 272.783296 61.803484 
L 272.783296 61.7714 
L 272.672832 61.784079 
L 272.083689 61.755343 
L 272.010046 61.699386 
L 271.973225 61.703617 
L 271.641832 61.644903 
L 271.641832 61.612601 
L 271.531368 61.625285 
L 271.163153 61.570516 
L 271.089511 61.4493 
L 271.052689 61.453516 
L 270.758118 61.422314 
L 270.758118 61.389811 
L 270.647653 61.174575 
L 270.31626 61.114385 
L 270.242618 60.926579 
L 270.205796 60.930742 
L 269.837582 60.874075 
L 269.837582 60.841265 
L 269.727118 60.853748 
L 269.653475 60.862076 
L 269.653475 60.763521 
L 269.54301 60.644382 
L 269.322082 60.57035 
L 269.248439 60.413561 
L 269.211618 60.417675 
L 269.137975 60.359786 
L 269.137975 60.326711 
L 269.101153 60.264625 
L 269.02751 60.272819 
L 268.76976 60.202057 
L 268.76976 60.168876 
L 268.659296 60.18115 
L 268.585653 60.189339 
L 268.585653 60.089666 
L 268.51201 59.964757 
L 268.475189 59.968824 
L 268.364725 59.914398 
L 268.364725 59.881065 
L 268.327903 59.785048 
L 268.25426 59.793142 
L 267.886046 59.76681 
L 267.886046 59.733356 
L 267.886046 59.666416 
L 267.775582 59.678536 
L 267.48101 59.677375 
L 267.48101 59.610272 
L 267.48101 59.442331 
L 267.370546 59.454382 
L 267.039153 59.389548 
L 267.039153 59.355841 
L 266.928689 59.367882 
L 266.744582 59.320457 
L 266.744582 59.286682 
L 266.634118 59.231101 
L 266.339546 59.195433 
L 266.339546 59.161554 
L 266.229082 59.003928 
L 266.19226 59.007907 
L 266.19226 58.90599 
L 266.081796 58.815837 
L 265.345367 58.792755 
L 265.234903 58.667869 
L 264.90351 58.60064 
L 264.90351 58.532029 
L 264.793046 58.543849 
L 264.424832 58.480142 
L 264.351189 58.2813 
L 264.314367 58.285214 
L 263.909332 58.224662 
L 263.87251 58.159388 
L 263.798867 58.167201 
L 263.35701 58.110109 
L 263.35701 58.075397 
L 263.246546 58.08711 
L 262.804689 58.029653 
L 262.731046 57.932913 
L 262.694225 57.936808 
L 262.105082 57.894387 
L 262.105082 57.859394 
L 261.994617 57.871086 
L 261.55276 57.812699 
L 261.55276 57.777586 
L 261.442296 57.789274 
L 260.742689 57.793085 
L 260.742689 57.757826 
L 260.742689 57.722557 
L 260.632224 57.734268 
L 260.26401 57.667311 
L 260.190367 57.604325 
L 260.153546 57.608221 
L 259.895796 57.529125 
L 259.895796 57.458132 
L 259.785332 57.469777 
L 259.453939 57.469205 
L 259.453939 57.398019 
L 259.453939 57.362408 
L 259.343474 57.374037 
L 259.048903 57.298029 
L 258.938439 57.202427 
L 258.20201 57.208145 
L 258.20201 57.172251 
L 258.20201 57.100429 
L 258.091546 57.112014 
L 257.796974 57.034968 
L 257.796974 56.998945 
L 257.68651 57.010509 
L 257.465582 56.961494 
L 257.465582 56.925388 
L 257.355117 56.756148 
L 256.91326 56.729614 
L 256.91326 56.693332 
L 256.802796 56.595843 
L 256.618689 56.505761 
L 256.545046 56.440514 
L 256.508224 56.444308 
L 255.955903 56.391743 
L 255.88226 56.289565 
L 255.845439 56.29335 
L 255.477224 56.221196 
L 255.477224 56.184483 
L 255.36676 56.195815 
L 254.777617 56.145919 
L 254.703974 56.042813 
L 254.667153 56.046583 
L 254.262117 55.977145 
L 254.151653 55.840227 
L 253.82026 55.762564 
L 253.709796 55.662182 
L 253.378403 55.621227 
L 253.341581 55.550319 
L 253.267939 55.557762 
L 252.678796 55.580042 
L 252.678796 55.542588 
L 252.678796 55.467642 
L 252.605153 55.475084 
L 252.421046 55.456179 
L 252.421046 55.418633 
L 252.384224 55.30962 
L 252.310581 55.317025 
L 252.163296 55.294212 
L 252.163296 55.256562 
L 252.052831 55.154578 
L 251.537331 55.130655 
L 251.537331 55.092828 
L 251.426867 55.103885 
L 251.24276 55.046551 
L 251.205938 54.936437 
L 251.132296 54.943771 
L 250.764081 54.904444 
L 250.653617 54.839297 
L 250.322224 54.834143 
L 250.322224 54.795977 
L 250.322224 54.719605 
L 250.21176 54.730556 
L 249.769903 54.697868 
L 249.659438 54.555399 
L 249.070296 54.536728 
L 248.959831 54.432016 
L 248.444331 54.405607 
L 248.444331 54.366918 
L 248.333867 54.377809 
L 247.855188 54.347517 
L 247.855188 54.30869 
L 247.744724 54.319585 
L 247.302867 54.285401 
L 247.302867 54.24644 
L 247.192403 54.257337 
L 246.60326 54.23745 
L 246.60326 54.198329 
L 246.492795 54.209243 
L 246.271867 54.152708 
L 246.198224 54.081502 
L 246.161403 54.085128 
L 246.08776 54.013811 
L 246.08776 53.974504 
L 245.977295 53.98534 
L 245.609081 53.982139 
L 245.609081 53.942722 
L 245.609081 53.90329 
L 245.498617 53.914119 
L 245.31451 53.892695 
L 245.31451 53.853184 
L 245.204045 53.745331 
L 244.79901 53.705567 
L 244.79901 53.546739 
L 244.688545 53.55744 
L 244.430795 53.502825 
L 244.430795 53.462989 
L 244.320331 53.47367 
L 244.173045 53.448033 
L 244.173045 53.408123 
L 244.173045 53.328259 
L 244.062581 53.338888 
L 243.878474 53.316624 
L 243.878474 53.276604 
L 243.878474 53.236569 
L 243.76801 53.24717 
L 243.362974 53.205841 
L 243.362974 53.165671 
L 243.25251 53.176266 
L 243.068403 53.113459 
L 243.068403 52.992614 
L 242.957938 53.00314 
L 242.847474 52.932961 
L 242.847474 52.852187 
L 242.73701 52.862655 
L 242.368795 52.857136 
L 242.368795 52.816624 
L 242.295153 52.742514 
L 242.258331 52.745995 
L 241.779652 52.710012 
L 241.669188 52.598282 
L 241.374617 52.54442 
L 241.300974 52.469621 
L 241.264152 52.473075 
L 241.19051 52.439078 
L 241.19051 52.398155 
L 241.19051 52.316265 
L 241.080045 52.326558 
L 240.785474 52.271958 
L 240.785474 52.230884 
L 240.67501 52.241156 
L 240.233152 52.199956 
L 240.233152 52.158733 
L 240.122688 52.168999 
L 239.680831 52.168833 
L 239.680831 52.127474 
L 239.570367 52.013523 
L 239.496724 52.020341 
L 239.496724 51.937415 
L 239.38626 51.82304 
L 238.907581 51.783763 
L 238.87076 51.662045 
L 238.797117 51.668768 
L 238.61301 51.602022 
L 238.502545 51.444664 
L 238.023867 51.404065 
L 238.023867 51.362043 
L 237.913402 51.372023 
L 237.397902 51.334404 
L 237.397902 51.292211 
L 237.287438 51.302189 
L 236.551009 51.284223 
L 236.551009 51.199387 
L 236.440545 51.209363 
L 235.961867 51.210162 
L 235.961867 51.167585 
L 235.851402 50.921641 
L 235.151795 50.898605 
L 235.041331 50.779717 
L 234.820402 50.713377 
L 234.820402 50.670338 
L 234.709938 50.68013 
L 234.378545 50.623264 
L 234.378545 50.580084 
L 234.268081 50.589852 
L 234.047152 50.522875 
L 234.047152 50.479576 
L 233.936688 50.489309 
L 233.421188 50.491431 
L 233.421188 50.447967 
L 233.384367 50.320699 
L 233.310724 50.327154 
L 232.721581 50.335293 
L 232.721581 50.291597 
L 232.647938 50.166826 
L 232.611116 50.170038 
L 232.132438 50.124117 
L 232.058795 49.998672 
L 232.021974 50.001865 
L 231.580116 49.952067 
L 231.580116 49.907937 
L 231.469652 49.917496 
L 230.254545 49.934499 
L 230.144081 49.810599 
L 229.518116 49.775666 
L 229.518116 49.730941 
L 229.407652 49.740516 
L 228.671224 49.714759 
L 228.560759 49.634367 
L 228.155724 49.579269 
L 228.155724 49.488936 
L 228.045259 49.498452 
L 227.861152 49.423797 
L 227.750688 49.34263 
L 227.235188 49.295885 
L 227.235188 49.250371 
L 227.124723 49.259804 
L 226.093723 49.256787 
L 226.056902 49.122363 
L 225.983259 49.128646 
L 225.430938 49.083816 
L 225.430938 49.037731 
L 225.320473 49.047144 
L 224.878616 48.992421 
L 224.878616 48.946147 
L 224.768152 48.955539 
L 224.142188 48.916017 
L 224.105366 48.826102 
L 224.031723 48.832345 
L 223.332116 48.798401 
L 223.258473 48.664205 
L 223.221652 48.66731 
L 222.816616 48.607601 
L 222.816616 48.560596 
L 222.706152 48.56988 
L 222.374759 48.503515 
L 222.374759 48.456341 
L 222.264295 48.465589 
L 222.117009 48.383404 
L 222.080188 48.197135 
L 222.006545 48.203209 
L 221.306938 48.165987 
L 221.196473 47.888941 
L 220.901902 47.817207 
L 220.901902 47.769324 
L 220.791438 47.77825 
L 220.165473 47.732835 
L 220.165473 47.684701 
L 220.055009 47.693616 
L 219.429045 47.647638 
L 219.429045 47.550844 
L 219.31858 47.55972 
L 218.54533 47.524823 
L 218.434866 47.387474 
L 218.250759 47.304491 
L 218.250759 47.255606 
L 218.140295 47.264368 
L 217.330223 47.230637 
L 217.25658 46.990209 
L 217.219759 46.993092 
L 216.667437 46.937506 
L 216.630616 46.841296 
L 216.556973 46.847026 
L 216.22558 46.773468 
L 216.22558 46.723735 
L 216.115116 46.732281 
L 215.562795 46.675277 
L 215.489152 46.5309 
L 215.45233 46.533721 
L 215.120937 46.508991 
L 215.120937 46.458796 
L 215.084116 46.361132 
L 215.010473 46.366719 
L 214.67908 46.291126 
L 214.67908 46.240695 
L 214.568616 46.249024 
L 213.243044 46.248078 
L 213.243044 46.197168 
L 213.13258 46.205545 
L 211.696544 46.212679 
L 211.696544 46.161247 
L 211.58608 46.169685 
L 210.849652 46.12279 
L 210.776009 45.973029 
L 210.739187 45.975817 
L 210.665544 45.981397 
L 210.665544 45.877614 
L 210.665544 45.825687 
L 210.55508 45.833966 
L 210.150044 45.760181 
L 210.150044 45.708028 
L 210.03958 45.716258 
L 209.745009 45.633635 
L 209.745009 45.528914 
L 209.634544 45.537051 
L 208.861294 45.488954 
L 208.861294 45.436236 
L 208.75083 45.444359 
L 207.683009 45.417211 
L 207.683009 45.310866 
L 207.572544 45.318969 
L 206.652009 45.279836 
L 206.652009 45.226247 
L 206.541544 45.23435 
L 206.026044 45.164657 
L 206.026044 45.110791 
L 205.91558 45.118851 
L 204.663651 45.10229 
L 204.663651 45.047901 
L 204.553187 45.055992 
L 203.816758 45.000808 
L 203.816758 44.946059 
L 203.706294 44.954127 
L 203.559008 44.910042 
L 203.374901 44.813552 
L 203.374901 44.75855 
L 203.264437 44.766515 
L 202.528008 44.709248 
L 202.528008 44.653878 
L 202.417544 44.661817 
L 201.644294 44.606284 
L 201.644294 44.550528 
L 201.53383 44.558444 
L 201.349723 44.571664 
L 201.349723 44.515778 
L 201.349723 44.459865 
L 201.239258 44.467735 
L 200.50283 44.464255 
L 200.50283 44.407989 
L 200.392366 44.415868 
L 198.919508 44.465182 
L 198.919508 44.408293 
L 198.809044 44.416261 
L 197.92533 44.423146 
L 197.92533 44.365837 
L 197.814865 44.37383 
L 196.89433 44.383185 
L 196.857508 44.2125 
L 196.783865 44.217795 
L 196.710223 44.165191 
L 196.599758 43.882947 
L 196.084258 43.860766 
L 196.084258 43.802421 
L 195.973794 43.810113 
L 194.169544 43.878301 
L 194.169544 43.759981 
L 194.05908 43.767749 
L 193.28583 43.762902 
L 193.175365 43.591743 
L 192.991258 43.544788 
L 192.991258 43.484962 
L 192.880794 43.492593 
L 192.549401 43.455522 
L 192.475758 43.340388 
L 192.438937 43.342904 
L 192.181187 43.300276 
L 192.181187 43.239967 
L 192.070722 43.24746 
L 191.592044 43.219486 
L 191.555222 43.1007 
L 191.48158 43.105648 
L 191.22383 43.062177 
L 191.150187 42.945304 
L 191.113365 42.947745 
L 190.597865 42.920876 
L 190.597865 42.859658 
L 190.487401 42.866951 
L 190.229651 42.822609 
L 190.229651 42.761172 
L 190.119187 42.76841 
L 189.309115 42.759983 
L 189.235472 42.57896 
L 189.198651 42.581343 
L 188.830437 42.543042 
L 188.793615 42.420889 
L 188.719972 42.425591 
L 188.499044 42.439727 
L 188.499044 42.377281 
L 188.499044 42.314802 
L 188.388579 42.32179 
L 188.130829 42.275466 
L 188.130829 42.212758 
L 188.020365 42.219686 
L 186.768437 42.235648 
L 186.768437 42.172265 
L 186.657972 42.179234 
L 185.774258 42.171528 
L 185.700615 42.048297 
L 185.663794 42.050605 
L 184.964186 42.030352 
L 184.964186 41.965969 
L 184.853722 41.972871 
L 184.706436 41.917552 
L 184.706436 41.852978 
L 184.595972 41.859803 
L 184.190936 41.820074 
L 184.190936 41.690261 
L 184.080472 41.696982 
L 182.718079 41.715152 
L 182.718079 41.64945 
L 182.607615 41.656217 
L 182.313044 41.608382 
L 182.313044 41.476398 
L 182.202579 41.483045 
L 182.092115 41.423548 
L 182.092115 41.357355 
L 181.981651 41.363916 
L 181.024294 41.354488 
L 181.024294 41.28769 
L 180.913829 41.294249 
L 180.471972 41.253486 
L 180.471972 41.186333 
L 180.361508 41.192837 
L 179.698722 41.164514 
L 179.698722 41.029227 
L 179.588258 41.03564 
L 178.925472 41.006252 
L 178.925472 40.86993 
L 178.815008 40.876249 
L 178.704543 40.814243 
L 178.704543 40.745867 
L 178.594079 40.752092 
L 177.673543 40.735433 
L 177.599901 40.601488 
L 177.563079 40.60354 
L 176.605722 40.587646 
L 176.568901 40.380424 
L 176.495258 40.384436 
L 176.053401 40.338479 
L 176.053401 40.268309 
L 175.942936 40.274257 
L 175.869293 40.278228 
L 175.869293 40.207914 
L 175.869293 40.137558 
L 175.758829 40.143401 
L 174.985579 40.113705 
L 174.985579 40.042769 
L 174.875115 40.048572 
L 173.844115 40.031615 
L 173.844115 39.959942 
L 173.73365 39.965728 
L 172.739472 39.945919 
L 172.70265 39.802965 
L 172.629008 39.806765 
L 171.892579 39.772024 
L 171.818936 39.629616 
L 171.782115 39.631478 
L 171.008865 39.59717 
L 170.935222 39.453341 
L 170.8984 39.455162 
L 170.235615 39.413874 
L 170.235615 39.339548 
L 170.12515 39.344946 
L 168.910043 39.329799 
L 168.910043 39.254547 
L 168.799579 39.259929 
L 168.57865 39.195211 
L 168.541829 39.045774 
L 168.468186 39.049243 
L 168.136793 38.988962 
L 168.136793 38.912972 
L 168.026329 38.918069 
L 167.142615 38.882516 
L 167.142615 38.805776 
L 167.03215 38.810817 
L 165.412007 38.807947 
L 165.301543 38.578678 
L 163.718222 38.570603 
L 163.718222 38.491214 
L 163.607757 38.496106 
L 162.613579 38.460348 
L 162.613579 38.380061 
L 162.503114 38.384893 
L 161.913972 38.32998 
L 161.913972 38.249073 
L 161.803507 38.253806 
L 160.993436 38.207165 
L 160.993436 38.125464 
L 160.882971 38.130113 
L 160.625221 38.058963 
L 160.625221 37.976872 
L 160.514757 37.981386 
L 160.477936 37.982893 
L 160.477936 37.900633 
L 160.477936 37.818316 
L 160.367471 37.822675 
L 158.195007 37.82612 
L 158.195007 37.741911 
L 158.084543 37.746287 
L 155.580686 37.76163 
L 155.580686 37.675162 
L 155.470221 37.679581 
L 154.181471 37.64414 
L 154.181471 37.556352 
L 154.071007 37.560705 
L 153.813257 37.5709 
L 153.813257 37.482727 
L 153.739614 37.308916 
L 153.702793 37.310282 
L 152.745436 37.256846 
L 152.745436 37.167465 
L 152.634971 37.171452 
L 152.193114 37.097542 
L 152.193114 37.007526 
L 152.08265 37.011357 
L 149.173757 37.022545 
L 149.173757 36.929553 
L 149.063293 36.933418 
L 147.95865 36.878314 
L 147.95865 36.783978 
L 147.848185 36.787724 
L 144.6079 36.803824 
L 144.6079 36.705857 
L 144.497435 36.70965 
L 140.410257 36.754081 
L 140.410257 36.651197 
L 140.299792 36.655109 
L 139.342435 36.585183 
L 139.342435 36.480832 
L 139.231971 36.484573 
L 137.206792 36.447828 
L 137.206792 36.340608 
L 137.096328 36.344261 
L 136.544006 36.254497 
L 136.544006 36.146219 
L 136.433542 36.149642 
L 134.776578 36.09136 
L 134.776578 35.9805 
L 134.666114 35.983771 
L 134.592471 35.985957 
L 134.592471 35.87474 
L 134.482006 35.877872 
L 132.383185 35.939102 
L 132.346363 35.711025 
L 132.272721 35.713019 
L 131.315363 35.73929 
L 131.315363 35.622991 
L 131.204899 35.625897 
L 130.873506 35.634666 
L 130.873506 35.517578 
L 130.763042 35.520348 
L 126.786328 35.625776 
L 126.786328 35.501912 
L 126.675863 35.504819 
L 126.60222 35.506761 
L 126.60222 35.382451 
L 126.491756 35.38518 
L 125.644863 35.40639 
L 125.644863 35.280265 
L 125.534399 35.282871 
L 121.631327 35.380567 
L 121.631327 35.246694 
L 121.520863 35.249405 
L 118.133292 35.337176 
L 118.133292 35.195708 
L 118.022827 35.198482 
L 117.433684 35.213443 
L 117.433684 35.070216 
L 117.32322 35.072799 
L 117.212756 35.07539 
L 117.212756 34.93148 
L 117.102292 34.933824 
L 116.844542 34.939325 
L 116.844542 34.79438 
L 116.734077 34.79649 
L 113.420149 34.863573 
L 113.420149 34.555989 
L 113.309684 34.55777 
L 110.87947 34.598767 
L 110.87947 34.437597 
L 110.769006 34.439224 
L 104.067506 34.551859 
L 104.067506 34.367751 
L 103.957041 34.369449 
L 94.972612 34.539686 
L 94.972612 34.312534 
L 94.862148 34.314474 
L 91.658684 34.375936 
L 91.585041 33.878676 
L 91.548219 33.878935 
L 85.656791 33.928649 
L 85.656791 33.6285 
L 85.546326 33.6285 
L 56.01554 33.6285 
L 56.01554 33.6285 
" clip-path="url(#p3b66cc959f)" style="fill: none; stroke: #ff8c00; stroke-width: 1.2; stroke-linecap: square"/>
   </g>
   <g id="line2d_16">
    <path d="M 39.782813 142.243792 
L 396.902812 142.243792 
" clip-path="url(#p3b66cc959f)" style="fill: none; stroke-dasharray: 5.55,2.4; stroke-dashoffset: 0; stroke: #ff0000; stroke-width: 1.5"/>
   </g>
   <g id="patch_3">
    <path d="M 39.782813 287.6445 
L 39.782813 21.5325 
" style="fill: none; stroke: #000000; stroke-width: 0.8; stroke-linejoin: miter; stroke-linecap: square"/>
   </g>
   <g id="patch_4">
    <path d="M 396.902812 287.6445 
L 396.902812 21.5325 
" style="fill: none; stroke: #000000; stroke-width: 0.8; stroke-linejoin: miter; stroke-linecap: square"/>
   </g>
   <g id="patch_5">
    <path d="M 39.782813 287.6445 
L 396.902812 287.6445 
" style="fill: none; stroke: #000000; stroke-width: 0.8; stroke-linejoin: miter; stroke-linecap: square"/>
   </g>
   <g id="patch_6">
    <path d="M 39.782813 21.5325 
L 396.902812 21.5325 
" style="fill: none; stroke: #000000; stroke-width: 0.8; stroke-linejoin: miter; stroke-linecap: square"/>
   </g>
   <g id="text_15">
    <!-- Breast Cancer Multimodal Classifier PRC Curve -->
    <g transform="translate(101.19 15.5325) scale(0.12 -0.12)">
     <defs>
      <path id="TimesNewRomanPSMT-42" d="M 2956 2163 
Q 3397 2069 3616 1863 
Q 3919 1575 3919 1159 
Q 3919 844 3719 555 
Q 3519 266 3170 133 
Q 2822 0 2106 0 
L 106 0 
L 106 116 
L 266 116 
Q 531 116 647 284 
Q 719 394 719 750 
L 719 3488 
Q 719 3881 628 3984 
Q 506 4122 266 4122 
L 106 4122 
L 106 4238 
L 1938 4238 
Q 2450 4238 2759 4163 
Q 3228 4050 3475 3764 
Q 3722 3478 3722 3106 
Q 3722 2788 3528 2536 
Q 3334 2284 2956 2163 
z
M 1319 2331 
Q 1434 2309 1582 2298 
Q 1731 2288 1909 2288 
Q 2366 2288 2595 2386 
Q 2825 2484 2947 2687 
Q 3069 2891 3069 3131 
Q 3069 3503 2766 3765 
Q 2463 4028 1881 4028 
Q 1569 4028 1319 3959 
L 1319 2331 
z
M 1319 306 
Q 1681 222 2034 222 
Q 2600 222 2897 476 
Q 3194 731 3194 1106 
Q 3194 1353 3059 1581 
Q 2925 1809 2622 1940 
Q 2319 2072 1872 2072 
Q 1678 2072 1540 2065 
Q 1403 2059 1319 2044 
L 1319 306 
z
" transform="scale(0.015625)"/>
      <path id="TimesNewRomanPSMT-74" d="M 1031 3803 
L 1031 2863 
L 1700 2863 
L 1700 2644 
L 1031 2644 
L 1031 788 
Q 1031 509 1111 412 
Q 1191 316 1316 316 
Q 1419 316 1516 380 
Q 1613 444 1666 569 
L 1788 569 
Q 1678 263 1478 108 
Q 1278 -47 1066 -47 
Q 922 -47 784 33 
Q 647 113 581 261 
Q 516 409 516 719 
L 516 2644 
L 63 2644 
L 63 2747 
Q 234 2816 414 2980 
Q 594 3144 734 3369 
Q 806 3488 934 3803 
L 1031 3803 
z
" transform="scale(0.015625)"/>
      <path id="TimesNewRomanPSMT-20" transform="scale(0.015625)"/>
      <path id="TimesNewRomanPSMT-43" d="M 3853 4334 
L 3950 2894 
L 3853 2894 
Q 3659 3541 3300 3825 
Q 2941 4109 2438 4109 
Q 2016 4109 1675 3895 
Q 1334 3681 1139 3212 
Q 944 2744 944 2047 
Q 944 1472 1128 1050 
Q 1313 628 1683 403 
Q 2053 178 2528 178 
Q 2941 178 3256 354 
Q 3572 531 3950 1056 
L 4047 994 
Q 3728 428 3303 165 
Q 2878 -97 2294 -97 
Q 1241 -97 663 684 
Q 231 1266 231 2053 
Q 231 2688 515 3219 
Q 800 3750 1298 4042 
Q 1797 4334 2388 4334 
Q 2847 4334 3294 4109 
Q 3425 4041 3481 4041 
Q 3566 4041 3628 4100 
Q 3709 4184 3744 4334 
L 3853 4334 
z
" transform="scale(0.015625)"/>
      <path id="TimesNewRomanPSMT-4d" d="M 2619 0 
L 981 3566 
L 981 734 
Q 981 344 1066 247 
Q 1181 116 1431 116 
L 1581 116 
L 1581 0 
L 106 0 
L 106 116 
L 256 116 
Q 525 116 638 278 
Q 706 378 706 734 
L 706 3503 
Q 706 3784 644 3909 
Q 600 4000 483 4061 
Q 366 4122 106 4122 
L 106 4238 
L 1306 4238 
L 2844 922 
L 4356 4238 
L 5556 4238 
L 5556 4122 
L 5409 4122 
Q 5138 4122 5025 3959 
Q 4956 3859 4956 3503 
L 4956 734 
Q 4956 344 5044 247 
Q 5159 116 5409 116 
L 5556 116 
L 5556 0 
L 3756 0 
L 3756 116 
L 3906 116 
Q 4178 116 4288 278 
Q 4356 378 4356 734 
L 4356 3566 
L 2722 0 
L 2619 0 
z
" transform="scale(0.015625)"/>
      <path id="TimesNewRomanPSMT-75" d="M 2709 2863 
L 2709 1128 
Q 2709 631 2732 520 
Q 2756 409 2807 365 
Q 2859 322 2928 322 
Q 3025 322 3147 375 
L 3191 266 
L 2334 -88 
L 2194 -88 
L 2194 519 
Q 1825 119 1631 15 
Q 1438 -88 1222 -88 
Q 981 -88 804 51 
Q 628 191 559 409 
Q 491 628 491 1028 
L 491 2306 
Q 491 2509 447 2587 
Q 403 2666 317 2708 
Q 231 2750 6 2747 
L 6 2863 
L 1009 2863 
L 1009 947 
Q 1009 547 1148 422 
Q 1288 297 1484 297 
Q 1619 297 1789 381 
Q 1959 466 2194 703 
L 2194 2325 
Q 2194 2569 2105 2655 
Q 2016 2741 1734 2747 
L 1734 2863 
L 2709 2863 
z
" transform="scale(0.015625)"/>
      <path id="TimesNewRomanPSMT-6d" d="M 1050 2338 
Q 1363 2650 1419 2697 
Q 1559 2816 1721 2881 
Q 1884 2947 2044 2947 
Q 2313 2947 2506 2790 
Q 2700 2634 2766 2338 
Q 3088 2713 3309 2830 
Q 3531 2947 3766 2947 
Q 3994 2947 4170 2830 
Q 4347 2713 4450 2447 
Q 4519 2266 4519 1878 
L 4519 647 
Q 4519 378 4559 278 
Q 4591 209 4675 161 
Q 4759 113 4950 113 
L 4950 0 
L 3538 0 
L 3538 113 
L 3597 113 
Q 3781 113 3884 184 
Q 3956 234 3988 344 
Q 4000 397 4000 647 
L 4000 1878 
Q 4000 2228 3916 2372 
Q 3794 2572 3525 2572 
Q 3359 2572 3192 2489 
Q 3025 2406 2788 2181 
L 2781 2147 
L 2788 2013 
L 2788 647 
Q 2788 353 2820 281 
Q 2853 209 2943 161 
Q 3034 113 3253 113 
L 3253 0 
L 1806 0 
L 1806 113 
Q 2044 113 2133 169 
Q 2222 225 2256 338 
Q 2272 391 2272 647 
L 2272 1878 
Q 2272 2228 2169 2381 
Q 2031 2581 1784 2581 
Q 1616 2581 1450 2491 
Q 1191 2353 1050 2181 
L 1050 647 
Q 1050 366 1089 281 
Q 1128 197 1204 155 
Q 1281 113 1516 113 
L 1516 0 
L 100 0 
L 100 113 
Q 297 113 375 155 
Q 453 197 493 289 
Q 534 381 534 647 
L 534 1741 
Q 534 2213 506 2350 
Q 484 2453 437 2492 
Q 391 2531 309 2531 
Q 222 2531 100 2484 
L 53 2597 
L 916 2947 
L 1050 2947 
L 1050 2338 
z
" transform="scale(0.015625)"/>
      <path id="TimesNewRomanPSMT-64" d="M 2222 322 
Q 2013 103 1813 7 
Q 1613 -88 1381 -88 
Q 913 -88 563 304 
Q 213 697 213 1313 
Q 213 1928 600 2439 
Q 988 2950 1597 2950 
Q 1975 2950 2222 2709 
L 2222 3238 
Q 2222 3728 2198 3840 
Q 2175 3953 2125 3993 
Q 2075 4034 2000 4034 
Q 1919 4034 1784 3984 
L 1744 4094 
L 2597 4444 
L 2738 4444 
L 2738 1134 
Q 2738 631 2761 520 
Q 2784 409 2836 365 
Q 2888 322 2956 322 
Q 3041 322 3181 375 
L 3216 266 
L 2366 -88 
L 2222 -88 
L 2222 322 
z
M 2222 541 
L 2222 2016 
Q 2203 2228 2109 2403 
Q 2016 2578 1861 2667 
Q 1706 2756 1559 2756 
Q 1284 2756 1069 2509 
Q 784 2184 784 1559 
Q 784 928 1059 592 
Q 1334 256 1672 256 
Q 1956 256 2222 541 
z
" transform="scale(0.015625)"/>
      <path id="TimesNewRomanPSMT-66" d="M 1319 2638 
L 1319 756 
Q 1319 356 1406 250 
Q 1522 113 1716 113 
L 1975 113 
L 1975 0 
L 266 0 
L 266 113 
L 394 113 
Q 519 113 622 175 
Q 725 238 764 344 
Q 803 450 803 756 
L 803 2638 
L 247 2638 
L 247 2863 
L 803 2863 
L 803 3050 
Q 803 3478 940 3775 
Q 1078 4072 1361 4255 
Q 1644 4438 1997 4438 
Q 2325 4438 2600 4225 
Q 2781 4084 2781 3909 
Q 2781 3816 2700 3733 
Q 2619 3650 2525 3650 
Q 2453 3650 2373 3701 
Q 2294 3753 2178 3923 
Q 2063 4094 1966 4153 
Q 1869 4213 1750 4213 
Q 1606 4213 1506 4136 
Q 1406 4059 1362 3898 
Q 1319 3738 1319 3069 
L 1319 2863 
L 2056 2863 
L 2056 2638 
L 1319 2638 
z
" transform="scale(0.015625)"/>
      <path id="TimesNewRomanPSMT-76" d="M 53 2863 
L 1400 2863 
L 1400 2747 
L 1313 2747 
Q 1191 2747 1127 2687 
Q 1063 2628 1063 2528 
Q 1063 2419 1128 2269 
L 1794 688 
L 2463 2328 
Q 2534 2503 2534 2594 
Q 2534 2638 2509 2666 
Q 2475 2713 2422 2730 
Q 2369 2747 2206 2747 
L 2206 2863 
L 3141 2863 
L 3141 2747 
Q 2978 2734 2916 2681 
Q 2806 2588 2719 2369 
L 1703 -88 
L 1575 -88 
L 553 2328 
Q 484 2497 421 2570 
Q 359 2644 263 2694 
Q 209 2722 53 2747 
L 53 2863 
z
" transform="scale(0.015625)"/>
     </defs>
     <use xlink:href="#TimesNewRomanPSMT-42"/>
     <use xlink:href="#TimesNewRomanPSMT-72" x="66.699219"/>
     <use xlink:href="#TimesNewRomanPSMT-65" x="100"/>
     <use xlink:href="#TimesNewRomanPSMT-61" x="144.384766"/>
     <use xlink:href="#TimesNewRomanPSMT-73" x="188.769531"/>
     <use xlink:href="#TimesNewRomanPSMT-74" x="227.685547"/>
     <use xlink:href="#TimesNewRomanPSMT-20" x="255.46875"/>
     <use xlink:href="#TimesNewRomanPSMT-43" x="280.46875"/>
     <use xlink:href="#TimesNewRomanPSMT-61" x="347.167969"/>
     <use xlink:href="#TimesNewRomanPSMT-6e" x="391.552734"/>
     <use xlink:href="#TimesNewRomanPSMT-63" x="441.552734"/>
     <use xlink:href="#TimesNewRomanPSMT-65" x="485.9375"/>
     <use xlink:href="#TimesNewRomanPSMT-72" x="530.322266"/>
     <use xlink:href="#TimesNewRomanPSMT-20" x="563.623047"/>
     <use xlink:href="#TimesNewRomanPSMT-4d" x="588.623047"/>
     <use xlink:href="#TimesNewRomanPSMT-75" x="677.539062"/>
     <use xlink:href="#TimesNewRomanPSMT-6c" x="727.539062"/>
     <use xlink:href="#TimesNewRomanPSMT-74" x="755.322266"/>
     <use xlink:href="#TimesNewRomanPSMT-69" x="783.105469"/>
     <use xlink:href="#TimesNewRomanPSMT-6d" x="810.888672"/>
     <use xlink:href="#TimesNewRomanPSMT-6f" x="888.671875"/>
     <use xlink:href="#TimesNewRomanPSMT-64" x="938.671875"/>
     <use xlink:href="#TimesNewRomanPSMT-61" x="988.671875"/>
     <use xlink:href="#TimesNewRomanPSMT-6c" x="1033.056641"/>
     <use xlink:href="#TimesNewRomanPSMT-20" x="1060.839844"/>
     <use xlink:href="#TimesNewRomanPSMT-43" x="1085.839844"/>
     <use xlink:href="#TimesNewRomanPSMT-6c" x="1152.539062"/>
     <use xlink:href="#TimesNewRomanPSMT-61" x="1180.322266"/>
     <use xlink:href="#TimesNewRomanPSMT-73" x="1224.707031"/>
     <use xlink:href="#TimesNewRomanPSMT-73" x="1263.623047"/>
     <use xlink:href="#TimesNewRomanPSMT-69" x="1302.539062"/>
     <use xlink:href="#TimesNewRomanPSMT-66" x="1330.322266"/>
     <use xlink:href="#TimesNewRomanPSMT-69" x="1363.623047"/>
     <use xlink:href="#TimesNewRomanPSMT-65" x="1391.40625"/>
     <use xlink:href="#TimesNewRomanPSMT-72" x="1435.791016"/>
     <use xlink:href="#TimesNewRomanPSMT-20" x="1469.091797"/>
     <use xlink:href="#TimesNewRomanPSMT-50" x="1494.091797"/>
     <use xlink:href="#TimesNewRomanPSMT-52" x="1549.707031"/>
     <use xlink:href="#TimesNewRomanPSMT-43" x="1616.40625"/>
     <use xlink:href="#TimesNewRomanPSMT-20" x="1683.105469"/>
     <use xlink:href="#TimesNewRomanPSMT-43" x="1708.105469"/>
     <use xlink:href="#TimesNewRomanPSMT-75" x="1774.804688"/>
     <use xlink:href="#TimesNewRomanPSMT-72" x="1824.804688"/>
     <use xlink:href="#TimesNewRomanPSMT-76" x="1858.105469"/>
     <use xlink:href="#TimesNewRomanPSMT-65" x="1908.105469"/>
    </g>
   </g>
   <g id="legend_1">
    <g id="patch_7">
     <path d="M 169.218437 282.6445 
L 389.902812 282.6445 
Q 391.902812 282.6445 391.902812 280.6445 
L 391.902812 225.032 
Q 391.902812 223.032 389.902812 223.032 
L 169.218437 223.032 
Q 167.218437 223.032 167.218437 225.032 
L 167.218437 280.6445 
Q 167.218437 282.6445 169.218437 282.6445 
z
" style="fill: #ffffff; opacity: 0.8; stroke: #cccccc; stroke-linejoin: miter"/>
    </g>
    <g id="line2d_17">
     <path d="M 171.218437 230.532 
L 181.218437 230.532 
L 191.218437 230.532 
" style="fill: none; stroke: #00008b; stroke-width: 1.2; stroke-linecap: square"/>
    </g>
    <g id="text_16">
     <!-- PRC curve of ImgwithKg (AUPRC = 0.9997) -->
     <g transform="translate(199.218437 234.032) scale(0.1 -0.1)">
      <defs>
       <path id="TimesNewRomanPSMT-49" d="M 1975 116 
L 1975 0 
L 159 0 
L 159 116 
L 309 116 
Q 572 116 691 269 
Q 766 369 766 750 
L 766 3488 
Q 766 3809 725 3913 
Q 694 3991 597 4047 
Q 459 4122 309 4122 
L 159 4122 
L 159 4238 
L 1975 4238 
L 1975 4122 
L 1822 4122 
Q 1563 4122 1444 3969 
Q 1366 3869 1366 3488 
L 1366 750 
Q 1366 428 1406 325 
Q 1438 247 1538 191 
Q 1672 116 1822 116 
L 1975 116 
z
" transform="scale(0.015625)"/>
       <path id="TimesNewRomanPSMT-67" d="M 966 1044 
Q 703 1172 562 1401 
Q 422 1631 422 1909 
Q 422 2334 742 2640 
Q 1063 2947 1563 2947 
Q 1972 2947 2272 2747 
L 2878 2747 
Q 3013 2747 3034 2739 
Q 3056 2731 3066 2713 
Q 3084 2684 3084 2613 
Q 3084 2531 3069 2500 
Q 3059 2484 3036 2475 
Q 3013 2466 2878 2466 
L 2506 2466 
Q 2681 2241 2681 1891 
Q 2681 1491 2375 1206 
Q 2069 922 1553 922 
Q 1341 922 1119 984 
Q 981 866 932 777 
Q 884 688 884 625 
Q 884 572 936 522 
Q 988 472 1138 450 
Q 1225 438 1575 428 
Q 2219 413 2409 384 
Q 2700 344 2873 169 
Q 3047 -6 3047 -263 
Q 3047 -616 2716 -925 
Q 2228 -1381 1444 -1381 
Q 841 -1381 425 -1109 
Q 191 -953 191 -784 
Q 191 -709 225 -634 
Q 278 -519 444 -313 
Q 466 -284 763 25 
Q 600 122 533 198 
Q 466 275 466 372 
Q 466 481 555 628 
Q 644 775 966 1044 
z
M 1509 2797 
Q 1278 2797 1122 2612 
Q 966 2428 966 2047 
Q 966 1553 1178 1281 
Q 1341 1075 1591 1075 
Q 1828 1075 1981 1253 
Q 2134 1431 2134 1813 
Q 2134 2309 1919 2591 
Q 1759 2797 1509 2797 
z
M 934 0 
Q 788 -159 713 -296 
Q 638 -434 638 -550 
Q 638 -700 819 -813 
Q 1131 -1006 1722 -1006 
Q 2284 -1006 2551 -807 
Q 2819 -609 2819 -384 
Q 2819 -222 2659 -153 
Q 2497 -84 2016 -72 
Q 1313 -53 934 0 
z
" transform="scale(0.015625)"/>
       <path id="TimesNewRomanPSMT-77" d="M 41 2863 
L 1241 2863 
L 1241 2747 
Q 1075 2734 1023 2687 
Q 972 2641 972 2553 
Q 972 2456 1025 2319 
L 1638 672 
L 2253 2013 
L 2091 2434 
Q 2016 2622 1894 2694 
Q 1825 2738 1638 2747 
L 1638 2863 
L 3000 2863 
L 3000 2747 
Q 2775 2738 2681 2666 
Q 2619 2616 2619 2506 
Q 2619 2444 2644 2378 
L 3294 734 
L 3897 2319 
Q 3959 2488 3959 2588 
Q 3959 2647 3898 2694 
Q 3838 2741 3659 2747 
L 3659 2863 
L 4563 2863 
L 4563 2747 
Q 4291 2706 4163 2378 
L 3206 -88 
L 3078 -88 
L 2363 1741 
L 1528 -88 
L 1413 -88 
L 494 2319 
Q 403 2547 315 2626 
Q 228 2706 41 2747 
L 41 2863 
z
" transform="scale(0.015625)"/>
       <path id="TimesNewRomanPSMT-68" d="M 1041 4444 
L 1041 2350 
Q 1388 2731 1591 2839 
Q 1794 2947 1997 2947 
Q 2241 2947 2416 2812 
Q 2591 2678 2675 2391 
Q 2734 2191 2734 1659 
L 2734 647 
Q 2734 375 2778 275 
Q 2809 200 2884 156 
Q 2959 113 3159 113 
L 3159 0 
L 1753 0 
L 1753 113 
L 1819 113 
Q 2019 113 2097 173 
Q 2175 234 2206 353 
Q 2216 403 2216 647 
L 2216 1659 
Q 2216 2128 2167 2275 
Q 2119 2422 2012 2495 
Q 1906 2569 1756 2569 
Q 1603 2569 1437 2487 
Q 1272 2406 1041 2159 
L 1041 647 
Q 1041 353 1073 281 
Q 1106 209 1195 161 
Q 1284 113 1503 113 
L 1503 0 
L 84 0 
L 84 113 
Q 275 113 384 172 
Q 447 203 484 290 
Q 522 378 522 647 
L 522 3238 
Q 522 3728 498 3840 
Q 475 3953 426 3993 
Q 378 4034 297 4034 
Q 231 4034 84 3984 
L 41 4094 
L 897 4444 
L 1041 4444 
z
" transform="scale(0.015625)"/>
       <path id="TimesNewRomanPSMT-4b" d="M 1913 2350 
L 3475 797 
Q 3859 413 4131 273 
Q 4403 134 4675 116 
L 4675 0 
L 2659 0 
L 2659 116 
Q 2841 116 2920 177 
Q 3000 238 3000 313 
Q 3000 388 2970 447 
Q 2941 506 2775 669 
L 1313 2116 
L 1313 750 
Q 1313 428 1353 325 
Q 1384 247 1484 191 
Q 1619 116 1769 116 
L 1913 116 
L 1913 0 
L 106 0 
L 106 116 
L 256 116 
Q 519 116 638 269 
Q 713 369 713 750 
L 713 3488 
Q 713 3809 672 3916 
Q 641 3991 544 4047 
Q 406 4122 256 4122 
L 106 4122 
L 106 4238 
L 1913 4238 
L 1913 4122 
L 1769 4122 
Q 1622 4122 1484 4050 
Q 1388 4000 1350 3900 
Q 1313 3800 1313 3488 
L 1313 2191 
Q 1375 2250 1741 2588 
Q 2669 3438 2863 3722 
Q 2947 3847 2947 3941 
Q 2947 4013 2881 4067 
Q 2816 4122 2659 4122 
L 2563 4122 
L 2563 4238 
L 4119 4238 
L 4119 4122 
Q 3981 4119 3868 4084 
Q 3756 4050 3593 3951 
Q 3431 3853 3194 3634 
Q 3125 3572 2559 2994 
L 1913 2350 
z
" transform="scale(0.015625)"/>
       <path id="TimesNewRomanPSMT-28" d="M 1988 -1253 
L 1988 -1369 
Q 1516 -1131 1200 -813 
Q 750 -359 506 256 
Q 263 872 263 1534 
Q 263 2503 741 3301 
Q 1219 4100 1988 4444 
L 1988 4313 
Q 1603 4100 1356 3731 
Q 1109 3363 987 2797 
Q 866 2231 866 1616 
Q 866 947 969 400 
Q 1050 -31 1165 -292 
Q 1281 -553 1476 -793 
Q 1672 -1034 1988 -1253 
z
" transform="scale(0.015625)"/>
       <path id="TimesNewRomanPSMT-41" d="M 2928 1419 
L 1288 1419 
L 1000 750 
Q 894 503 894 381 
Q 894 284 986 211 
Q 1078 138 1384 116 
L 1384 0 
L 50 0 
L 50 116 
Q 316 163 394 238 
Q 553 388 747 847 
L 2238 4334 
L 2347 4334 
L 3822 809 
Q 4000 384 4145 257 
Q 4291 131 4550 116 
L 4550 0 
L 2878 0 
L 2878 116 
Q 3131 128 3220 200 
Q 3309 272 3309 375 
Q 3309 513 3184 809 
L 2928 1419 
z
M 2841 1650 
L 2122 3363 
L 1384 1650 
L 2841 1650 
z
" transform="scale(0.015625)"/>
       <path id="TimesNewRomanPSMT-55" d="M 3053 4122 
L 3053 4238 
L 4553 4238 
L 4553 4122 
L 4394 4122 
Q 4144 4122 4009 3913 
Q 3944 3816 3944 3463 
L 3944 1744 
Q 3944 1106 3817 754 
Q 3691 403 3320 151 
Q 2950 -100 2313 -100 
Q 1619 -100 1259 140 
Q 900 381 750 788 
Q 650 1066 650 1831 
L 650 3488 
Q 650 3878 542 4000 
Q 434 4122 194 4122 
L 34 4122 
L 34 4238 
L 1866 4238 
L 1866 4122 
L 1703 4122 
Q 1441 4122 1328 3956 
Q 1250 3844 1250 3488 
L 1250 1641 
Q 1250 1394 1295 1075 
Q 1341 756 1459 578 
Q 1578 400 1801 284 
Q 2025 169 2350 169 
Q 2766 169 3094 350 
Q 3422 531 3542 814 
Q 3663 1097 3663 1772 
L 3663 3488 
Q 3663 3884 3575 3984 
Q 3453 4122 3213 4122 
L 3053 4122 
z
" transform="scale(0.015625)"/>
       <path id="TimesNewRomanPSMT-3d" d="M 116 2759 
L 3488 2759 
L 3488 2503 
L 116 2503 
L 116 2759 
z
M 116 1741 
L 3488 1741 
L 3488 1484 
L 116 1484 
L 116 1741 
z
" transform="scale(0.015625)"/>
       <path id="TimesNewRomanPSMT-39" d="M 338 -88 
L 338 28 
Q 744 34 1094 217 
Q 1444 400 1770 856 
Q 2097 1313 2225 1859 
Q 1734 1544 1338 1544 
Q 891 1544 572 1889 
Q 253 2234 253 2806 
Q 253 3363 572 3797 
Q 956 4325 1575 4325 
Q 2097 4325 2469 3894 
Q 2925 3359 2925 2575 
Q 2925 1869 2578 1258 
Q 2231 647 1613 244 
Q 1109 -88 516 -88 
L 338 -88 
z
M 2275 2091 
Q 2331 2497 2331 2741 
Q 2331 3044 2228 3395 
Q 2125 3747 1936 3934 
Q 1747 4122 1506 4122 
Q 1228 4122 1018 3872 
Q 809 3622 809 3128 
Q 809 2469 1088 2097 
Q 1291 1828 1588 1828 
Q 1731 1828 1928 1897 
Q 2125 1966 2275 2091 
z
" transform="scale(0.015625)"/>
       <path id="TimesNewRomanPSMT-37" d="M 644 4238 
L 2916 4238 
L 2916 4119 
L 1503 -88 
L 1153 -88 
L 2419 3728 
L 1253 3728 
Q 900 3728 750 3644 
Q 488 3500 328 3200 
L 238 3234 
L 644 4238 
z
" transform="scale(0.015625)"/>
       <path id="TimesNewRomanPSMT-29" d="M 144 4313 
L 144 4444 
Q 619 4209 934 3891 
Q 1381 3434 1625 2820 
Q 1869 2206 1869 1541 
Q 1869 572 1392 -226 
Q 916 -1025 144 -1369 
L 144 -1253 
Q 528 -1038 776 -670 
Q 1025 -303 1145 264 
Q 1266 831 1266 1447 
Q 1266 2113 1163 2663 
Q 1084 3094 967 3353 
Q 850 3613 656 3853 
Q 463 4094 144 4313 
z
" transform="scale(0.015625)"/>
      </defs>
      <use xlink:href="#TimesNewRomanPSMT-50"/>
      <use xlink:href="#TimesNewRomanPSMT-52" x="55.615234"/>
      <use xlink:href="#TimesNewRomanPSMT-43" x="122.314453"/>
      <use xlink:href="#TimesNewRomanPSMT-20" x="189.013672"/>
      <use xlink:href="#TimesNewRomanPSMT-63" x="214.013672"/>
      <use xlink:href="#TimesNewRomanPSMT-75" x="258.398438"/>
      <use xlink:href="#TimesNewRomanPSMT-72" x="308.398438"/>
      <use xlink:href="#TimesNewRomanPSMT-76" x="341.699219"/>
      <use xlink:href="#TimesNewRomanPSMT-65" x="391.699219"/>
      <use xlink:href="#TimesNewRomanPSMT-20" x="436.083984"/>
      <use xlink:href="#TimesNewRomanPSMT-6f" x="461.083984"/>
      <use xlink:href="#TimesNewRomanPSMT-66" x="511.083984"/>
      <use xlink:href="#TimesNewRomanPSMT-20" x="544.384766"/>
      <use xlink:href="#TimesNewRomanPSMT-49" x="569.384766"/>
      <use xlink:href="#TimesNewRomanPSMT-6d" x="602.685547"/>
      <use xlink:href="#TimesNewRomanPSMT-67" x="680.46875"/>
      <use xlink:href="#TimesNewRomanPSMT-77" x="730.46875"/>
      <use xlink:href="#TimesNewRomanPSMT-69" x="802.685547"/>
      <use xlink:href="#TimesNewRomanPSMT-74" x="830.46875"/>
      <use xlink:href="#TimesNewRomanPSMT-68" x="858.251953"/>
      <use xlink:href="#TimesNewRomanPSMT-4b" x="908.251953"/>
      <use xlink:href="#TimesNewRomanPSMT-67" x="980.46875"/>
      <use xlink:href="#TimesNewRomanPSMT-20" x="1030.46875"/>
      <use xlink:href="#TimesNewRomanPSMT-28" x="1055.46875"/>
      <use xlink:href="#TimesNewRomanPSMT-41" x="1088.769531"/>
      <use xlink:href="#TimesNewRomanPSMT-55" x="1160.986328"/>
      <use xlink:href="#TimesNewRomanPSMT-50" x="1233.203125"/>
      <use xlink:href="#TimesNewRomanPSMT-52" x="1288.818359"/>
      <use xlink:href="#TimesNewRomanPSMT-43" x="1355.517578"/>
      <use xlink:href="#TimesNewRomanPSMT-20" x="1422.216797"/>
      <use xlink:href="#TimesNewRomanPSMT-3d" x="1447.216797"/>
      <use xlink:href="#TimesNewRomanPSMT-20" x="1503.613281"/>
      <use xlink:href="#TimesNewRomanPSMT-30" x="1528.613281"/>
      <use xlink:href="#TimesNewRomanPSMT-2e" x="1578.613281"/>
      <use xlink:href="#TimesNewRomanPSMT-39" x="1603.613281"/>
      <use xlink:href="#TimesNewRomanPSMT-39" x="1653.613281"/>
      <use xlink:href="#TimesNewRomanPSMT-39" x="1703.613281"/>
      <use xlink:href="#TimesNewRomanPSMT-37" x="1753.613281"/>
      <use xlink:href="#TimesNewRomanPSMT-29" x="1803.613281"/>
     </g>
    </g>
    <g id="line2d_18">
     <path d="M 171.218437 244.689812 
L 181.218437 244.689812 
L 191.218437 244.689812 
" style="fill: none; stroke: #006400; stroke-width: 1.2; stroke-linecap: square"/>
    </g>
    <g id="text_17">
     <!-- PRC curve of ImgwithEmr (AUPRC = 0.9940) -->
     <g transform="translate(199.218437 248.189812) scale(0.1 -0.1)">
      <defs>
       <path id="TimesNewRomanPSMT-45" d="M 1338 4006 
L 1338 2331 
L 2269 2331 
Q 2631 2331 2753 2441 
Q 2916 2584 2934 2947 
L 3050 2947 
L 3050 1472 
L 2934 1472 
Q 2891 1781 2847 1869 
Q 2791 1978 2662 2040 
Q 2534 2103 2269 2103 
L 1338 2103 
L 1338 706 
Q 1338 425 1363 364 
Q 1388 303 1450 267 
Q 1513 231 1688 231 
L 2406 231 
Q 2766 231 2928 281 
Q 3091 331 3241 478 
Q 3434 672 3638 1063 
L 3763 1063 
L 3397 0 
L 131 0 
L 131 116 
L 281 116 
Q 431 116 566 188 
Q 666 238 702 338 
Q 738 438 738 747 
L 738 3500 
Q 738 3903 656 3997 
Q 544 4122 281 4122 
L 131 4122 
L 131 4238 
L 3397 4238 
L 3444 3309 
L 3322 3309 
Q 3256 3644 3176 3769 
Q 3097 3894 2941 3959 
Q 2816 4006 2500 4006 
L 1338 4006 
z
" transform="scale(0.015625)"/>
      </defs>
      <use xlink:href="#TimesNewRomanPSMT-50"/>
      <use xlink:href="#TimesNewRomanPSMT-52" x="55.615234"/>
      <use xlink:href="#TimesNewRomanPSMT-43" x="122.314453"/>
      <use xlink:href="#TimesNewRomanPSMT-20" x="189.013672"/>
      <use xlink:href="#TimesNewRomanPSMT-63" x="214.013672"/>
      <use xlink:href="#TimesNewRomanPSMT-75" x="258.398438"/>
      <use xlink:href="#TimesNewRomanPSMT-72" x="308.398438"/>
      <use xlink:href="#TimesNewRomanPSMT-76" x="341.699219"/>
      <use xlink:href="#TimesNewRomanPSMT-65" x="391.699219"/>
      <use xlink:href="#TimesNewRomanPSMT-20" x="436.083984"/>
      <use xlink:href="#TimesNewRomanPSMT-6f" x="461.083984"/>
      <use xlink:href="#TimesNewRomanPSMT-66" x="511.083984"/>
      <use xlink:href="#TimesNewRomanPSMT-20" x="544.384766"/>
      <use xlink:href="#TimesNewRomanPSMT-49" x="569.384766"/>
      <use xlink:href="#TimesNewRomanPSMT-6d" x="602.685547"/>
      <use xlink:href="#TimesNewRomanPSMT-67" x="680.46875"/>
      <use xlink:href="#TimesNewRomanPSMT-77" x="730.46875"/>
      <use xlink:href="#TimesNewRomanPSMT-69" x="802.685547"/>
      <use xlink:href="#TimesNewRomanPSMT-74" x="830.46875"/>
      <use xlink:href="#TimesNewRomanPSMT-68" x="858.251953"/>
      <use xlink:href="#TimesNewRomanPSMT-45" x="908.251953"/>
      <use xlink:href="#TimesNewRomanPSMT-6d" x="969.335938"/>
      <use xlink:href="#TimesNewRomanPSMT-72" x="1047.119141"/>
      <use xlink:href="#TimesNewRomanPSMT-20" x="1080.419922"/>
      <use xlink:href="#TimesNewRomanPSMT-28" x="1105.419922"/>
      <use xlink:href="#TimesNewRomanPSMT-41" x="1138.720703"/>
      <use xlink:href="#TimesNewRomanPSMT-55" x="1210.9375"/>
      <use xlink:href="#TimesNewRomanPSMT-50" x="1283.154297"/>
      <use xlink:href="#TimesNewRomanPSMT-52" x="1338.769531"/>
      <use xlink:href="#TimesNewRomanPSMT-43" x="1405.46875"/>
      <use xlink:href="#TimesNewRomanPSMT-20" x="1472.167969"/>
      <use xlink:href="#TimesNewRomanPSMT-3d" x="1497.167969"/>
      <use xlink:href="#TimesNewRomanPSMT-20" x="1553.564453"/>
      <use xlink:href="#TimesNewRomanPSMT-30" x="1578.564453"/>
      <use xlink:href="#TimesNewRomanPSMT-2e" x="1628.564453"/>
      <use xlink:href="#TimesNewRomanPSMT-39" x="1653.564453"/>
      <use xlink:href="#TimesNewRomanPSMT-39" x="1703.564453"/>
      <use xlink:href="#TimesNewRomanPSMT-34" x="1753.564453"/>
      <use xlink:href="#TimesNewRomanPSMT-30" x="1803.564453"/>
      <use xlink:href="#TimesNewRomanPSMT-29" x="1853.564453"/>
     </g>
    </g>
    <g id="line2d_19">
     <path d="M 171.218437 258.847625 
L 181.218437 258.847625 
L 191.218437 258.847625 
" style="fill: none; stroke: #ff8c00; stroke-width: 1.2; stroke-linecap: square"/>
    </g>
    <g id="text_18">
     <!-- PRC curve of Img (AUPRC = 0.8986) -->
     <g transform="translate(199.218437 262.347625) scale(0.1 -0.1)">
      <use xlink:href="#TimesNewRomanPSMT-50"/>
      <use xlink:href="#TimesNewRomanPSMT-52" x="55.615234"/>
      <use xlink:href="#TimesNewRomanPSMT-43" x="122.314453"/>
      <use xlink:href="#TimesNewRomanPSMT-20" x="189.013672"/>
      <use xlink:href="#TimesNewRomanPSMT-63" x="214.013672"/>
      <use xlink:href="#TimesNewRomanPSMT-75" x="258.398438"/>
      <use xlink:href="#TimesNewRomanPSMT-72" x="308.398438"/>
      <use xlink:href="#TimesNewRomanPSMT-76" x="341.699219"/>
      <use xlink:href="#TimesNewRomanPSMT-65" x="391.699219"/>
      <use xlink:href="#TimesNewRomanPSMT-20" x="436.083984"/>
      <use xlink:href="#TimesNewRomanPSMT-6f" x="461.083984"/>
      <use xlink:href="#TimesNewRomanPSMT-66" x="511.083984"/>
      <use xlink:href="#TimesNewRomanPSMT-20" x="544.384766"/>
      <use xlink:href="#TimesNewRomanPSMT-49" x="569.384766"/>
      <use xlink:href="#TimesNewRomanPSMT-6d" x="602.685547"/>
      <use xlink:href="#TimesNewRomanPSMT-67" x="680.46875"/>
      <use xlink:href="#TimesNewRomanPSMT-20" x="730.46875"/>
      <use xlink:href="#TimesNewRomanPSMT-28" x="755.46875"/>
      <use xlink:href="#TimesNewRomanPSMT-41" x="788.769531"/>
      <use xlink:href="#TimesNewRomanPSMT-55" x="860.986328"/>
      <use xlink:href="#TimesNewRomanPSMT-50" x="933.203125"/>
      <use xlink:href="#TimesNewRomanPSMT-52" x="988.818359"/>
      <use xlink:href="#TimesNewRomanPSMT-43" x="1055.517578"/>
      <use xlink:href="#TimesNewRomanPSMT-20" x="1122.216797"/>
      <use xlink:href="#TimesNewRomanPSMT-3d" x="1147.216797"/>
      <use xlink:href="#TimesNewRomanPSMT-20" x="1203.613281"/>
      <use xlink:href="#TimesNewRomanPSMT-30" x="1228.613281"/>
      <use xlink:href="#TimesNewRomanPSMT-2e" x="1278.613281"/>
      <use xlink:href="#TimesNewRomanPSMT-38" x="1303.613281"/>
      <use xlink:href="#TimesNewRomanPSMT-39" x="1353.613281"/>
      <use xlink:href="#TimesNewRomanPSMT-38" x="1403.613281"/>
      <use xlink:href="#TimesNewRomanPSMT-36" x="1453.613281"/>
      <use xlink:href="#TimesNewRomanPSMT-29" x="1503.613281"/>
     </g>
    </g>
    <g id="line2d_20">
     <path d="M 171.218437 273.005437 
L 181.218437 273.005437 
L 191.218437 273.005437 
" style="fill: none; stroke-dasharray: 5.55,2.4; stroke-dashoffset: 0; stroke: #ff0000; stroke-width: 1.5"/>
    </g>
    <g id="text_19">
     <!-- Random Classifier -->
     <g transform="translate(199.218437 276.505437) scale(0.1 -0.1)">
      <use xlink:href="#TimesNewRomanPSMT-52"/>
      <use xlink:href="#TimesNewRomanPSMT-61" x="66.699219"/>
      <use xlink:href="#TimesNewRomanPSMT-6e" x="111.083984"/>
      <use xlink:href="#TimesNewRomanPSMT-64" x="161.083984"/>
      <use xlink:href="#TimesNewRomanPSMT-6f" x="211.083984"/>
      <use xlink:href="#TimesNewRomanPSMT-6d" x="261.083984"/>
      <use xlink:href="#TimesNewRomanPSMT-20" x="338.867188"/>
      <use xlink:href="#TimesNewRomanPSMT-43" x="363.867188"/>
      <use xlink:href="#TimesNewRomanPSMT-6c" x="430.566406"/>
      <use xlink:href="#TimesNewRomanPSMT-61" x="458.349609"/>
      <use xlink:href="#TimesNewRomanPSMT-73" x="502.734375"/>
      <use xlink:href="#TimesNewRomanPSMT-73" x="541.650391"/>
      <use xlink:href="#TimesNewRomanPSMT-69" x="580.566406"/>
      <use xlink:href="#TimesNewRomanPSMT-66" x="608.349609"/>
      <use xlink:href="#TimesNewRomanPSMT-69" x="641.650391"/>
      <use xlink:href="#TimesNewRomanPSMT-65" x="669.433594"/>
      <use xlink:href="#TimesNewRomanPSMT-72" x="713.818359"/>
     </g>
    </g>
   </g>
  </g>
 </g>
 <defs>
  <clipPath id="p3b66cc959f">
   <rect x="39.782813" y="21.5325" width="357.12" height="266.112"/>
  </clipPath>
 </defs>
</svg>
